<svg xmlns="http://www.w3.org/2000/svg" width="151" height="151" viewBox="0 0 151 151" fill="none"><path d="M106 77.3804H5.00391V145.175H106V77.3804Z" fill="#070808" stroke="black" stroke-width="1.1465"></path><path d="M101.996 73.7939H1V141.588H101.996V73.7939Z" fill="white" stroke="black" stroke-width="1.1465"></path><path d="M9.45446 83.1625C10.7493 83.1625 11.799 82.1127 11.799 80.8179C11.799 79.523 10.7493 78.4733 9.45446 78.4733C8.15957 78.4733 7.10986 79.523 7.10986 80.8179C7.10986 82.1127 8.15957 83.1625 9.45446 83.1625Z" fill="black"></path><path d="M16.7865 83.1625C18.0814 83.1625 19.1311 82.1127 19.1311 80.8179C19.1311 79.523 18.0814 78.4733 16.7865 78.4733C15.4916 78.4733 14.4419 79.523 14.4419 80.8179C14.4419 82.1127 15.4916 83.1625 16.7865 83.1625Z" fill="black"></path><path d="M24.118 83.1625C25.4129 83.1625 26.4626 82.1127 26.4626 80.8179C26.4626 79.523 25.4129 78.4733 24.118 78.4733C22.8231 78.4733 21.7734 79.523 21.7734 80.8179C21.7734 82.1127 22.8231 83.1625 24.118 83.1625Z" fill="black"></path><path d="M30.1366 87.8959L7.10791 87.9465L7.21121 134.958L30.2399 134.907L30.1366 87.8959Z" fill="#070808" stroke="black" stroke-width="1.1465"></path><path d="M64.9697 123.279L65.8539 125.107L65.5956 127.123L67.4335 126.239L69.4503 126.478L68.5661 124.65L68.8244 122.623L66.9865 123.517L64.9697 123.279Z" fill="#070808"></path><path d="M61.5322 109.022L56.7437 112.38L62.5753 112.589L60.6778 118.123L65.5259 114.864L67.2347 120.447L69.2515 114.963L73.9208 118.48L72.3213 112.857L78.1629 112.967L73.5631 109.36L78.3517 106.002L72.5101 105.794L74.4175 100.26L69.5594 103.519L67.8507 97.9353L65.8438 103.419L61.1745 99.9024L62.774 105.525L56.9324 105.416L61.5322 109.022Z" fill="black"></path><path d="M28.3303 146.576L66.5889 107.572C66.9466 107.204 67.5128 107.115 67.9599 107.363C68.1884 107.483 70.1952 108.605 70.4635 110.423C70.5131 110.781 70.3939 111.148 70.1455 111.407C32.0459 150.261 31.9366 150.301 31.5392 150.42C31.4995 150.43 31.43 150.45 31.3406 150.46C31.0822 150.49 30.6153 150.46 29.8801 150.023C28.8966 149.437 28.2111 148.563 28.0224 147.629C27.9429 147.251 28.0522 146.854 28.3303 146.576Z" fill="#070808"></path><path d="M67.5326 108.148C69.003 108.844 69.5394 110.443 69.5692 110.513L69.6189 110.662L62.5454 117.874L62.3864 117.527C61.8102 116.215 60.5684 115.738 60.4194 115.689L60.022 115.56L67.3637 108.069L67.5326 108.148Z" fill="white" stroke="#070808" stroke-width="0.5732" stroke-miterlimit="10"></path><path d="M38.0963 142.463C38.0963 142.463 36.6359 141.976 35.9802 140.476L29.2544 147.251C29.2544 147.251 29.7511 148.801 31.142 149.477L38.0963 142.463Z" fill="white"></path><path d="M77.4775 117.219L78.0637 118.441L77.8948 119.782L79.1068 119.196L80.448 119.355L79.8619 118.133L80.0308 116.791L78.8187 117.378L77.4775 117.219Z" fill="black"></path><path d="M47.4844 107.026L48.6765 109.509L48.3388 112.241L50.8026 111.039L53.5346 111.367L52.3424 108.883L52.6902 106.161L50.2164 107.353L47.4844 107.026Z" fill="black"></path><path d="M33.2183 87.8416L33.3176 134.902L96.2838 134.833L96.1746 87.7721L33.2183 87.8416Z" stroke="black" stroke-width="1.1465"></path></svg>