<svg xmlns="http://www.w3.org/2000/svg" width="143" height="104" viewBox="0 0 143 104" fill="none"><rect y="0.4375" width="142.771" height="102.807" rx="4.61082" fill="#212121"></rect><path fill-rule="evenodd" clip-rule="evenodd" d="M10.0252 14.2413L9.32793 14.1219C9.0814 14.0802 8.8289 14.0901 8.58639 14.151C8.34387 14.2118 8.11661 14.3223 7.91896 14.4754C7.72131 14.6286 7.55756 14.821 7.43806 15.0406C7.31855 15.2603 7.2459 15.5023 7.22467 15.7514C7.20345 16.0005 7.23412 16.2514 7.31474 16.488C7.39537 16.7247 7.5242 16.9421 7.6931 17.1264C7.862 17.3108 8.0673 17.4581 8.29603 17.5591C8.52475 17.6601 8.77194 17.7126 9.02197 17.7132H10.8303V18.4365H9.02197C8.67149 18.4365 8.32485 18.3636 8.00398 18.2227C7.68311 18.0817 7.39501 17.8756 7.15792 17.6175C6.92082 17.3594 6.73991 17.0549 6.62662 16.7232C6.51334 16.3915 6.47015 16.04 6.4998 15.6908C6.52944 15.3415 6.63128 15.0023 6.79885 14.6945C6.96642 14.3866 7.19608 14.117 7.47329 13.9025C7.7505 13.6881 8.06921 13.5335 8.40925 13.4486C8.7493 13.3638 9.10326 13.3504 9.44873 13.4095C9.53441 12.9358 9.71374 12.4841 9.9762 12.0806C10.2387 11.6772 10.579 11.3302 10.9772 11.0599C11.3755 10.7896 11.8237 10.6015 12.2955 10.5066C12.7674 10.4117 13.2534 10.4119 13.7252 10.5071C14.197 10.6024 14.645 10.7909 15.043 11.0615C15.4411 11.3321 15.7811 11.6794 16.0433 12.083C16.3054 12.4867 16.4844 12.9386 16.5697 13.4122C16.655 13.8859 16.645 14.3719 16.5401 14.8416C16.9888 14.9141 17.3937 15.1527 17.6744 15.5101C17.9551 15.8675 18.091 16.3174 18.0551 16.7705C18.0191 17.2235 17.814 17.6464 17.4805 17.9551C17.1471 18.2638 16.7096 18.4356 16.2551 18.4365H13.7235V17.7132H16.2551C16.5279 17.713 16.7906 17.6101 16.9909 17.425C17.1912 17.2399 17.3144 16.9861 17.336 16.7142C17.3576 16.4423 17.276 16.1723 17.1075 15.9578C16.939 15.7434 16.6959 15.6003 16.4266 15.557L15.6765 15.4376L15.8327 14.6941C15.9081 14.3216 15.9094 13.9379 15.8365 13.5649C15.7635 13.1919 15.6179 12.8369 15.4078 12.5203C15.1977 12.2036 14.9273 11.9314 14.612 11.7192C14.2967 11.507 13.9427 11.359 13.5702 11.2836C13.1977 11.2083 12.814 11.207 12.441 11.2799C12.068 11.3528 11.7131 11.4985 11.3964 11.7086C11.0797 11.9187 10.8075 12.1891 10.5953 12.5044C10.3831 12.8197 10.2351 13.1737 10.1597 13.5462L10.0259 14.2405L10.0252 14.2413ZM10.1067 16.1631C10.1746 16.2309 10.2665 16.269 10.3624 16.269C10.4583 16.269 10.5503 16.2309 10.6181 16.1631L11.916 14.8647V19.4054C11.916 19.4882 11.9541 19.5676 12.0219 19.6262C12.0898 19.6847 12.1818 19.7176 12.2777 19.7176C12.3736 19.7176 12.4656 19.6847 12.5334 19.6262C12.6012 19.5676 12.6393 19.4882 12.6393 19.4054V14.8665L13.9353 16.1624C13.9686 16.1969 14.0085 16.2245 14.0527 16.2434C14.0968 16.2624 14.1442 16.2724 14.1923 16.2728C14.2403 16.2732 14.2879 16.2641 14.3323 16.2459C14.3768 16.2277 14.4172 16.2008 14.4511 16.1669C14.4851 16.1329 14.5119 16.0925 14.5301 16.0481C14.5483 16.0036 14.5575 15.956 14.557 15.908C14.5566 15.86 14.5466 15.8125 14.5277 15.7684C14.5087 15.7243 14.4812 15.6844 14.4466 15.651L12.5327 13.7371C12.4992 13.7034 12.4592 13.6767 12.4153 13.6585C12.3714 13.6402 12.3243 13.6309 12.2767 13.6309C12.2291 13.6309 12.182 13.6402 12.1381 13.6585C12.0941 13.6767 12.0542 13.7034 12.0206 13.7371L10.1067 15.651C10.0731 15.6846 10.0463 15.7245 10.0281 15.7685C10.0099 15.8124 10.0005 15.8595 10.0005 15.9071C10.0005 15.9546 10.0099 16.0017 10.0281 16.0457C10.0463 16.0896 10.0731 16.1295 10.1067 16.1631Z" fill="white"></path><path d="M23.347 19.4375V11.0375H26.299C26.891 11.0375 27.379 11.1335 27.763 11.3255C28.155 11.5095 28.447 11.7655 28.639 12.0935C28.831 12.4135 28.927 12.7735 28.927 13.1735C28.927 13.7175 28.779 14.1455 28.483 14.4575C28.195 14.7695 27.847 14.9855 27.439 15.1055C27.751 15.1615 28.035 15.2855 28.291 15.4775C28.547 15.6695 28.747 15.9095 28.891 16.1975C29.043 16.4855 29.119 16.8015 29.119 17.1455C29.119 17.5695 29.015 17.9575 28.807 18.3095C28.599 18.6535 28.291 18.9295 27.883 19.1375C27.475 19.3375 26.979 19.4375 26.395 19.4375H23.347ZM24.355 14.7095H26.227C26.763 14.7095 27.175 14.5855 27.463 14.3375C27.751 14.0815 27.895 13.7295 27.895 13.2815C27.895 12.8575 27.751 12.5175 27.463 12.2615C27.183 12.0055 26.759 11.8775 26.191 11.8775H24.355V14.7095ZM24.355 18.5975H26.287C26.863 18.5975 27.307 18.4655 27.619 18.2015C27.931 17.9295 28.087 17.5535 28.087 17.0735C28.087 16.6015 27.923 16.2255 27.595 15.9455C27.267 15.6575 26.823 15.5135 26.263 15.5135H24.355V18.5975ZM32.6057 19.5815C32.1097 19.5815 31.6977 19.4975 31.3697 19.3295C31.0417 19.1615 30.7977 18.9375 30.6377 18.6575C30.4777 18.3775 30.3977 18.0735 30.3977 17.7455C30.3977 17.1375 30.6297 16.6695 31.0937 16.3415C31.5577 16.0135 32.1897 15.8495 32.9897 15.8495H34.5977V15.7775C34.5977 15.2575 34.4617 14.8655 34.1897 14.6015C33.9177 14.3295 33.5537 14.1935 33.0977 14.1935C32.7057 14.1935 32.3657 14.2935 32.0777 14.4935C31.7977 14.6855 31.6217 14.9695 31.5497 15.3455H30.5177C30.5577 14.9135 30.7017 14.5495 30.9497 14.2535C31.2057 13.9575 31.5217 13.7335 31.8977 13.5815C32.2737 13.4215 32.6737 13.3415 33.0977 13.3415C33.9297 13.3415 34.5537 13.5655 34.9697 14.0135C35.3937 14.4535 35.6057 15.0415 35.6057 15.7775V19.4375H34.7057L34.6457 18.3695C34.4777 18.7055 34.2297 18.9935 33.9017 19.2335C33.5817 19.4655 33.1497 19.5815 32.6057 19.5815ZM32.7617 18.7295C33.1457 18.7295 33.4737 18.6295 33.7457 18.4295C34.0257 18.2295 34.2377 17.9695 34.3817 17.6495C34.5257 17.3295 34.5977 16.9935 34.5977 16.6415V16.6295H33.0737C32.4817 16.6295 32.0617 16.7335 31.8137 16.9415C31.5737 17.1415 31.4537 17.3935 31.4537 17.6975C31.4537 18.0095 31.5657 18.2615 31.7897 18.4535C32.0217 18.6375 32.3457 18.7295 32.7617 18.7295ZM39.9739 19.5815C39.4059 19.5815 38.8939 19.4535 38.4379 19.1975C37.9899 18.9335 37.6339 18.5695 37.3699 18.1055C37.1139 17.6335 36.9859 17.0855 36.9859 16.4615C36.9859 15.8375 37.1139 15.2935 37.3699 14.8295C37.6339 14.3575 37.9899 13.9935 38.4379 13.7375C38.8939 13.4735 39.4059 13.3415 39.9739 13.3415C40.6779 13.3415 41.2699 13.5255 41.7499 13.8935C42.2379 14.2615 42.5459 14.7535 42.6739 15.3695H41.6419C41.5619 15.0015 41.3659 14.7175 41.0539 14.5175C40.7419 14.3095 40.3779 14.2055 39.9619 14.2055C39.6259 14.2055 39.3099 14.2895 39.0139 14.4575C38.7179 14.6255 38.4779 14.8775 38.2939 15.2135C38.1099 15.5495 38.0179 15.9655 38.0179 16.4615C38.0179 16.9575 38.1099 17.3735 38.2939 17.7095C38.4779 18.0455 38.7179 18.3015 39.0139 18.4775C39.3099 18.6455 39.6259 18.7295 39.9619 18.7295C40.3779 18.7295 40.7419 18.6295 41.0539 18.4295C41.3659 18.2215 41.5619 17.9295 41.6419 17.5535H42.6739C42.5539 18.1535 42.2499 18.6415 41.7619 19.0175C41.2739 19.3935 40.6779 19.5815 39.9739 19.5815ZM44.2017 19.4375V10.7975H45.2097V15.9935L47.6457 13.4855H48.8817L46.2417 16.1735L49.2177 19.4375H47.9337L45.2097 16.3535V19.4375H44.2017ZM52.5405 19.5815C51.8365 19.5815 51.2765 19.3695 50.8605 18.9455C50.4445 18.5135 50.2365 17.8535 50.2365 16.9655V13.4855H51.2445V16.8575C51.2445 18.0975 51.7525 18.7175 52.7685 18.7175C53.2885 18.7175 53.7165 18.5335 54.0525 18.1655C54.3965 17.7895 54.5685 17.2575 54.5685 16.5695V13.4855H55.5765V19.4375H54.6645L54.5925 18.3695C54.4085 18.7455 54.1325 19.0415 53.7645 19.2575C53.4045 19.4735 52.9965 19.5815 52.5405 19.5815ZM57.3557 22.0775V13.4855H58.2677L58.3637 14.4695C58.5557 14.1815 58.8277 13.9215 59.1797 13.6895C59.5397 13.4575 59.9957 13.3415 60.5477 13.3415C61.1397 13.3415 61.6557 13.4775 62.0957 13.7495C62.5357 14.0215 62.8757 14.3935 63.1157 14.8655C63.3637 15.3375 63.4877 15.8735 63.4877 16.4735C63.4877 17.0735 63.3637 17.6095 63.1157 18.0815C62.8757 18.5455 62.5317 18.9135 62.0837 19.1855C61.6437 19.4495 61.1277 19.5815 60.5357 19.5815C60.0477 19.5815 59.6117 19.4815 59.2277 19.2815C58.8517 19.0815 58.5637 18.8015 58.3637 18.4415V22.0775H57.3557ZM60.4277 18.7055C60.8277 18.7055 61.1797 18.6135 61.4837 18.4295C61.7877 18.2375 62.0277 17.9735 62.2037 17.6375C62.3797 17.3015 62.4677 16.9095 62.4677 16.4615C62.4677 16.0135 62.3797 15.6215 62.2037 15.2855C62.0277 14.9495 61.7877 14.6895 61.4837 14.5055C61.1797 14.3135 60.8277 14.2175 60.4277 14.2175C60.0277 14.2175 59.6757 14.3135 59.3717 14.5055C59.0677 14.6895 58.8277 14.9495 58.6517 15.2855C58.4757 15.6215 58.3877 16.0135 58.3877 16.4615C58.3877 16.9095 58.4757 17.3015 58.6517 17.6375C58.8277 17.9735 59.0677 18.2375 59.3717 18.4295C59.6757 18.6135 60.0277 18.7055 60.4277 18.7055ZM67.2909 19.5815C66.5789 19.5815 65.9869 19.4015 65.5149 19.0415C65.0429 18.6815 64.7669 18.1935 64.6869 17.5775H65.7189C65.7829 17.8895 65.9469 18.1615 66.2109 18.3935C66.4829 18.6175 66.8469 18.7295 67.3029 18.7295C67.7269 18.7295 68.0389 18.6415 68.2389 18.4655C68.4389 18.2815 68.5389 18.0655 68.5389 17.8175C68.5389 17.4575 68.4069 17.2175 68.1429 17.0975C67.8869 16.9775 67.5229 16.8695 67.0509 16.7735C66.7309 16.7095 66.4109 16.6175 66.0909 16.4975C65.7709 16.3775 65.5029 16.2095 65.2869 15.9935C65.0709 15.7695 64.9629 15.4775 64.9629 15.1175C64.9629 14.5975 65.1549 14.1735 65.5389 13.8455C65.9309 13.5095 66.4589 13.3415 67.1229 13.3415C67.7549 13.3415 68.2709 13.5015 68.6709 13.8215C69.0789 14.1335 69.3149 14.5815 69.3789 15.1655H68.3829C68.3429 14.8615 68.2109 14.6255 67.9869 14.4575C67.7709 14.2815 67.4789 14.1935 67.1109 14.1935C66.7509 14.1935 66.4709 14.2695 66.2709 14.4215C66.0789 14.5735 65.9829 14.7735 65.9829 15.0215C65.9829 15.2615 66.1069 15.4495 66.3549 15.5855C66.6109 15.7215 66.9549 15.8375 67.3869 15.9335C67.7549 16.0135 68.1029 16.1135 68.4309 16.2335C68.7669 16.3455 69.0389 16.5175 69.2469 16.7495C69.4629 16.9735 69.5709 17.3015 69.5709 17.7335C69.5789 18.2695 69.3749 18.7135 68.9589 19.0655C68.5509 19.4095 67.9949 19.5815 67.2909 19.5815Z" fill="white"></path><rect x="5.38525" y="29.6172" width="132" height="17.7769" rx="3" fill="#EAE7FF"></rect><path d="M14.0352 41.5059L11.7042 35.2059H12.7212L14.6112 40.5159L16.5102 35.2059H17.5182L15.1872 41.5059H14.0352ZM17.1482 42.7389V41.8389H22.0892V42.7389H17.1482ZM25.0373 41.6139C24.4673 41.6139 23.9753 41.4789 23.5613 41.2089C23.1533 40.9329 22.8383 40.5519 22.6163 40.0659C22.4003 39.5739 22.2923 39.0039 22.2923 38.3559C22.2923 37.7079 22.4003 37.1409 22.6163 36.6549C22.8383 36.1629 23.1533 35.7819 23.5613 35.5119C23.9753 35.2359 24.4673 35.0979 25.0373 35.0979C25.6073 35.0979 26.0963 35.2359 26.5043 35.5119C26.9123 35.7819 27.2243 36.1629 27.4403 36.6549C27.6623 37.1409 27.7733 37.7079 27.7733 38.3559C27.7733 39.0039 27.6623 39.5739 27.4403 40.0659C27.2243 40.5519 26.9123 40.9329 26.5043 41.2089C26.0963 41.4789 25.6073 41.6139 25.0373 41.6139ZM25.0373 40.7589C25.3793 40.7589 25.6823 40.6629 25.9463 40.4709C26.2163 40.2789 26.4263 40.0029 26.5763 39.6429C26.7263 39.2829 26.8013 38.8539 26.8013 38.3559C26.8013 37.8579 26.7263 37.4289 26.5763 37.0689C26.4263 36.7089 26.2163 36.4329 25.9463 36.2409C25.6823 36.0489 25.3793 35.9529 25.0373 35.9529C24.6893 35.9529 24.3833 36.0489 24.1193 36.2409C23.8553 36.4329 23.6483 36.7089 23.4983 37.0689C23.3483 37.4289 23.2733 37.8579 23.2733 38.3559C23.2733 38.8539 23.3483 39.2829 23.4983 39.6429C23.6483 40.0029 23.8553 40.2789 24.1193 40.4709C24.3833 40.6629 24.6893 40.7589 25.0373 40.7589ZM29.3046 41.5059V36.2859L28.2876 36.5199V35.8179L29.6826 35.2059H30.2946V41.5059H29.3046Z" fill="black"></path><mask id="path-7-outside-1_1055_60024" maskUnits="userSpaceOnUse" x="97.6274" y="34.0469" width="9" height="9" fill="black"><rect fill="white" x="97.6274" y="34.0469" width="9" height="9"></rect><path fill-rule="evenodd" clip-rule="evenodd" d="M98.7947 35.2699H98.9341C99.0264 35.2699 99.1013 35.3448 99.1013 35.4371V36.7559C99.7033 35.7305 100.819 35.0429 102.095 35.0469C103.996 35.0528 105.543 36.608 105.54 38.5089C105.537 40.4153 103.991 41.9598 102.084 41.9598C101.193 41.9598 100.381 41.6227 99.7678 41.0691C99.6966 41.0047 99.6932 40.894 99.7611 40.8261L99.8596 40.7276C99.9224 40.6648 100.023 40.6619 100.089 40.7213C100.617 41.1966 101.316 41.4859 102.084 41.4859C103.725 41.4859 105.066 40.1573 105.066 38.5033C105.066 36.8623 103.738 35.5207 102.084 35.5207C100.929 35.5207 99.9273 36.1769 99.4318 37.1375H100.802C100.894 37.1375 100.969 37.2124 100.969 37.3047V37.4441C100.969 37.5365 100.894 37.6113 100.802 37.6113H98.7947C98.7023 37.6113 98.6274 37.5365 98.6274 37.4441V35.4371C98.6274 35.3448 98.7023 35.2699 98.7947 35.2699ZM103.278 39.6633L103.343 39.5731C103.397 39.4984 103.381 39.3938 103.306 39.3395L102.307 38.6127V36.552C102.307 36.4597 102.232 36.3848 102.14 36.3848H102.028C101.936 36.3848 101.861 36.4597 101.861 36.552V38.8398L103.044 39.7002C103.119 39.7545 103.223 39.738 103.278 39.6633V39.6633Z"></path></mask><path fill-rule="evenodd" clip-rule="evenodd" d="M98.7947 35.2699H98.9341C99.0264 35.2699 99.1013 35.3448 99.1013 35.4371V36.7559C99.7033 35.7305 100.819 35.0429 102.095 35.0469C103.996 35.0528 105.543 36.608 105.54 38.5089C105.537 40.4153 103.991 41.9598 102.084 41.9598C101.193 41.9598 100.381 41.6227 99.7678 41.0691C99.6966 41.0047 99.6932 40.894 99.7611 40.8261L99.8596 40.7276C99.9224 40.6648 100.023 40.6619 100.089 40.7213C100.617 41.1966 101.316 41.4859 102.084 41.4859C103.725 41.4859 105.066 40.1573 105.066 38.5033C105.066 36.8623 103.738 35.5207 102.084 35.5207C100.929 35.5207 99.9273 36.1769 99.4318 37.1375H100.802C100.894 37.1375 100.969 37.2124 100.969 37.3047V37.4441C100.969 37.5365 100.894 37.6113 100.802 37.6113H98.7947C98.7023 37.6113 98.6274 37.5365 98.6274 37.4441V35.4371C98.6274 35.3448 98.7023 35.2699 98.7947 35.2699ZM103.278 39.6633L103.343 39.5731C103.397 39.4984 103.381 39.3938 103.306 39.3395L102.307 38.6127V36.552C102.307 36.4597 102.232 36.3848 102.14 36.3848H102.028C101.936 36.3848 101.861 36.4597 101.861 36.552V38.8398L103.044 39.7002C103.119 39.7545 103.223 39.738 103.278 39.6633V39.6633Z" fill="#212121"></path><path d="M99.1013 36.7559H98.9673V37.2491L99.2169 36.8238L99.1013 36.7559ZM102.095 35.0469L102.095 34.9128L102.095 34.9128L102.095 35.0469ZM105.54 38.5089L105.674 38.5091L105.674 38.5091L105.54 38.5089ZM99.7678 41.0691L99.8577 40.9696L99.8577 40.9696L99.7678 41.0691ZM99.7611 40.8261L99.6663 40.7313L99.6663 40.7313L99.7611 40.8261ZM99.8596 40.7276L99.9544 40.8224L99.9544 40.8224L99.8596 40.7276ZM100.089 40.7213L99.9997 40.8209L99.9997 40.8209L100.089 40.7213ZM99.4318 37.1375L99.3126 37.076L99.2118 37.2715H99.4318V37.1375ZM103.343 39.5731L103.452 39.652L103.452 39.652L103.343 39.5731ZM103.306 39.3395L103.227 39.4479L103.227 39.4479L103.306 39.3395ZM102.307 38.6127H102.173V38.681L102.228 38.7211L102.307 38.6127ZM101.861 38.8398H101.727V38.908L101.782 38.9482L101.861 38.8398ZM103.044 39.7002L103.123 39.5918L103.123 39.5918L103.044 39.7002ZM103.278 39.6633L103.169 39.5845L103.169 39.5845L103.278 39.6633ZM98.7947 35.4039H98.9341V35.1358H98.7947V35.4039ZM98.9341 35.4039C98.9524 35.4039 98.9673 35.4188 98.9673 35.4371H99.2354C99.2354 35.2707 99.1005 35.1358 98.9341 35.1358V35.4039ZM98.9673 35.4371V36.7559H99.2354V35.4371H98.9673ZM99.2169 36.8238C99.7958 35.8377 100.868 35.1771 102.095 35.1809L102.095 34.9128C100.77 34.9087 99.6109 35.6232 98.9857 36.6881L99.2169 36.8238ZM102.095 35.1809C103.921 35.1867 105.409 36.6817 105.406 38.5086L105.674 38.5091C105.677 36.5343 104.07 34.919 102.095 34.9128L102.095 35.1809ZM105.406 38.5086C105.403 40.3411 103.917 41.8257 102.084 41.8257V42.0938C104.065 42.0938 105.671 40.4894 105.674 38.5091L105.406 38.5086ZM102.084 41.8257C101.227 41.8257 100.447 41.5018 99.8577 40.9696L99.678 41.1686C100.315 41.7435 101.158 42.0938 102.084 42.0938V41.8257ZM99.8577 40.9696C99.8427 40.9561 99.8428 40.934 99.8559 40.9209L99.6663 40.7313C99.5436 40.854 99.5504 41.0533 99.678 41.1686L99.8577 40.9696ZM99.8559 40.9209L99.9544 40.8224L99.7648 40.6328L99.6663 40.7313L99.8559 40.9209ZM99.9544 40.8224C99.9671 40.8097 99.987 40.8095 99.9997 40.8209L100.179 40.6216C100.06 40.5143 99.8777 40.5199 99.7648 40.6328L99.9544 40.8224ZM99.9997 40.8209C100.551 41.3175 101.282 41.62 102.084 41.62V41.3519C101.351 41.3519 100.683 41.0756 100.179 40.6216L99.9997 40.8209ZM102.084 41.62C103.799 41.62 105.201 40.2317 105.201 38.5033H104.932C104.932 40.0828 103.651 41.3519 102.084 41.3519V41.62ZM105.201 38.5033C105.201 36.7886 103.812 35.3867 102.084 35.3867V35.6548C103.663 35.6548 104.932 36.936 104.932 38.5033H105.201ZM102.084 35.3867C100.877 35.3867 99.8303 36.0726 99.3126 37.076L99.5509 37.1989C100.024 36.2812 100.981 35.6548 102.084 35.6548V35.3867ZM99.4318 37.2715H100.802V37.0034H99.4318V37.2715ZM100.802 37.2715C100.82 37.2715 100.835 37.2864 100.835 37.3047H101.103C101.103 37.1383 100.968 37.0034 100.802 37.0034V37.2715ZM100.835 37.3047V37.4441H101.103V37.3047H100.835ZM100.835 37.4441C100.835 37.4624 100.82 37.4773 100.802 37.4773V37.7454C100.968 37.7454 101.103 37.6105 101.103 37.4441H100.835ZM100.802 37.4773H98.7947V37.7454H100.802V37.4773ZM98.7947 37.4773C98.7764 37.4773 98.7615 37.4624 98.7615 37.4441H98.4934C98.4934 37.6105 98.6283 37.7454 98.7947 37.7454V37.4773ZM98.7615 37.4441V35.4371H98.4934V37.4441H98.7615ZM98.7615 35.4371C98.7615 35.4188 98.7764 35.4039 98.7947 35.4039V35.1358C98.6283 35.1358 98.4934 35.2707 98.4934 35.4371H98.7615ZM103.386 39.7422L103.452 39.652L103.235 39.4943L103.169 39.5845L103.386 39.7422ZM103.452 39.652C103.549 39.5174 103.52 39.329 103.385 39.2311L103.227 39.4479C103.242 39.4587 103.245 39.4795 103.235 39.4943L103.452 39.652ZM103.385 39.2311L102.386 38.5043L102.228 38.7211L103.227 39.4479L103.385 39.2311ZM102.441 38.6127V36.552H102.173V38.6127H102.441ZM102.441 36.552C102.441 36.3856 102.306 36.2507 102.14 36.2507V36.5188C102.158 36.5188 102.173 36.5337 102.173 36.552H102.441ZM102.14 36.2507H102.028V36.5188H102.14V36.2507ZM102.028 36.2507C101.862 36.2507 101.727 36.3856 101.727 36.552H101.995C101.995 36.5337 102.01 36.5188 102.028 36.5188V36.2507ZM101.727 36.552V38.8398H101.995V36.552H101.727ZM101.782 38.9482L102.965 39.8086L103.123 39.5918L101.94 38.7314L101.782 38.9482ZM102.965 39.8086C103.1 39.9065 103.288 39.8767 103.386 39.7422L103.169 39.5845C103.158 39.5993 103.138 39.6026 103.123 39.5918L102.965 39.8086Z" fill="#212121" mask="url(#path-7-outside-1_1055_60024)"></path><path d="M111.494 34.0391H114.167V34.6405H111.494C111.353 34.6405 111.217 34.7038 111.116 34.8166C111.016 34.9294 110.96 35.0824 110.96 35.2419V41.2558C110.96 41.4153 111.016 41.5683 111.116 41.6811C111.217 41.7938 111.353 41.8572 111.494 41.8572H115.771C115.913 41.8572 116.049 41.7938 116.149 41.6811C116.249 41.5683 116.306 41.4153 116.306 41.2558V37.046H116.84V41.2558C116.84 41.5748 116.728 41.8807 116.527 42.1063C116.327 42.3319 116.055 42.4586 115.771 42.4586H111.494C111.211 42.4586 110.939 42.3319 110.738 42.1063C110.538 41.8807 110.425 41.5748 110.425 41.2558V35.2419C110.425 34.9229 110.538 34.6169 110.738 34.3914C110.939 34.1658 111.211 34.0391 111.494 34.0391V34.0391Z" fill="#212121"></path><path d="M114.167 36.1439V34.0391L116.84 37.046H114.969C114.756 37.046 114.552 36.951 114.402 36.7818C114.251 36.6126 114.167 36.3832 114.167 36.1439Z" fill="#212121"></path><path fill-rule="evenodd" clip-rule="evenodd" d="M112.374 38.938C112.399 38.9099 112.429 38.8877 112.461 38.8726C112.494 38.8574 112.529 38.8496 112.564 38.8496C112.599 38.8496 112.634 38.8574 112.666 38.8726C112.699 38.8877 112.728 38.9099 112.753 38.938L113.633 39.9284L114.513 38.938C114.563 38.8815 114.631 38.8498 114.702 38.8498C114.773 38.8498 114.841 38.8815 114.891 38.938C114.941 38.9944 114.97 39.071 114.97 39.1508C114.97 39.2307 114.941 39.3073 114.891 39.3637L113.822 40.5665C113.797 40.5945 113.768 40.6168 113.735 40.6319C113.703 40.6471 113.668 40.6549 113.633 40.6549C113.598 40.6549 113.563 40.6471 113.53 40.6319C113.498 40.6168 113.468 40.5945 113.444 40.5665L112.374 39.3637C112.35 39.3358 112.33 39.3026 112.316 39.2661C112.303 39.2296 112.296 39.1904 112.296 39.1508C112.296 39.1113 112.303 39.0721 112.316 39.0356C112.33 38.9991 112.35 38.9659 112.374 38.938V38.938Z" fill="#212121"></path><path fill-rule="evenodd" clip-rule="evenodd" d="M113.633 37.0469C113.703 37.0469 113.771 37.0786 113.822 37.1349C113.872 37.1913 113.9 37.2678 113.9 37.3476V39.7532C113.9 39.8329 113.872 39.9094 113.822 39.9658C113.771 40.0222 113.703 40.0539 113.633 40.0539C113.562 40.0539 113.494 40.0222 113.444 39.9658C113.393 39.9094 113.365 39.8329 113.365 39.7532V37.3476C113.365 37.2678 113.393 37.1913 113.444 37.1349C113.494 37.0786 113.562 37.0469 113.633 37.0469V37.0469Z" fill="#212121"></path><g clip-path="url(#clip0_1055_60024)"><path d="M122.703 35.8541V35.9239V41.967C122.703 42.2033 122.789 42.4043 122.964 42.5737C123.139 42.7429 123.347 42.8269 123.592 42.8269H128.386C128.632 42.8269 128.84 42.7429 129.015 42.5738L122.703 35.8541ZM122.703 35.8541H122.634M122.703 35.8541H122.634M122.634 35.8541C122.515 35.8541 122.419 35.8159 122.34 35.7404M122.634 35.8541L122.34 35.7404M122.34 35.7404C122.263 35.6647 122.224 35.5725 122.224 35.459C122.224 35.3455 122.263 35.2533 122.34 35.1776C122.419 35.1021 122.515 35.0639 122.634 35.0639H124.551H124.621V34.9942C124.621 34.8807 124.66 34.7885 124.738 34.7128C124.816 34.6373 124.912 34.599 125.031 34.599H126.948C127.067 34.599 127.163 34.6373 127.241 34.7128C127.319 34.7885 127.358 34.8807 127.358 34.9942V35.0639H127.427H129.345C129.464 35.0639 129.56 35.1021 129.638 35.1776C129.716 35.2533 129.755 35.3456 129.755 35.459C129.755 35.5724 129.716 35.6647 129.638 35.7404C129.56 35.8159 129.464 35.8541 129.345 35.8541H129.275V35.9239V41.967C129.275 42.2033 129.189 42.4043 129.015 42.5737L122.34 35.7404ZM123.592 35.8541H123.523V35.9239V41.967V42.0367H123.592H128.386H128.456V41.967V35.9239V35.8541H128.386H123.592ZM124.738 40.8534L124.738 40.8532C124.66 40.7779 124.621 40.6858 124.621 40.5724V37.3184C124.621 37.205 124.66 37.1128 124.738 37.037C124.816 36.9616 124.912 36.9233 125.031 36.9233C125.15 36.9233 125.246 36.9615 125.324 37.037C125.402 37.1127 125.44 37.205 125.44 37.3184V40.5724C125.44 40.6859 125.402 40.778 125.324 40.8533C125.246 40.9292 125.149 40.9675 125.031 40.9675C124.912 40.9675 124.816 40.9292 124.738 40.8534ZM126.655 40.8534L126.655 40.8532C126.577 40.7779 126.538 40.6858 126.538 40.5724V37.3184C126.538 37.205 126.577 37.1128 126.655 37.037C126.733 36.9616 126.829 36.9233 126.948 36.9233C127.067 36.9233 127.163 36.9615 127.241 37.037C127.319 37.1127 127.358 37.205 127.358 37.3184V40.5724C127.358 40.6859 127.319 40.778 127.241 40.8533C127.163 40.9292 127.067 40.9675 126.948 40.9675C126.829 40.9675 126.733 40.9292 126.655 40.8534Z" fill="#212121" stroke="#F6F6F6" stroke-width="0.139456"></path></g><rect x="5.38525" y="53.541" width="132" height="17.7769" rx="3" fill="#EAE7FF"></rect><path d="M14.0352 65.4297L11.7042 59.1297H12.7212L14.6112 64.4397L16.5102 59.1297H17.5182L15.1872 65.4297H14.0352ZM17.1482 66.6627V65.7627H22.0892V66.6627H17.1482ZM25.0373 65.5377C24.4673 65.5377 23.9753 65.4027 23.5613 65.1327C23.1533 64.8567 22.8383 64.4757 22.6163 63.9897C22.4003 63.4977 22.2923 62.9277 22.2923 62.2797C22.2923 61.6317 22.4003 61.0647 22.6163 60.5787C22.8383 60.0867 23.1533 59.7057 23.5613 59.4357C23.9753 59.1597 24.4673 59.0217 25.0373 59.0217C25.6073 59.0217 26.0963 59.1597 26.5043 59.4357C26.9123 59.7057 27.2243 60.0867 27.4403 60.5787C27.6623 61.0647 27.7733 61.6317 27.7733 62.2797C27.7733 62.9277 27.6623 63.4977 27.4403 63.9897C27.2243 64.4757 26.9123 64.8567 26.5043 65.1327C26.0963 65.4027 25.6073 65.5377 25.0373 65.5377ZM25.0373 64.6827C25.3793 64.6827 25.6823 64.5867 25.9463 64.3947C26.2163 64.2027 26.4263 63.9267 26.5763 63.5667C26.7263 63.2067 26.8013 62.7777 26.8013 62.2797C26.8013 61.7817 26.7263 61.3527 26.5763 60.9927C26.4263 60.6327 26.2163 60.3567 25.9463 60.1647C25.6823 59.9727 25.3793 59.8767 25.0373 59.8767C24.6893 59.8767 24.3833 59.9727 24.1193 60.1647C23.8553 60.3567 23.6483 60.6327 23.4983 60.9927C23.3483 61.3527 23.2733 61.7817 23.2733 62.2797C23.2733 62.7777 23.3483 63.2067 23.4983 63.5667C23.6483 63.9267 23.8553 64.2027 24.1193 64.3947C24.3833 64.5867 24.6893 64.6827 25.0373 64.6827ZM28.4603 65.4297V64.7457C28.8683 64.4217 29.2583 64.0947 29.6303 63.7647C30.0023 63.4347 30.3323 63.1107 30.6203 62.7927C30.9143 62.4687 31.1453 62.1537 31.3133 61.8477C31.4813 61.5357 31.5653 61.2357 31.5653 60.9477C31.5653 60.7557 31.5323 60.5757 31.4663 60.4077C31.4003 60.2337 31.2923 60.0957 31.1423 59.9937C30.9923 59.8857 30.7913 59.8317 30.5393 59.8317C30.1613 59.8317 29.8763 59.9517 29.6843 60.1917C29.4983 60.4317 29.4083 60.7197 29.4143 61.0557H28.4873C28.4933 60.6117 28.5863 60.2397 28.7663 59.9397C28.9523 59.6397 29.1983 59.4117 29.5043 59.2557C29.8163 59.0997 30.1673 59.0217 30.5573 59.0217C31.1513 59.0217 31.6253 59.1897 31.9793 59.5257C32.3393 59.8557 32.5193 60.3177 32.5193 60.9117C32.5193 61.2657 32.4323 61.6167 32.2583 61.9647C32.0903 62.3127 31.8683 62.6487 31.5923 62.9727C31.3223 63.2907 31.0313 63.5907 30.7193 63.8727C30.4073 64.1547 30.1103 64.4097 29.8283 64.6377H32.7083V65.4297H28.4603Z" fill="black"></path><mask id="path-19-outside-2_1055_60024" maskUnits="userSpaceOnUse" x="97.6274" y="57.9707" width="9" height="9" fill="black"><rect fill="white" x="97.6274" y="57.9707" width="9" height="9"></rect><path fill-rule="evenodd" clip-rule="evenodd" d="M98.7947 59.1937H98.9341C99.0264 59.1937 99.1013 59.2686 99.1013 59.361V60.6798C99.7033 59.6543 100.819 58.9667 102.095 58.9707C103.996 58.9767 105.543 60.5318 105.54 62.4327C105.537 64.3391 103.991 65.8836 102.084 65.8836C101.193 65.8836 100.381 65.5465 99.7678 64.9929C99.6966 64.9285 99.6932 64.8178 99.7611 64.7499L99.8596 64.6514C99.9224 64.5887 100.023 64.5857 100.089 64.6451C100.617 65.1204 101.316 65.4097 102.084 65.4097C103.725 65.4097 105.066 64.0811 105.066 62.4272C105.066 60.7861 103.738 59.4446 102.084 59.4446C100.929 59.4446 99.9273 60.1007 99.4318 61.0613H100.802C100.894 61.0613 100.969 61.1362 100.969 61.2286V61.3679C100.969 61.4603 100.894 61.5352 100.802 61.5352H98.7947C98.7023 61.5352 98.6274 61.4603 98.6274 61.3679V59.361C98.6274 59.2686 98.7023 59.1937 98.7947 59.1937ZM103.278 63.5871L103.343 63.497C103.397 63.4223 103.381 63.3177 103.306 63.2633L102.307 62.5365V60.4758C102.307 60.3835 102.232 60.3086 102.14 60.3086H102.028C101.936 60.3086 101.861 60.3835 101.861 60.4758V62.7636L103.044 63.624C103.119 63.6784 103.223 63.6618 103.278 63.5871V63.5871Z"></path></mask><path fill-rule="evenodd" clip-rule="evenodd" d="M98.7947 59.1937H98.9341C99.0264 59.1937 99.1013 59.2686 99.1013 59.361V60.6798C99.7033 59.6543 100.819 58.9667 102.095 58.9707C103.996 58.9767 105.543 60.5318 105.54 62.4327C105.537 64.3391 103.991 65.8836 102.084 65.8836C101.193 65.8836 100.381 65.5465 99.7678 64.9929C99.6966 64.9285 99.6932 64.8178 99.7611 64.7499L99.8596 64.6514C99.9224 64.5887 100.023 64.5857 100.089 64.6451C100.617 65.1204 101.316 65.4097 102.084 65.4097C103.725 65.4097 105.066 64.0811 105.066 62.4272C105.066 60.7861 103.738 59.4446 102.084 59.4446C100.929 59.4446 99.9273 60.1007 99.4318 61.0613H100.802C100.894 61.0613 100.969 61.1362 100.969 61.2286V61.3679C100.969 61.4603 100.894 61.5352 100.802 61.5352H98.7947C98.7023 61.5352 98.6274 61.4603 98.6274 61.3679V59.361C98.6274 59.2686 98.7023 59.1937 98.7947 59.1937ZM103.278 63.5871L103.343 63.497C103.397 63.4223 103.381 63.3177 103.306 63.2633L102.307 62.5365V60.4758C102.307 60.3835 102.232 60.3086 102.14 60.3086H102.028C101.936 60.3086 101.861 60.3835 101.861 60.4758V62.7636L103.044 63.624C103.119 63.6784 103.223 63.6618 103.278 63.5871V63.5871Z" fill="#212121"></path><path d="M99.1013 60.6798H98.9673V61.1729L99.2169 60.7476L99.1013 60.6798ZM102.095 58.9707L102.095 58.8367L102.095 58.8367L102.095 58.9707ZM105.54 62.4327L105.674 62.4329L105.674 62.4329L105.54 62.4327ZM99.7678 64.9929L99.8577 64.8934L99.8577 64.8934L99.7678 64.9929ZM99.7611 64.7499L99.6663 64.6552L99.6663 64.6552L99.7611 64.7499ZM99.8596 64.6514L99.9544 64.7462L99.9544 64.7462L99.8596 64.6514ZM100.089 64.6451L99.9997 64.7447L99.9997 64.7447L100.089 64.6451ZM99.4318 61.0613L99.3126 60.9999L99.2118 61.1954H99.4318V61.0613ZM103.343 63.497L103.452 63.5758L103.452 63.5758L103.343 63.497ZM103.306 63.2633L103.227 63.3717L103.227 63.3717L103.306 63.2633ZM102.307 62.5365H102.173V62.6048L102.228 62.6449L102.307 62.5365ZM101.861 62.7636H101.727V62.8319L101.782 62.872L101.861 62.7636ZM103.044 63.624L103.123 63.5156L103.123 63.5156L103.044 63.624ZM103.278 63.5871L103.169 63.5083L103.169 63.5083L103.278 63.5871ZM98.7947 59.3278H98.9341V59.0597H98.7947V59.3278ZM98.9341 59.3278C98.9524 59.3278 98.9673 59.3426 98.9673 59.361H99.2354C99.2354 59.1946 99.1005 59.0597 98.9341 59.0597V59.3278ZM98.9673 59.361V60.6798H99.2354V59.361H98.9673ZM99.2169 60.7476C99.7958 59.7616 100.868 59.1009 102.095 59.1048L102.095 58.8367C100.77 58.8325 99.6109 59.547 98.9857 60.6119L99.2169 60.7476ZM102.095 59.1048C103.921 59.1105 105.409 60.6055 105.406 62.4325L105.674 62.4329C105.677 60.4581 104.07 58.8429 102.095 58.8367L102.095 59.1048ZM105.406 62.4325C105.403 64.2649 103.917 65.7496 102.084 65.7496V66.0177C104.065 66.0177 105.671 64.4132 105.674 62.4329L105.406 62.4325ZM102.084 65.7496C101.227 65.7496 100.447 65.4257 99.8577 64.8934L99.678 65.0924C100.315 65.6674 101.158 66.0177 102.084 66.0177V65.7496ZM99.8577 64.8934C99.8427 64.8799 99.8428 64.8578 99.8559 64.8447L99.6663 64.6552C99.5436 64.7779 99.5504 64.9771 99.678 65.0924L99.8577 64.8934ZM99.8559 64.8447L99.9544 64.7462L99.7648 64.5566L99.6663 64.6552L99.8559 64.8447ZM99.9544 64.7462C99.9671 64.7336 99.987 64.7333 99.9997 64.7447L100.179 64.5455C100.06 64.4381 99.8777 64.4438 99.7648 64.5566L99.9544 64.7462ZM99.9997 64.7447C100.551 65.2413 101.282 65.5438 102.084 65.5438V65.2757C101.351 65.2757 100.683 64.9994 100.179 64.5455L99.9997 64.7447ZM102.084 65.5438C103.799 65.5438 105.201 64.1555 105.201 62.4272H104.932C104.932 64.0067 103.651 65.2757 102.084 65.2757V65.5438ZM105.201 62.4272C105.201 60.7125 103.812 59.3105 102.084 59.3105V59.5786C103.663 59.5786 104.932 60.8598 104.932 62.4272H105.201ZM102.084 59.3105C100.877 59.3105 99.8303 59.9964 99.3126 60.9999L99.5509 61.1228C100.024 60.205 100.981 59.5786 102.084 59.5786V59.3105ZM99.4318 61.1954H100.802V60.9273H99.4318V61.1954ZM100.802 61.1954C100.82 61.1954 100.835 61.2102 100.835 61.2286H101.103C101.103 61.0622 100.968 60.9273 100.802 60.9273V61.1954ZM100.835 61.2286V61.3679H101.103V61.2286H100.835ZM100.835 61.3679C100.835 61.3863 100.82 61.4011 100.802 61.4011V61.6692C100.968 61.6692 101.103 61.5343 101.103 61.3679H100.835ZM100.802 61.4011H98.7947V61.6692H100.802V61.4011ZM98.7947 61.4011C98.7764 61.4011 98.7615 61.3863 98.7615 61.3679H98.4934C98.4934 61.5343 98.6283 61.6692 98.7947 61.6692V61.4011ZM98.7615 61.3679V59.361H98.4934V61.3679H98.7615ZM98.7615 59.361C98.7615 59.3426 98.7764 59.3278 98.7947 59.3278V59.0597C98.6283 59.0597 98.4934 59.1946 98.4934 59.361H98.7615ZM103.386 63.666L103.452 63.5758L103.235 63.4181L103.169 63.5083L103.386 63.666ZM103.452 63.5758C103.549 63.4412 103.52 63.2528 103.385 63.1549L103.227 63.3717C103.242 63.3825 103.245 63.4033 103.235 63.4181L103.452 63.5758ZM103.385 63.1549L102.386 62.4281L102.228 62.6449L103.227 63.3717L103.385 63.1549ZM102.441 62.5365V60.4758H102.173V62.5365H102.441ZM102.441 60.4758C102.441 60.3094 102.306 60.1745 102.14 60.1745V60.4426C102.158 60.4426 102.173 60.4575 102.173 60.4758H102.441ZM102.14 60.1745H102.028V60.4426H102.14V60.1745ZM102.028 60.1745C101.862 60.1745 101.727 60.3094 101.727 60.4758H101.995C101.995 60.4575 102.01 60.4426 102.028 60.4426V60.1745ZM101.727 60.4758V62.7636H101.995V60.4758H101.727ZM101.782 62.872L102.965 63.7324L103.123 63.5156L101.94 62.6552L101.782 62.872ZM102.965 63.7324C103.1 63.8303 103.288 63.8006 103.386 63.666L103.169 63.5083C103.158 63.5231 103.138 63.5264 103.123 63.5156L102.965 63.7324Z" fill="#212121" mask="url(#path-19-outside-2_1055_60024)"></path><g clip-path="url(#clip1_1055_60024)"><path d="M111.494 57.9629H114.167V58.5643H111.494C111.353 58.5643 111.217 58.6276 111.116 58.7404C111.016 58.8532 110.96 59.0062 110.96 59.1657V65.1796C110.96 65.3391 111.016 65.4921 111.116 65.6049C111.217 65.7177 111.353 65.781 111.494 65.781H115.771C115.913 65.781 116.049 65.7177 116.149 65.6049C116.249 65.4921 116.306 65.3391 116.306 65.1796V60.9699H116.84V65.1796C116.84 65.4986 116.728 65.8046 116.527 66.0301C116.327 66.2557 116.055 66.3824 115.771 66.3824H111.494C111.211 66.3824 110.939 66.2557 110.738 66.0301C110.538 65.8046 110.425 65.4986 110.425 65.1796V59.1657C110.425 58.8467 110.538 58.5407 110.738 58.3152C110.939 58.0896 111.211 57.9629 111.494 57.9629V57.9629Z" fill="#212121"></path><path d="M114.167 60.0678V57.9629L116.84 60.9699H114.969C114.756 60.9699 114.552 60.8748 114.402 60.7057C114.251 60.5365 114.167 60.307 114.167 60.0678Z" fill="#212121"></path><path fill-rule="evenodd" clip-rule="evenodd" d="M112.374 62.8618C112.399 62.8338 112.429 62.8116 112.461 62.7964C112.494 62.7812 112.529 62.7734 112.564 62.7734C112.599 62.7734 112.634 62.7812 112.666 62.7964C112.699 62.8116 112.728 62.8338 112.753 62.8618L113.633 63.8523L114.513 62.8618C114.563 62.8053 114.631 62.7736 114.702 62.7736C114.773 62.7736 114.841 62.8053 114.891 62.8618C114.941 62.9182 114.97 62.9948 114.97 63.0747C114.97 63.1545 114.941 63.2311 114.891 63.2876L113.822 64.4904C113.797 64.5184 113.768 64.5406 113.735 64.5557C113.703 64.5709 113.668 64.5787 113.633 64.5787C113.598 64.5787 113.563 64.5709 113.53 64.5557C113.498 64.5406 113.468 64.5184 113.444 64.4904L112.374 63.2876C112.35 63.2596 112.33 63.2265 112.316 63.1899C112.303 63.1534 112.296 63.1142 112.296 63.0747C112.296 63.0351 112.303 62.996 112.316 62.9594C112.33 62.9229 112.35 62.8897 112.374 62.8618V62.8618Z" fill="#212121"></path><path fill-rule="evenodd" clip-rule="evenodd" d="M113.633 60.9707C113.703 60.9707 113.771 61.0024 113.822 61.0588C113.872 61.1152 113.9 61.1917 113.9 61.2714V63.677C113.9 63.7567 113.872 63.8332 113.822 63.8896C113.771 63.946 113.703 63.9777 113.633 63.9777C113.562 63.9777 113.494 63.946 113.444 63.8896C113.393 63.8332 113.365 63.7567 113.365 63.677V61.2714C113.365 61.1917 113.393 61.1152 113.444 61.0588C113.494 61.0024 113.562 60.9707 113.633 60.9707V60.9707Z" fill="#212121"></path></g><g clip-path="url(#clip2_1055_60024)"><path d="M122.703 59.778V59.8477V65.8908C122.703 66.1271 122.789 66.3281 122.964 66.4976C123.139 66.6667 123.347 66.7508 123.592 66.7508H128.386C128.632 66.7508 128.84 66.6668 129.015 66.4976L122.703 59.778ZM122.703 59.778H122.634M122.703 59.778H122.634M122.634 59.778C122.515 59.778 122.419 59.7397 122.34 59.6642M122.634 59.778L122.34 59.6642M122.34 59.6642C122.263 59.5885 122.224 59.4963 122.224 59.3828C122.224 59.2694 122.263 59.1771 122.34 59.1014C122.419 59.026 122.515 58.9877 122.634 58.9877H124.551H124.621V58.918C124.621 58.8046 124.66 58.7123 124.738 58.6366C124.816 58.5611 124.912 58.5229 125.031 58.5229H126.948C127.067 58.5229 127.163 58.5611 127.241 58.6366C127.319 58.7123 127.358 58.8045 127.358 58.918V58.9877H127.427H129.345C129.464 58.9877 129.56 59.026 129.638 59.1015C129.716 59.1772 129.755 59.2694 129.755 59.3828C129.755 59.4963 129.716 59.5885 129.638 59.6642C129.56 59.7397 129.464 59.778 129.345 59.778H129.275V59.8477V65.8908C129.275 66.1271 129.189 66.3281 129.015 66.4975L122.34 59.6642ZM123.592 59.778H123.523V59.8477V65.8908V65.9605H123.592H128.386H128.456V65.8908V59.8477V59.778H128.386H123.592ZM124.738 64.7772L124.738 64.7771C124.66 64.7017 124.621 64.6097 124.621 64.4962V61.2423C124.621 61.1288 124.66 61.0366 124.738 60.9609C124.816 60.8854 124.912 60.8471 125.031 60.8471C125.15 60.8471 125.246 60.8854 125.324 60.9609C125.402 61.0366 125.44 61.1288 125.44 61.2423V64.4962C125.44 64.6097 125.402 64.7018 125.324 64.7772C125.246 64.853 125.149 64.8914 125.031 64.8914C124.912 64.8914 124.816 64.853 124.738 64.7772ZM126.655 64.7772L126.655 64.7771C126.577 64.7017 126.538 64.6097 126.538 64.4962V61.2423C126.538 61.1288 126.577 61.0366 126.655 60.9609C126.733 60.8854 126.829 60.8471 126.948 60.8471C127.067 60.8471 127.163 60.8854 127.241 60.9609C127.319 61.0366 127.358 61.1288 127.358 61.2423V64.4962C127.358 64.6097 127.319 64.7018 127.241 64.7772C127.163 64.853 127.067 64.8914 126.948 64.8914C126.829 64.8914 126.733 64.853 126.655 64.7772Z" fill="#212121" stroke="#F6F6F6" stroke-width="0.139456"></path></g><rect x="5.38525" y="77.4668" width="132" height="17.7769" rx="3" fill="#EAE7FF"></rect><path d="M14.0352 89.3555L11.7042 83.0555H12.7212L14.6112 88.3655L16.5102 83.0555H17.5182L15.1872 89.3555H14.0352ZM17.1482 90.5885V89.6885H22.0892V90.5885H17.1482ZM25.0373 89.4635C24.4673 89.4635 23.9753 89.3285 23.5613 89.0585C23.1533 88.7825 22.8383 88.4015 22.6163 87.9155C22.4003 87.4235 22.2923 86.8535 22.2923 86.2055C22.2923 85.5575 22.4003 84.9905 22.6163 84.5045C22.8383 84.0125 23.1533 83.6315 23.5613 83.3615C23.9753 83.0855 24.4673 82.9475 25.0373 82.9475C25.6073 82.9475 26.0963 83.0855 26.5043 83.3615C26.9123 83.6315 27.2243 84.0125 27.4403 84.5045C27.6623 84.9905 27.7733 85.5575 27.7733 86.2055C27.7733 86.8535 27.6623 87.4235 27.4403 87.9155C27.2243 88.4015 26.9123 88.7825 26.5043 89.0585C26.0963 89.3285 25.6073 89.4635 25.0373 89.4635ZM25.0373 88.6085C25.3793 88.6085 25.6823 88.5125 25.9463 88.3205C26.2163 88.1285 26.4263 87.8525 26.5763 87.4925C26.7263 87.1325 26.8013 86.7035 26.8013 86.2055C26.8013 85.7075 26.7263 85.2785 26.5763 84.9185C26.4263 84.5585 26.2163 84.2825 25.9463 84.0905C25.6823 83.8985 25.3793 83.8025 25.0373 83.8025C24.6893 83.8025 24.3833 83.8985 24.1193 84.0905C23.8553 84.2825 23.6483 84.5585 23.4983 84.9185C23.3483 85.2785 23.2733 85.7075 23.2733 86.2055C23.2733 86.7035 23.3483 87.1325 23.4983 87.4925C23.6483 87.8525 23.8553 88.1285 24.1193 88.3205C24.3833 88.5125 24.6893 88.6085 25.0373 88.6085ZM30.6726 89.4635C30.2646 89.4635 29.8926 89.3915 29.5566 89.2475C29.2266 89.0975 28.9626 88.8725 28.7646 88.5725C28.5666 88.2725 28.4616 87.8975 28.4496 87.4475H29.3946C29.4066 87.7835 29.5206 88.0685 29.7366 88.3025C29.9586 88.5305 30.2706 88.6445 30.6726 88.6445C31.0566 88.6445 31.3506 88.5395 31.5546 88.3295C31.7586 88.1135 31.8606 87.8465 31.8606 87.5285C31.8606 87.1445 31.7226 86.8595 31.4466 86.6735C31.1766 86.4875 30.8436 86.3945 30.4476 86.3945H29.9796V85.6025H30.4566C30.8106 85.6025 31.0956 85.5185 31.3116 85.3505C31.5336 85.1825 31.6446 84.9455 31.6446 84.6395C31.6446 84.3815 31.5576 84.1715 31.3836 84.0095C31.2156 83.8475 30.9756 83.7665 30.6636 83.7665C30.3396 83.7665 30.0846 83.8625 29.8986 84.0545C29.7126 84.2405 29.6106 84.4745 29.5926 84.7565H28.6476C28.6596 84.3905 28.7496 84.0725 28.9176 83.8025C29.0916 83.5325 29.3286 83.3225 29.6286 83.1725C29.9286 83.0225 30.2736 82.9475 30.6636 82.9475C31.0836 82.9475 31.4346 83.0225 31.7166 83.1725C32.0046 83.3165 32.2206 83.5145 32.3646 83.7665C32.5146 84.0125 32.5896 84.2825 32.5896 84.5765C32.5896 84.9125 32.4966 85.2065 32.3106 85.4585C32.1246 85.7105 31.8756 85.8785 31.5636 85.9625C31.9236 86.0405 32.2206 86.2175 32.4546 86.4935C32.6886 86.7635 32.8056 87.1145 32.8056 87.5465C32.8056 87.8945 32.7246 88.2155 32.5626 88.5095C32.4006 88.7975 32.1606 89.0285 31.8426 89.2025C31.5246 89.3765 31.1346 89.4635 30.6726 89.4635Z" fill="black"></path><mask id="path-31-outside-3_1055_60024" maskUnits="userSpaceOnUse" x="97.6274" y="81.8965" width="9" height="9" fill="black"><rect fill="white" x="97.6274" y="81.8965" width="9" height="9"></rect><path fill-rule="evenodd" clip-rule="evenodd" d="M98.7947 83.1195H98.9341C99.0264 83.1195 99.1013 83.1944 99.1013 83.2867V84.6056C99.7033 83.5801 100.819 82.8925 102.095 82.8965C103.996 82.9025 105.543 84.4576 105.54 86.3585C105.537 88.2649 103.991 89.8094 102.084 89.8094C101.193 89.8094 100.381 89.4723 99.7678 88.9187C99.6966 88.8543 99.6932 88.7436 99.7611 88.6757L99.8596 88.5772C99.9224 88.5144 100.023 88.5115 100.089 88.5709C100.617 89.0462 101.316 89.3355 102.084 89.3355C103.725 89.3355 105.066 88.0069 105.066 86.3529C105.066 84.7119 103.738 83.3704 102.084 83.3704C100.929 83.3704 99.9273 84.0265 99.4318 84.9871H100.802C100.894 84.9871 100.969 85.062 100.969 85.1543V85.2937C100.969 85.3861 100.894 85.461 100.802 85.461H98.7947C98.7023 85.461 98.6274 85.3861 98.6274 85.2937V83.2867C98.6274 83.1944 98.7023 83.1195 98.7947 83.1195ZM103.278 87.5129L103.343 87.4227C103.397 87.348 103.381 87.2434 103.306 87.1891L102.307 86.4623V84.4016C102.307 84.3093 102.232 84.2344 102.14 84.2344H102.028C101.936 84.2344 101.861 84.3093 101.861 84.4016V86.6894L103.044 87.5498C103.119 87.6041 103.223 87.5876 103.278 87.5129V87.5129Z"></path></mask><path fill-rule="evenodd" clip-rule="evenodd" d="M98.7947 83.1195H98.9341C99.0264 83.1195 99.1013 83.1944 99.1013 83.2867V84.6056C99.7033 83.5801 100.819 82.8925 102.095 82.8965C103.996 82.9025 105.543 84.4576 105.54 86.3585C105.537 88.2649 103.991 89.8094 102.084 89.8094C101.193 89.8094 100.381 89.4723 99.7678 88.9187C99.6966 88.8543 99.6932 88.7436 99.7611 88.6757L99.8596 88.5772C99.9224 88.5144 100.023 88.5115 100.089 88.5709C100.617 89.0462 101.316 89.3355 102.084 89.3355C103.725 89.3355 105.066 88.0069 105.066 86.3529C105.066 84.7119 103.738 83.3704 102.084 83.3704C100.929 83.3704 99.9273 84.0265 99.4318 84.9871H100.802C100.894 84.9871 100.969 85.062 100.969 85.1543V85.2937C100.969 85.3861 100.894 85.461 100.802 85.461H98.7947C98.7023 85.461 98.6274 85.3861 98.6274 85.2937V83.2867C98.6274 83.1944 98.7023 83.1195 98.7947 83.1195ZM103.278 87.5129L103.343 87.4227C103.397 87.348 103.381 87.2434 103.306 87.1891L102.307 86.4623V84.4016C102.307 84.3093 102.232 84.2344 102.14 84.2344H102.028C101.936 84.2344 101.861 84.3093 101.861 84.4016V86.6894L103.044 87.5498C103.119 87.6041 103.223 87.5876 103.278 87.5129V87.5129Z" fill="#212121"></path><path d="M99.1013 84.6056H98.9673V85.0987L99.2169 84.6734L99.1013 84.6056ZM102.095 82.8965L102.095 82.7625L102.095 82.7625L102.095 82.8965ZM105.54 86.3585L105.674 86.3587L105.674 86.3587L105.54 86.3585ZM99.7678 88.9187L99.8577 88.8192L99.8577 88.8192L99.7678 88.9187ZM99.7611 88.6757L99.6663 88.5809L99.6663 88.5809L99.7611 88.6757ZM99.8596 88.5772L99.9544 88.672L99.9544 88.672L99.8596 88.5772ZM100.089 88.5709L99.9997 88.6705L99.9997 88.6705L100.089 88.5709ZM99.4318 84.9871L99.3126 84.9256L99.2118 85.1211H99.4318V84.9871ZM103.343 87.4227L103.452 87.5016L103.452 87.5016L103.343 87.4227ZM103.306 87.1891L103.227 87.2975L103.227 87.2975L103.306 87.1891ZM102.307 86.4623H102.173V86.5306L102.228 86.5707L102.307 86.4623ZM101.861 86.6894H101.727V86.7577L101.782 86.7978L101.861 86.6894ZM103.044 87.5498L103.123 87.4414L103.123 87.4414L103.044 87.5498ZM103.278 87.5129L103.169 87.4341L103.169 87.4341L103.278 87.5129ZM98.7947 83.2535H98.9341V82.9854H98.7947V83.2535ZM98.9341 83.2535C98.9524 83.2535 98.9673 83.2684 98.9673 83.2867H99.2354C99.2354 83.1203 99.1005 82.9854 98.9341 82.9854V83.2535ZM98.9673 83.2867V84.6056H99.2354V83.2867H98.9673ZM99.2169 84.6734C99.7958 83.6873 100.868 83.0267 102.095 83.0306L102.095 82.7625C100.77 82.7583 99.6109 83.4728 98.9857 84.5377L99.2169 84.6734ZM102.095 83.0306C103.921 83.0363 105.409 84.5313 105.406 86.3583L105.674 86.3587C105.677 84.3839 104.07 82.7686 102.095 82.7625L102.095 83.0306ZM105.406 86.3583C105.403 88.1907 103.917 89.6753 102.084 89.6753V89.9434C104.065 89.9434 105.671 88.339 105.674 86.3587L105.406 86.3583ZM102.084 89.6753C101.227 89.6753 100.447 89.3514 99.8577 88.8192L99.678 89.0182C100.315 89.5932 101.158 89.9434 102.084 89.9434V89.6753ZM99.8577 88.8192C99.8427 88.8057 99.8428 88.7836 99.8559 88.7705L99.6663 88.5809C99.5436 88.7036 99.5504 88.9029 99.678 89.0182L99.8577 88.8192ZM99.8559 88.7705L99.9544 88.672L99.7648 88.4824L99.6663 88.5809L99.8559 88.7705ZM99.9544 88.672C99.9671 88.6593 99.987 88.6591 99.9997 88.6705L100.179 88.4712C100.06 88.3639 99.8777 88.3695 99.7648 88.4824L99.9544 88.672ZM99.9997 88.6705C100.551 89.1671 101.282 89.4696 102.084 89.4696V89.2015C101.351 89.2015 100.683 88.9252 100.179 88.4712L99.9997 88.6705ZM102.084 89.4696C103.799 89.4696 105.201 88.0813 105.201 86.3529H104.932C104.932 87.9325 103.651 89.2015 102.084 89.2015V89.4696ZM105.201 86.3529C105.201 84.6383 103.812 83.2363 102.084 83.2363V83.5044C103.663 83.5044 104.932 84.7856 104.932 86.3529H105.201ZM102.084 83.2363C100.877 83.2363 99.8303 83.9222 99.3126 84.9256L99.5509 85.0485C100.024 84.1308 100.981 83.5044 102.084 83.5044V83.2363ZM99.4318 85.1211H100.802V84.853H99.4318V85.1211ZM100.802 85.1211C100.82 85.1211 100.835 85.136 100.835 85.1543H101.103C101.103 84.9879 100.968 84.853 100.802 84.853V85.1211ZM100.835 85.1543V85.2937H101.103V85.1543H100.835ZM100.835 85.2937C100.835 85.312 100.82 85.3269 100.802 85.3269V85.595C100.968 85.595 101.103 85.4601 101.103 85.2937H100.835ZM100.802 85.3269H98.7947V85.595H100.802V85.3269ZM98.7947 85.3269C98.7764 85.3269 98.7615 85.312 98.7615 85.2937H98.4934C98.4934 85.4601 98.6283 85.595 98.7947 85.595V85.3269ZM98.7615 85.2937V83.2867H98.4934V85.2937H98.7615ZM98.7615 83.2867C98.7615 83.2684 98.7764 83.2535 98.7947 83.2535V82.9854C98.6283 82.9854 98.4934 83.1203 98.4934 83.2867H98.7615ZM103.386 87.5918L103.452 87.5016L103.235 87.3439L103.169 87.4341L103.386 87.5918ZM103.452 87.5016C103.549 87.367 103.52 87.1786 103.385 87.0807L103.227 87.2975C103.242 87.3083 103.245 87.3291 103.235 87.3439L103.452 87.5016ZM103.385 87.0807L102.386 86.3539L102.228 86.5707L103.227 87.2975L103.385 87.0807ZM102.441 86.4623V84.4016H102.173V86.4623H102.441ZM102.441 84.4016C102.441 84.2352 102.306 84.1003 102.14 84.1003V84.3684C102.158 84.3684 102.173 84.3833 102.173 84.4016H102.441ZM102.14 84.1003H102.028V84.3684H102.14V84.1003ZM102.028 84.1003C101.862 84.1003 101.727 84.2352 101.727 84.4016H101.995C101.995 84.3833 102.01 84.3684 102.028 84.3684V84.1003ZM101.727 84.4016V86.6894H101.995V84.4016H101.727ZM101.782 86.7978L102.965 87.6582L103.123 87.4414L101.94 86.581L101.782 86.7978ZM102.965 87.6582C103.1 87.7561 103.288 87.7263 103.386 87.5918L103.169 87.4341C103.158 87.4489 103.138 87.4522 103.123 87.4414L102.965 87.6582Z" fill="#212121" mask="url(#path-31-outside-3_1055_60024)"></path><g clip-path="url(#clip3_1055_60024)"><path d="M111.494 81.8887H114.167V82.4901H111.494C111.353 82.4901 111.217 82.5534 111.116 82.6662C111.016 82.779 110.96 82.932 110.96 83.0915V89.1054C110.96 89.2649 111.016 89.4179 111.116 89.5307C111.217 89.6435 111.353 89.7068 111.494 89.7068H115.771C115.913 89.7068 116.049 89.6435 116.149 89.5307C116.249 89.4179 116.306 89.2649 116.306 89.1054V84.8957H116.84V89.1054C116.84 89.4244 116.728 89.7304 116.527 89.9559C116.327 90.1815 116.055 90.3082 115.771 90.3082H111.494C111.211 90.3082 110.939 90.1815 110.738 89.9559C110.538 89.7304 110.425 89.4244 110.425 89.1054V83.0915C110.425 82.7725 110.538 82.4665 110.738 82.241C110.939 82.0154 111.211 81.8887 111.494 81.8887V81.8887Z" fill="#212121"></path><path d="M114.167 83.9936V81.8887L116.84 84.8957H114.969C114.756 84.8957 114.552 84.8006 114.402 84.6314C114.251 84.4623 114.167 84.2328 114.167 83.9936Z" fill="#212121"></path><path fill-rule="evenodd" clip-rule="evenodd" d="M112.374 86.7876C112.399 86.7596 112.429 86.7373 112.461 86.7222C112.494 86.707 112.529 86.6992 112.564 86.6992C112.599 86.6992 112.634 86.707 112.666 86.7222C112.699 86.7373 112.728 86.7596 112.753 86.7876L113.633 87.7781L114.513 86.7876C114.563 86.7311 114.631 86.6994 114.702 86.6994C114.773 86.6994 114.841 86.7311 114.891 86.7876C114.941 86.844 114.97 86.9206 114.97 87.0005C114.97 87.0803 114.941 87.1569 114.891 87.2133L113.822 88.4161C113.797 88.4441 113.768 88.4664 113.735 88.4815C113.703 88.4967 113.668 88.5045 113.633 88.5045C113.598 88.5045 113.563 88.4967 113.53 88.4815C113.498 88.4664 113.468 88.4441 113.444 88.4161L112.374 87.2133C112.35 87.1854 112.33 87.1522 112.316 87.1157C112.303 87.0792 112.296 87.04 112.296 87.0005C112.296 86.9609 112.303 86.9217 112.316 86.8852C112.33 86.8487 112.35 86.8155 112.374 86.7876V86.7876Z" fill="#212121"></path><path fill-rule="evenodd" clip-rule="evenodd" d="M113.633 84.8965C113.703 84.8965 113.771 84.9282 113.822 84.9846C113.872 85.0409 113.9 85.1174 113.9 85.1972V87.6028C113.9 87.6825 113.872 87.759 113.822 87.8154C113.771 87.8718 113.703 87.9035 113.633 87.9035C113.562 87.9035 113.494 87.8718 113.444 87.8154C113.393 87.759 113.365 87.6825 113.365 87.6028V85.1972C113.365 85.1174 113.393 85.0409 113.444 84.9846C113.494 84.9282 113.562 84.8965 113.633 84.8965V84.8965Z" fill="#212121"></path></g><g clip-path="url(#clip4_1055_60024)"><path d="M122.703 83.7037V83.7735V89.8166C122.703 90.0529 122.789 90.2539 122.964 90.4234C123.139 90.5925 123.347 90.6766 123.592 90.6766H128.386C128.632 90.6766 128.84 90.5926 129.015 90.4234L122.703 83.7037ZM122.703 83.7037H122.634M122.703 83.7037H122.634M122.634 83.7037C122.515 83.7037 122.419 83.6655 122.34 83.59M122.634 83.7037L122.34 83.59M122.34 83.59C122.263 83.5143 122.224 83.4221 122.224 83.3086C122.224 83.1952 122.263 83.1029 122.34 83.0272C122.419 82.9517 122.515 82.9135 122.634 82.9135H124.551H124.621V82.8438C124.621 82.7303 124.66 82.6381 124.738 82.5624C124.816 82.4869 124.912 82.4486 125.031 82.4486H126.948C127.067 82.4486 127.163 82.4869 127.241 82.5624C127.319 82.6381 127.358 82.7303 127.358 82.8438V82.9135H127.427H129.345C129.464 82.9135 129.56 82.9518 129.638 83.0272C129.716 83.103 129.755 83.1952 129.755 83.3086C129.755 83.422 129.716 83.5143 129.638 83.59C129.56 83.6655 129.464 83.7037 129.345 83.7037H129.275V83.7735V89.8166C129.275 90.0529 129.189 90.2539 129.015 90.4233L122.34 83.59ZM123.592 83.7037H123.523V83.7735V89.8166V89.8863H123.592H128.386H128.456V89.8166V83.7735V83.7037H128.386H123.592ZM124.738 88.703L124.738 88.7028C124.66 88.6275 124.621 88.5354 124.621 88.422V85.168C124.621 85.0546 124.66 84.9624 124.738 84.8866C124.816 84.8112 124.912 84.7729 125.031 84.7729C125.15 84.7729 125.246 84.8112 125.324 84.8867C125.402 84.9623 125.44 85.0546 125.44 85.168V88.422C125.44 88.5355 125.402 88.6276 125.324 88.7029C125.246 88.7788 125.149 88.8171 125.031 88.8171C124.912 88.8171 124.816 88.7788 124.738 88.703ZM126.655 88.703L126.655 88.7028C126.577 88.6275 126.538 88.5354 126.538 88.422V85.168C126.538 85.0546 126.577 84.9624 126.655 84.8866C126.733 84.8112 126.829 84.7729 126.948 84.7729C127.067 84.7729 127.163 84.8112 127.241 84.8867C127.319 84.9623 127.358 85.0546 127.358 85.168V88.422C127.358 88.5355 127.319 88.6276 127.241 88.7029C127.163 88.7788 127.067 88.8171 126.948 88.8171C126.829 88.8171 126.733 88.7788 126.655 88.703Z" fill="#212121" stroke="#F6F6F6" stroke-width="0.139456"></path></g><defs><clipPath id="clip0_1055_60024"><rect x="119.814" y="29.6172" width="12" height="17.7769" rx="6" fill="white"></rect></clipPath><clipPath id="clip1_1055_60024"><rect width="8.55318" height="9.62233" fill="white" transform="translate(109.356 57.3613)"></rect></clipPath><clipPath id="clip2_1055_60024"><rect x="119.814" y="53.541" width="12" height="17.7769" rx="6" fill="white"></rect></clipPath><clipPath id="clip3_1055_60024"><rect width="8.55318" height="9.62233" fill="white" transform="translate(109.356 81.2871)"></rect></clipPath><clipPath id="clip4_1055_60024"><rect x="119.814" y="77.4668" width="12" height="17.7769" rx="6" fill="white"></rect></clipPath></defs></svg>