<svg xmlns="http://www.w3.org/2000/svg" width="218" height="47" viewBox="0 0 218 47" fill="none"><rect y="0.4375" width="218" height="46" rx="23" fill="white"></rect><rect x="7.32422" y="7.93945" width="30.7274" height="30.7274" rx="15.3637" fill="#DCD7FF"></rect><path fill-rule="evenodd" clip-rule="evenodd" d="M19.5777 15.4961C18.7939 16.2377 18.3536 17.2435 18.3536 18.2923V21.6818H19.5477V18.2923C19.5477 17.5432 19.8622 16.8247 20.422 16.295C20.9818 15.7653 21.741 15.4677 22.5327 15.4677C23.3244 15.4677 24.0837 15.7653 24.6435 16.295C25.2033 16.8247 25.5178 17.5432 25.5178 18.2923V21.6818H26.7118V18.2923C26.7118 17.2435 26.2715 16.2377 25.4878 15.4961C24.7041 14.7545 23.6411 14.3379 22.5327 14.3379C21.4244 14.3379 20.3614 14.7545 19.5777 15.4961ZM18.3548 21.682H26.713C28.0319 21.682 29.1011 22.6937 29.1011 23.9417V29.5908C29.1011 30.8388 28.0319 31.8505 26.713 31.8505H18.3548C17.036 31.8505 15.9668 30.8388 15.9668 29.5908V23.9417C15.9668 22.6937 17.036 21.682 18.3548 21.682Z" fill="#212121"></path><path d="M51.5662 27.8027L49.8142 21.8507H51.0862L52.2382 26.3387L53.5342 21.8507H54.9502L56.2462 26.3387L57.3982 21.8507H58.6702L56.9182 27.8027H55.6102L54.2422 23.1227L52.8742 27.8027H51.5662ZM61.1461 27.8027L59.3941 21.8507H60.6661L61.8181 26.3387L63.1141 21.8507H64.5301L65.8261 26.3387L66.9781 21.8507H68.2501L66.4981 27.8027H65.1901L63.8221 23.1227L62.4541 27.8027H61.1461ZM70.7259 27.8027L68.9739 21.8507H70.2459L71.3979 26.3387L72.6939 21.8507H74.1099L75.4059 26.3387L76.5579 21.8507H77.8299L76.0779 27.8027H74.7699L73.4019 23.1227L72.0339 27.8027H70.7259ZM79.3053 27.8747C79.0653 27.8747 78.8653 27.7987 78.7053 27.6467C78.5533 27.4867 78.4773 27.2987 78.4773 27.0827C78.4773 26.8587 78.5533 26.6707 78.7053 26.5187C78.8653 26.3587 79.0653 26.2787 79.3053 26.2787C79.5453 26.2787 79.7413 26.3587 79.8933 26.5187C80.0453 26.6707 80.1213 26.8587 80.1213 27.0827C80.1213 27.2987 80.0453 27.4867 79.8933 27.6467C79.7413 27.7987 79.5453 27.8747 79.3053 27.8747ZM84.4629 27.9467C83.8789 27.9467 83.3549 27.8147 82.8909 27.5507C82.4349 27.2867 82.0749 26.9227 81.8109 26.4587C81.5549 25.9867 81.4269 25.4427 81.4269 24.8267C81.4269 24.2107 81.5549 23.6707 81.8109 23.2067C82.0749 22.7347 82.4349 22.3667 82.8909 22.1027C83.3549 21.8387 83.8789 21.7067 84.4629 21.7067C85.1989 21.7067 85.8149 21.8987 86.3109 22.2827C86.8149 22.6667 87.1389 23.1867 87.2829 23.8427H85.9509C85.8709 23.5147 85.6949 23.2587 85.4229 23.0747C85.1509 22.8907 84.8309 22.7987 84.4629 22.7987C84.1509 22.7987 83.8629 22.8787 83.5989 23.0387C83.3349 23.1907 83.1229 23.4187 82.9629 23.7227C82.8029 24.0187 82.7229 24.3867 82.7229 24.8267C82.7229 25.2667 82.8029 25.6387 82.9629 25.9427C83.1229 26.2387 83.3349 26.4667 83.5989 26.6267C83.8629 26.7867 84.1509 26.8667 84.4629 26.8667C84.8309 26.8667 85.1509 26.7747 85.4229 26.5907C85.6949 26.4067 85.8709 26.1467 85.9509 25.8107H87.2829C87.1469 26.4507 86.8269 26.9667 86.3229 27.3587C85.8189 27.7507 85.1989 27.9467 84.4629 27.9467ZM91.0984 27.9467C90.3784 27.9467 89.8104 27.7227 89.3944 27.2747C88.9864 26.8267 88.7824 26.1587 88.7824 25.2707V21.8507H90.0544V25.1387C90.0544 26.2907 90.5264 26.8667 91.4704 26.8667C91.9424 26.8667 92.3304 26.6987 92.6344 26.3627C92.9384 26.0267 93.0904 25.5467 93.0904 24.9227V21.8507H94.3624V27.8027H93.2344L93.1384 26.7587C92.9544 27.1267 92.6824 27.4187 92.3224 27.6347C91.9704 27.8427 91.5624 27.9467 91.0984 27.9467ZM98.5966 27.9467C97.8446 27.9467 97.2246 27.7627 96.7366 27.3947C96.2486 27.0267 95.9686 26.5387 95.8966 25.9307H97.1806C97.2446 26.2027 97.3966 26.4387 97.6366 26.6387C97.8766 26.8307 98.1926 26.9267 98.5846 26.9267C98.9686 26.9267 99.2486 26.8467 99.4246 26.6867C99.6006 26.5267 99.6886 26.3427 99.6886 26.1347C99.6886 25.8307 99.5646 25.6267 99.3166 25.5227C99.0766 25.4107 98.7406 25.3107 98.3086 25.2227C97.9726 25.1507 97.6366 25.0547 97.3006 24.9347C96.9726 24.8147 96.6966 24.6467 96.4726 24.4307C96.2566 24.2067 96.1486 23.9067 96.1486 23.5307C96.1486 23.0107 96.3486 22.5787 96.7486 22.2347C97.1486 21.8827 97.7086 21.7067 98.4286 21.7067C99.0926 21.7067 99.6286 21.8667 100.037 22.1867C100.453 22.5067 100.697 22.9587 100.769 23.5427H99.5446C99.5046 23.2867 99.3846 23.0867 99.1846 22.9427C98.9926 22.7987 98.7326 22.7267 98.4046 22.7267C98.0846 22.7267 97.8366 22.7947 97.6606 22.9307C97.4846 23.0587 97.3966 23.2267 97.3966 23.4347C97.3966 23.6427 97.5166 23.8067 97.7566 23.9267C98.0046 24.0467 98.3286 24.1547 98.7286 24.2507C99.1286 24.3387 99.4966 24.4427 99.8326 24.5627C100.177 24.6747 100.453 24.8427 100.661 25.0667C100.869 25.2907 100.973 25.6187 100.973 26.0507C100.981 26.5947 100.769 27.0467 100.337 27.4067C99.9126 27.7667 99.3326 27.9467 98.5966 27.9467ZM104.875 27.8027C104.291 27.8027 103.827 27.6627 103.483 27.3827C103.139 27.0947 102.967 26.5867 102.967 25.8587V22.9187H101.947V21.8507H102.967L103.123 20.3387H104.239V21.8507H105.919V22.9187H104.239V25.8587C104.239 26.1867 104.307 26.4147 104.443 26.5427C104.587 26.6627 104.831 26.7227 105.175 26.7227H105.859V27.8027H104.875ZM110.102 27.9467C109.534 27.9467 109.022 27.8187 108.566 27.5627C108.118 27.2987 107.762 26.9347 107.498 26.4707C107.234 25.9987 107.102 25.4507 107.102 24.8267C107.102 24.2027 107.234 23.6587 107.498 23.1947C107.77 22.7227 108.134 22.3587 108.59 22.1027C109.046 21.8387 109.554 21.7067 110.114 21.7067C110.682 21.7067 111.19 21.8387 111.638 22.1027C112.094 22.3587 112.454 22.7227 112.718 23.1947C112.99 23.6587 113.126 24.2027 113.126 24.8267C113.126 25.4507 112.99 25.9987 112.718 26.4707C112.454 26.9347 112.094 27.2987 111.638 27.5627C111.182 27.8187 110.67 27.9467 110.102 27.9467ZM110.102 26.8547C110.406 26.8547 110.686 26.7787 110.942 26.6267C111.206 26.4747 111.418 26.2507 111.578 25.9547C111.738 25.6507 111.818 25.2747 111.818 24.8267C111.818 24.3787 111.738 24.0067 111.578 23.7107C111.426 23.4067 111.218 23.1787 110.954 23.0267C110.698 22.8747 110.418 22.7987 110.114 22.7987C109.81 22.7987 109.526 22.8747 109.262 23.0267C109.006 23.1787 108.798 23.4067 108.638 23.7107C108.478 24.0067 108.398 24.3787 108.398 24.8267C108.398 25.2747 108.478 25.6507 108.638 25.9547C108.798 26.2507 109.006 26.4747 109.262 26.6267C109.518 26.7787 109.798 26.8547 110.102 26.8547ZM114.741 27.8027V21.8507H115.869L115.977 22.6907C116.169 22.3867 116.421 22.1467 116.733 21.9707C117.053 21.7947 117.421 21.7067 117.837 21.7067C118.781 21.7067 119.437 22.0787 119.805 22.8227C120.021 22.4787 120.309 22.2067 120.669 22.0067C121.037 21.8067 121.433 21.7067 121.857 21.7067C122.601 21.7067 123.185 21.9307 123.609 22.3787C124.033 22.8267 124.245 23.4947 124.245 24.3827V27.8027H122.973V24.5147C122.973 23.3627 122.533 22.7867 121.653 22.7867C121.205 22.7867 120.837 22.9547 120.549 23.2907C120.269 23.6267 120.129 24.1067 120.129 24.7307V27.8027H118.857V24.5147C118.857 23.3627 118.413 22.7867 117.525 22.7867C117.085 22.7867 116.721 22.9547 116.433 23.2907C116.153 23.6267 116.013 24.1067 116.013 24.7307V27.8027H114.741ZM128.686 27.9467C128.11 27.9467 127.602 27.8107 127.162 27.5387C126.722 27.2667 126.378 26.8947 126.13 26.4227C125.882 25.9507 125.758 25.4147 125.758 24.8147C125.758 24.2147 125.882 23.6827 126.13 23.2187C126.378 22.7467 126.722 22.3787 127.162 22.1147C127.61 21.8427 128.122 21.7067 128.698 21.7067C129.17 21.7067 129.582 21.7987 129.934 21.9827C130.294 22.1667 130.574 22.4267 130.774 22.7627V19.1627H132.046V27.8027H130.906L130.774 26.8787C130.582 27.1587 130.318 27.4067 129.982 27.6227C129.646 27.8387 129.214 27.9467 128.686 27.9467ZM128.914 26.8427C129.458 26.8427 129.902 26.6547 130.246 26.2787C130.598 25.9027 130.774 25.4187 130.774 24.8267C130.774 24.2267 130.598 23.7427 130.246 23.3747C129.902 22.9987 129.458 22.8107 128.914 22.8107C128.37 22.8107 127.922 22.9987 127.57 23.3747C127.218 23.7427 127.042 24.2267 127.042 24.8267C127.042 25.2187 127.122 25.5667 127.282 25.8707C127.442 26.1747 127.662 26.4147 127.942 26.5907C128.23 26.7587 128.554 26.8427 128.914 26.8427ZM136.673 27.9467C136.105 27.9467 135.593 27.8187 135.137 27.5627C134.689 27.2987 134.333 26.9347 134.069 26.4707C133.805 25.9987 133.673 25.4507 133.673 24.8267C133.673 24.2027 133.805 23.6587 134.069 23.1947C134.341 22.7227 134.705 22.3587 135.161 22.1027C135.617 21.8387 136.125 21.7067 136.685 21.7067C137.253 21.7067 137.761 21.8387 138.209 22.1027C138.665 22.3587 139.025 22.7227 139.289 23.1947C139.561 23.6587 139.697 24.2027 139.697 24.8267C139.697 25.4507 139.561 25.9987 139.289 26.4707C139.025 26.9347 138.665 27.2987 138.209 27.5627C137.753 27.8187 137.241 27.9467 136.673 27.9467ZM136.673 26.8547C136.977 26.8547 137.257 26.7787 137.513 26.6267C137.777 26.4747 137.989 26.2507 138.149 25.9547C138.309 25.6507 138.389 25.2747 138.389 24.8267C138.389 24.3787 138.309 24.0067 138.149 23.7107C137.997 23.4067 137.789 23.1787 137.525 23.0267C137.269 22.8747 136.989 22.7987 136.685 22.7987C136.381 22.7987 136.097 22.8747 135.833 23.0267C135.577 23.1787 135.369 23.4067 135.209 23.7107C135.049 24.0067 134.969 24.3787 134.969 24.8267C134.969 25.2747 135.049 25.6507 135.209 25.9547C135.369 26.2507 135.577 26.4747 135.833 26.6267C136.089 26.7787 136.369 26.8547 136.673 26.8547ZM141.313 27.8027V21.8507H142.441L142.549 22.6907C142.741 22.3867 142.993 22.1467 143.305 21.9707C143.625 21.7947 143.993 21.7067 144.409 21.7067C145.353 21.7067 146.009 22.0787 146.377 22.8227C146.593 22.4787 146.881 22.2067 147.241 22.0067C147.609 21.8067 148.005 21.7067 148.429 21.7067C149.173 21.7067 149.757 21.9307 150.181 22.3787C150.605 22.8267 150.817 23.4947 150.817 24.3827V27.8027H149.545V24.5147C149.545 23.3627 149.105 22.7867 148.225 22.7867C147.777 22.7867 147.409 22.9547 147.121 23.2907C146.841 23.6267 146.701 24.1067 146.701 24.7307V27.8027H145.429V24.5147C145.429 23.3627 144.985 22.7867 144.097 22.7867C143.657 22.7867 143.293 22.9547 143.005 23.2907C142.725 23.6267 142.585 24.1067 142.585 24.7307V27.8027H141.313ZM154.561 27.9467C154.057 27.9467 153.641 27.8627 153.313 27.6947C152.985 27.5267 152.741 27.3067 152.581 27.0347C152.421 26.7547 152.341 26.4507 152.341 26.1227C152.341 25.5467 152.565 25.0907 153.013 24.7547C153.461 24.4187 154.101 24.2507 154.933 24.2507H156.493V24.1427C156.493 23.6787 156.365 23.3307 156.109 23.0987C155.861 22.8667 155.537 22.7507 155.137 22.7507C154.785 22.7507 154.477 22.8387 154.213 23.0147C153.957 23.1827 153.801 23.4347 153.745 23.7707H152.473C152.513 23.3387 152.657 22.9707 152.905 22.6667C153.161 22.3547 153.481 22.1187 153.865 21.9587C154.257 21.7907 154.685 21.7067 155.149 21.7067C155.981 21.7067 156.625 21.9267 157.081 22.3667C157.537 22.7987 157.765 23.3907 157.765 24.1427V27.8027H156.661L156.553 26.7827C156.385 27.1107 156.141 27.3867 155.821 27.6107C155.501 27.8347 155.081 27.9467 154.561 27.9467ZM154.813 26.9147C155.157 26.9147 155.445 26.8347 155.677 26.6747C155.917 26.5067 156.101 26.2867 156.229 26.0147C156.365 25.7427 156.449 25.4427 156.481 25.1147H155.065C154.561 25.1147 154.201 25.2027 153.985 25.3787C153.777 25.5547 153.673 25.7747 153.673 26.0387C153.673 26.3107 153.773 26.5267 153.973 26.6867C154.181 26.8387 154.461 26.9147 154.813 26.9147ZM160.208 20.7227C159.968 20.7227 159.768 20.6507 159.608 20.5067C159.456 20.3547 159.38 20.1667 159.38 19.9427C159.38 19.7187 159.456 19.5347 159.608 19.3907C159.768 19.2387 159.968 19.1627 160.208 19.1627C160.448 19.1627 160.644 19.2387 160.796 19.3907C160.956 19.5347 161.036 19.7187 161.036 19.9427C161.036 20.1667 160.956 20.3547 160.796 20.5067C160.644 20.6507 160.448 20.7227 160.208 20.7227ZM159.572 27.8027V21.8507H160.844V27.8027H159.572ZM162.763 27.8027V21.8507H163.891L163.987 22.8947C164.171 22.5267 164.439 22.2387 164.791 22.0307C165.151 21.8147 165.563 21.7067 166.027 21.7067C166.747 21.7067 167.311 21.9307 167.719 22.3787C168.135 22.8267 168.343 23.4947 168.343 24.3827V27.8027H167.083V24.5147C167.083 23.3627 166.611 22.7867 165.667 22.7867C165.195 22.7867 164.803 22.9547 164.491 23.2907C164.187 23.6267 164.035 24.1067 164.035 24.7307V27.8027H162.763ZM170.585 27.8747C170.345 27.8747 170.145 27.7987 169.985 27.6467C169.833 27.4867 169.757 27.2987 169.757 27.0827C169.757 26.8587 169.833 26.6707 169.985 26.5187C170.145 26.3587 170.345 26.2787 170.585 26.2787C170.825 26.2787 171.021 26.3587 171.173 26.5187C171.325 26.6707 171.401 26.8587 171.401 27.0827C171.401 27.2987 171.325 27.4867 171.173 27.6467C171.021 27.7987 170.825 27.8747 170.585 27.8747ZM175.743 27.9467C175.159 27.9467 174.635 27.8147 174.171 27.5507C173.715 27.2867 173.355 26.9227 173.091 26.4587C172.835 25.9867 172.707 25.4427 172.707 24.8267C172.707 24.2107 172.835 23.6707 173.091 23.2067C173.355 22.7347 173.715 22.3667 174.171 22.1027C174.635 21.8387 175.159 21.7067 175.743 21.7067C176.479 21.7067 177.095 21.8987 177.591 22.2827C178.095 22.6667 178.419 23.1867 178.563 23.8427H177.231C177.151 23.5147 176.975 23.2587 176.703 23.0747C176.431 22.8907 176.111 22.7987 175.743 22.7987C175.431 22.7987 175.143 22.8787 174.879 23.0387C174.615 23.1907 174.403 23.4187 174.243 23.7227C174.083 24.0187 174.003 24.3867 174.003 24.8267C174.003 25.2667 174.083 25.6387 174.243 25.9427C174.403 26.2387 174.615 26.4667 174.879 26.6267C175.143 26.7867 175.431 26.8667 175.743 26.8667C176.111 26.8667 176.431 26.7747 176.703 26.5907C176.975 26.4067 177.151 26.1467 177.231 25.8107H178.563C178.427 26.4507 178.107 26.9667 177.603 27.3587C177.099 27.7507 176.479 27.9467 175.743 27.9467ZM182.967 27.9467C182.399 27.9467 181.887 27.8187 181.431 27.5627C180.983 27.2987 180.627 26.9347 180.363 26.4707C180.099 25.9987 179.967 25.4507 179.967 24.8267C179.967 24.2027 180.099 23.6587 180.363 23.1947C180.635 22.7227 180.999 22.3587 181.455 22.1027C181.911 21.8387 182.419 21.7067 182.979 21.7067C183.547 21.7067 184.055 21.8387 184.503 22.1027C184.959 22.3587 185.319 22.7227 185.583 23.1947C185.855 23.6587 185.991 24.2027 185.991 24.8267C185.991 25.4507 185.855 25.9987 185.583 26.4707C185.319 26.9347 184.959 27.2987 184.503 27.5627C184.047 27.8187 183.535 27.9467 182.967 27.9467ZM182.967 26.8547C183.271 26.8547 183.551 26.7787 183.807 26.6267C184.071 26.4747 184.283 26.2507 184.443 25.9547C184.603 25.6507 184.683 25.2747 184.683 24.8267C184.683 24.3787 184.603 24.0067 184.443 23.7107C184.291 23.4067 184.083 23.1787 183.819 23.0267C183.563 22.8747 183.283 22.7987 182.979 22.7987C182.675 22.7987 182.391 22.8747 182.127 23.0267C181.871 23.1787 181.663 23.4067 181.503 23.7107C181.343 24.0067 181.263 24.3787 181.263 24.8267C181.263 25.2747 181.343 25.6507 181.503 25.9547C181.663 26.2507 181.871 26.4747 182.127 26.6267C182.383 26.7787 182.663 26.8547 182.967 26.8547ZM187.606 27.8027V21.8507H188.734L188.842 22.6907C189.034 22.3867 189.286 22.1467 189.598 21.9707C189.918 21.7947 190.286 21.7067 190.702 21.7067C191.646 21.7067 192.302 22.0787 192.67 22.8227C192.886 22.4787 193.174 22.2067 193.534 22.0067C193.902 21.8067 194.298 21.7067 194.722 21.7067C195.466 21.7067 196.05 21.9307 196.474 22.3787C196.898 22.8267 197.11 23.4947 197.11 24.3827V27.8027H195.838V24.5147C195.838 23.3627 195.398 22.7867 194.518 22.7867C194.07 22.7867 193.702 22.9547 193.414 23.2907C193.134 23.6267 192.994 24.1067 192.994 24.7307V27.8027H191.722V24.5147C191.722 23.3627 191.278 22.7867 190.39 22.7867C189.95 22.7867 189.586 22.9547 189.298 23.2907C189.018 23.6267 188.878 24.1067 188.878 24.7307V27.8027H187.606Z" fill="black"></path></svg>