<svg xmlns="http://www.w3.org/2000/svg" width="151" height="152" viewBox="0 0 151 152" fill="none"><path d="M102 82.6793H1V150.481H102V82.6793Z" fill="white" stroke="black" stroke-width="1.34353"></path><path d="M10.2927 93.8783C11.5004 93.4115 12.1011 92.054 11.6343 90.8463C11.1676 89.6385 9.81012 89.0378 8.60236 89.5046C7.39461 89.9713 6.79391 91.3288 7.26067 92.5366C7.72743 93.7443 9.0849 94.345 10.2927 93.8783Z" fill="black"></path><path d="M17.6259 93.8763C18.8337 93.4095 19.4343 92.0521 18.9676 90.8443C18.5008 89.6366 17.1434 89.0359 15.9356 89.5026C14.7279 89.9694 14.1272 91.3269 14.5939 92.5346C15.0607 93.7424 16.4182 94.3431 17.6259 93.8763Z" fill="black"></path><path d="M24.9589 93.8786C26.1667 93.4119 26.7674 92.0544 26.3006 90.8466C25.8338 89.6389 24.4764 89.0382 23.2686 89.505C22.0609 89.9717 21.4602 91.3292 21.9269 92.5369C22.3937 93.7447 23.7512 94.3454 24.9589 93.8786Z" fill="black"></path><path d="M95.9137 97.0819H6.7771V144.099H95.9137V97.0819Z" fill="#070808"></path><path d="M51.7184 100.965C47.9042 100.966 44.176 102.098 41.0053 104.218C37.8345 106.338 35.3636 109.351 33.9049 112.875C32.4462 116.399 32.0652 120.277 32.8101 124.018C33.5551 127.759 35.3924 131.194 38.09 133.891C40.7875 136.588 44.224 138.424 47.965 139.167C51.706 139.911 55.5835 139.529 59.1073 138.069C62.631 136.609 65.6427 134.137 67.7616 130.965C69.8806 127.794 71.0115 124.065 71.0115 120.251C71.0115 117.718 70.5125 115.209 69.5428 112.869C68.5731 110.529 67.1519 108.402 65.3603 106.611C63.5687 104.82 61.4418 103.4 59.1011 102.431C56.7603 101.462 54.2517 100.964 51.7184 100.965Z" fill="black"></path><path d="M51.7184 102.12C55.3316 102.111 58.8638 103.191 61.8553 105.217C62.8219 105.866 63.7219 106.608 64.5424 107.434C65.3643 108.256 66.1045 109.156 66.7525 110.121C67.4102 111.089 67.9705 112.119 68.4252 113.198C69.3641 115.431 69.8477 117.829 69.8477 120.251C69.8477 122.674 69.3641 125.072 68.4252 127.305C67.972 128.386 67.4116 129.419 66.7525 130.388C66.1045 131.353 65.3643 132.253 64.5424 133.075C63.7219 133.901 62.8219 134.643 61.8553 135.292C59.3582 136.971 56.4825 138.003 53.4874 138.293C50.4923 138.584 47.4719 138.125 44.6984 136.958C42.5448 136.047 40.5877 134.729 38.9347 133.075C37.2805 131.421 35.96 129.464 35.0451 127.311C34.1062 125.078 33.6226 122.68 33.6226 120.258C33.6226 117.835 34.1062 115.437 35.0451 113.204C36.4233 109.968 38.7041 107.198 41.615 105.224C42.5867 104.568 43.6193 104.008 44.6984 103.551C46.9296 102.606 49.3288 102.122 51.7519 102.127" fill="white"></path><path d="M35.6497 120.251C35.6488 123.268 36.4969 126.224 38.0971 128.782C39.6972 131.34 41.9849 133.396 44.6984 134.714L37.0402 113.708C36.1209 115.767 35.6471 117.997 35.6497 120.251ZM62.574 119.438C62.5465 117.864 62.0813 116.329 61.2305 115.005C60.4177 113.661 59.6519 112.559 59.6519 111.236C59.6337 110.503 59.9059 109.792 60.4092 109.259C60.9124 108.725 61.606 108.412 62.3389 108.388H62.5472C60.8318 106.814 58.7951 105.633 56.5779 104.925C54.3607 104.216 52.016 103.998 49.7062 104.286C47.3965 104.573 45.1768 105.359 43.2009 106.59C41.225 107.82 39.5401 109.465 38.2628 111.411H39.2974C40.9768 111.411 43.5832 111.202 43.5832 111.202C43.7614 111.189 43.9376 111.247 44.073 111.364C44.2084 111.48 44.292 111.646 44.3054 111.824C44.3187 112.002 44.2608 112.178 44.1442 112.314C44.0277 112.449 43.8622 112.533 43.684 112.546C43.684 112.546 42.8174 112.653 41.8434 112.701L47.7012 130.113L51.2145 119.566L48.729 112.714C47.8624 112.667 47.0428 112.559 47.0428 112.559C46.9546 112.553 46.8685 112.529 46.7896 112.489C46.7106 112.449 46.6403 112.394 46.5826 112.327C46.466 112.192 46.4081 112.015 46.4214 111.837C46.4348 111.659 46.5184 111.494 46.6538 111.377C46.7892 111.26 46.9654 111.203 47.1436 111.216C47.1436 111.216 49.8306 111.424 51.3757 111.424C53.0551 111.424 55.6616 111.216 55.6616 111.216C55.8397 111.203 56.0159 111.26 56.1513 111.377C56.2868 111.494 56.3704 111.659 56.3837 111.837C56.3971 112.015 56.3391 112.192 56.2226 112.327C56.1061 112.462 55.9405 112.546 55.7623 112.559C55.7623 112.559 54.889 112.667 53.9217 112.714L59.7325 129.992L61.3917 124.739C62.1643 122.441 62.574 120.836 62.574 119.438ZM52.0004 121.655L47.1772 135.668C50.4158 136.626 53.874 136.536 57.0588 135.413C57.0154 135.342 56.9773 135.268 56.9446 135.191L52.0004 121.655ZM65.8254 112.539C65.8973 113.087 65.9332 113.639 65.9329 114.192C65.9069 116.172 65.4914 118.129 64.7103 119.949L59.7997 134.143C63.4244 132.041 66.0849 128.606 67.2142 124.57C68.3435 120.535 67.8524 116.218 65.8455 112.539H65.8254Z" fill="black"></path><path d="M98.1172 78.7965H4.88281C2.73839 78.7965 1 80.5349 1 82.6793C1 84.8237 2.73839 86.5621 4.88281 86.5621H98.1172C100.262 86.5621 102 84.8237 102 82.6793C102 80.5349 100.262 78.7965 98.1172 78.7965Z" fill="white" stroke="black" stroke-width="1.34353"></path><path d="M75.5459 72.052C75.5452 68.5627 74.7545 65.1188 73.2332 61.9786C71.7119 58.8384 69.4994 56.0834 66.7617 53.9201C64.024 51.7568 60.832 50.2413 57.4252 49.4874C54.0183 48.7334 50.485 48.7605 47.0901 49.5666C43.6952 50.3728 40.5268 51.937 37.8226 54.142C35.1184 56.3471 32.9484 59.1357 31.4755 62.2989C30.0025 65.462 29.2648 68.9176 29.3176 72.4065C29.3704 75.8954 30.2123 79.3271 31.7803 82.4442H73.0738C74.7031 79.2225 75.5501 75.6622 75.5459 72.052Z" fill="#070808"></path><path d="M69.0431 82.4442C71.424 78.6388 72.4262 74.1312 71.8821 69.6754C71.3379 65.2196 69.2804 61.0857 66.0537 57.9651" stroke="white" stroke-width="0.671766" stroke-miterlimit="10"></path><path d="M52.4305 52.4565C48.9571 52.455 45.5457 53.3765 42.5454 55.1265C39.5452 56.8766 37.0638 59.3924 35.3553 62.4165C33.6467 65.4406 32.7724 68.8643 32.8218 72.3373C32.8712 75.8104 33.8425 79.2079 35.6363 82.1822" stroke="white" stroke-width="0.671766" stroke-miterlimit="10"></path><path d="M6.20605 82.4442H96.7937" stroke="black" stroke-width="1.34353"></path><path d="M62.0635 77.8291H50.5024V81.685H62.0635V77.8291Z" fill="white"></path><path d="M62.0635 70.124H50.5024V73.98H62.0635V70.124Z" fill="white"></path><path d="M46.6533 62.4188H42.7974V81.6851H46.6533V62.4188Z" fill="white"></path><path d="M62.0635 62.4188H50.5024V66.2748H62.0635V62.4188Z" fill="white"></path></svg>