<svg xmlns="http://www.w3.org/2000/svg" width="305" height="192" viewBox="0 0 305 192" fill="none"><rect y="0.4375" width="305" height="191" rx="4" fill="#F6F6F6"></rect><path d="M245.092 35.1367H94.6211V148.815H245.092V35.1367Z" fill="#92003B"></path><path d="M158.419 35.6709H114.711V22.4375H155.08C156.923 22.4375 158.419 23.9361 158.419 25.7826V35.6709Z" fill="#92003B"></path><path d="M237.405 46.4297H68.3906V160.107H237.405V46.4297Z" fill="#FF7BE5"></path><path d="M120.598 29.5095C120.19 29.5095 119.862 29.3955 119.614 29.1675C119.37 28.9355 119.248 28.6075 119.248 28.1835H120.016C120.02 28.3795 120.066 28.5355 120.154 28.6515C120.242 28.7675 120.384 28.8255 120.58 28.8255C120.764 28.8255 120.898 28.7715 120.982 28.6635C121.066 28.5515 121.108 28.4055 121.108 28.2255V25.2375H121.876V28.2255C121.876 28.6375 121.76 28.9555 121.528 29.1795C121.3 29.3995 120.99 29.5095 120.598 29.5095ZM123.701 29.5095C123.445 29.5095 123.235 29.4695 123.071 29.3895C122.907 29.3055 122.785 29.1955 122.705 29.0595C122.625 28.9235 122.585 28.7735 122.585 28.6095C122.585 28.3335 122.693 28.1095 122.909 27.9375C123.125 27.7655 123.449 27.6795 123.881 27.6795H124.637V27.6075C124.637 27.4035 124.579 27.2535 124.463 27.1575C124.347 27.0615 124.203 27.0135 124.031 27.0135C123.875 27.0135 123.739 27.0515 123.623 27.1275C123.507 27.1995 123.435 27.3075 123.407 27.4515H122.657C122.677 27.2355 122.749 27.0475 122.873 26.8875C123.001 26.7275 123.165 26.6055 123.365 26.5215C123.565 26.4335 123.789 26.3895 124.037 26.3895C124.461 26.3895 124.795 26.4955 125.039 26.7075C125.283 26.9195 125.405 27.2195 125.405 27.6075V29.4375H124.751L124.679 28.9575C124.591 29.1175 124.467 29.2495 124.307 29.3535C124.151 29.4575 123.949 29.5095 123.701 29.5095ZM123.875 28.9095C124.095 28.9095 124.265 28.8375 124.385 28.6935C124.509 28.5495 124.587 28.3715 124.619 28.1595H123.965C123.761 28.1595 123.615 28.1975 123.527 28.2735C123.439 28.3455 123.395 28.4355 123.395 28.5435C123.395 28.6595 123.439 28.7495 123.527 28.8135C123.615 28.8775 123.731 28.9095 123.875 28.9095ZM126.854 29.4375L125.762 26.4615H126.566L127.322 28.7115L128.078 26.4615H128.882L127.784 29.4375H126.854ZM130.211 29.5095C129.955 29.5095 129.745 29.4695 129.581 29.3895C129.417 29.3055 129.295 29.1955 129.215 29.0595C129.135 28.9235 129.095 28.7735 129.095 28.6095C129.095 28.3335 129.203 28.1095 129.419 27.9375C129.635 27.7655 129.959 27.6795 130.391 27.6795H131.147V27.6075C131.147 27.4035 131.089 27.2535 130.973 27.1575C130.857 27.0615 130.713 27.0135 130.541 27.0135C130.385 27.0135 130.249 27.0515 130.133 27.1275C130.017 27.1995 129.945 27.3075 129.917 27.4515H129.167C129.187 27.2355 129.259 27.0475 129.383 26.8875C129.511 26.7275 129.675 26.6055 129.875 26.5215C130.075 26.4335 130.299 26.3895 130.547 26.3895C130.971 26.3895 131.305 26.4955 131.549 26.7075C131.793 26.9195 131.915 27.2195 131.915 27.6075V29.4375H131.261L131.189 28.9575C131.101 29.1175 130.977 29.2495 130.817 29.3535C130.661 29.4575 130.459 29.5095 130.211 29.5095ZM130.385 28.9095C130.605 28.9095 130.775 28.8375 130.895 28.6935C131.019 28.5495 131.097 28.3715 131.129 28.1595H130.475C130.271 28.1595 130.125 28.1975 130.037 28.2735C129.949 28.3455 129.905 28.4355 129.905 28.5435C129.905 28.6595 129.949 28.7495 130.037 28.8135C130.125 28.8775 130.241 28.9095 130.385 28.9095ZM134.1 29.5095C133.792 29.5095 133.52 29.4575 133.284 29.3535C133.048 29.2455 132.862 29.0935 132.726 28.8975C132.59 28.6975 132.52 28.4555 132.516 28.1715H133.326C133.334 28.3675 133.404 28.5335 133.536 28.6695C133.672 28.8015 133.858 28.8675 134.094 28.8675C134.298 28.8675 134.46 28.8195 134.58 28.7235C134.7 28.6235 134.76 28.4915 134.76 28.3275C134.76 28.1555 134.706 28.0215 134.598 27.9255C134.494 27.8295 134.354 27.7515 134.178 27.6915C134.002 27.6315 133.814 27.5675 133.614 27.4995C133.29 27.3875 133.042 27.2435 132.87 27.0675C132.702 26.8915 132.618 26.6575 132.618 26.3655C132.614 26.1175 132.672 25.9055 132.792 25.7295C132.916 25.5495 133.084 25.4115 133.296 25.3155C133.508 25.2155 133.752 25.1655 134.028 25.1655C134.308 25.1655 134.554 25.2155 134.766 25.3155C134.982 25.4155 135.15 25.5555 135.27 25.7355C135.394 25.9155 135.46 26.1295 135.468 26.3775H134.646C134.642 26.2295 134.584 26.0995 134.472 25.9875C134.364 25.8715 134.212 25.8135 134.016 25.8135C133.848 25.8095 133.706 25.8515 133.59 25.9395C133.478 26.0235 133.422 26.1475 133.422 26.3115C133.422 26.4515 133.466 26.5635 133.554 26.6475C133.642 26.7275 133.762 26.7955 133.914 26.8515C134.066 26.9075 134.24 26.9675 134.436 27.0315C134.644 27.1035 134.834 27.1875 135.006 27.2835C135.178 27.3795 135.316 27.5075 135.42 27.6675C135.524 27.8235 135.576 28.0255 135.576 28.2735C135.576 28.4935 135.52 28.6975 135.408 28.8855C135.296 29.0735 135.13 29.2255 134.91 29.3415C134.69 29.4535 134.42 29.5095 134.1 29.5095ZM137.686 29.5095C137.382 29.5095 137.114 29.4435 136.882 29.3115C136.65 29.1795 136.466 28.9955 136.33 28.7595C136.198 28.5235 136.132 28.2535 136.132 27.9495C136.132 27.6455 136.198 27.3755 136.33 27.1395C136.466 26.9035 136.65 26.7195 136.882 26.5875C137.114 26.4555 137.382 26.3895 137.686 26.3895C138.066 26.3895 138.386 26.4895 138.646 26.6895C138.906 26.8855 139.072 27.1575 139.144 27.5055H138.334C138.294 27.3615 138.214 27.2495 138.094 27.1695C137.978 27.0855 137.84 27.0435 137.68 27.0435C137.468 27.0435 137.288 27.1235 137.14 27.2835C136.992 27.4435 136.918 27.6655 136.918 27.9495C136.918 28.2335 136.992 28.4555 137.14 28.6155C137.288 28.7755 137.468 28.8555 137.68 28.8555C137.84 28.8555 137.978 28.8155 138.094 28.7355C138.214 28.6555 138.294 28.5415 138.334 28.3935H139.144C139.072 28.7295 138.906 28.9995 138.646 29.2035C138.386 29.4075 138.066 29.5095 137.686 29.5095ZM139.826 29.4375V26.4615H140.51L140.582 27.0195C140.69 26.8275 140.836 26.6755 141.02 26.5635C141.208 26.4475 141.428 26.3895 141.68 26.3895V27.1995H141.464C141.296 27.1995 141.146 27.2255 141.014 27.2775C140.882 27.3295 140.778 27.4195 140.702 27.5475C140.63 27.6755 140.594 27.8535 140.594 28.0815V29.4375H139.826ZM142.618 25.9995C142.478 25.9995 142.362 25.9575 142.27 25.8735C142.182 25.7895 142.138 25.6835 142.138 25.5555C142.138 25.4275 142.182 25.3235 142.27 25.2435C142.362 25.1595 142.478 25.1175 142.618 25.1175C142.758 25.1175 142.872 25.1595 142.96 25.2435C143.052 25.3235 143.098 25.4275 143.098 25.5555C143.098 25.6835 143.052 25.7895 142.96 25.8735C142.872 25.9575 142.758 25.9995 142.618 25.9995ZM142.234 29.4375V26.4615H143.002V29.4375H142.234ZM143.804 30.7575V26.4615H144.488L144.572 26.8875C144.668 26.7555 144.794 26.6395 144.95 26.5395C145.11 26.4395 145.316 26.3895 145.568 26.3895C145.848 26.3895 146.098 26.4575 146.318 26.5935C146.538 26.7295 146.712 26.9155 146.84 27.1515C146.968 27.3875 147.032 27.6555 147.032 27.9555C147.032 28.2555 146.968 28.5235 146.84 28.7595C146.712 28.9915 146.538 29.1755 146.318 29.3115C146.098 29.4435 145.848 29.5095 145.568 29.5095C145.344 29.5095 145.148 29.4675 144.98 29.3835C144.812 29.2995 144.676 29.1815 144.572 29.0295V30.7575H143.804ZM145.406 28.8375C145.65 28.8375 145.852 28.7555 146.012 28.5915C146.172 28.4275 146.252 28.2155 146.252 27.9555C146.252 27.6955 146.172 27.4815 146.012 27.3135C145.852 27.1455 145.65 27.0615 145.406 27.0615C145.158 27.0615 144.954 27.1455 144.794 27.3135C144.638 27.4775 144.56 27.6895 144.56 27.9495C144.56 28.2095 144.638 28.4235 144.794 28.5915C144.954 28.7555 145.158 28.8375 145.406 28.8375ZM120.808 38.4375C120.496 38.4375 120.246 38.3615 120.058 38.2095C119.87 38.0575 119.776 37.7875 119.776 37.3995V36.1035H119.266V35.4615H119.776L119.866 34.6635H120.544V35.4615H121.348V36.1035H120.544V37.4055C120.544 37.5495 120.574 37.6495 120.634 37.7055C120.698 37.7575 120.806 37.7835 120.958 37.7835H121.33V38.4375H120.808Z" fill="white"></path><path d="M132.189 46.9677H88.4844V33.7344H128.853C130.696 33.7344 132.192 35.233 132.192 37.0795V46.9677H132.189Z" fill="#FF7BE5"></path><path d="M228.015 55.1133H59V168.791H228.015V55.1133Z" fill="#BA0984"></path><path d="M102.708 56.2035H59V42.9668H99.3689C101.212 42.9668 102.708 44.4654 102.708 46.3119V56.2035Z" fill="#BA0984"></path><path d="M66.1557 52.156C65.7317 52.156 65.3677 52.066 65.0637 51.886C64.7597 51.702 64.5257 51.448 64.3617 51.124C64.1977 50.796 64.1157 50.418 64.1157 49.99C64.1157 49.562 64.1977 49.184 64.3617 48.856C64.5257 48.528 64.7597 48.272 65.0637 48.088C65.3677 47.904 65.7317 47.812 66.1557 47.812C66.6597 47.812 67.0717 47.938 67.3917 48.19C67.7157 48.438 67.9177 48.788 67.9977 49.24H67.1517C67.0997 49.012 66.9877 48.834 66.8157 48.706C66.6477 48.574 66.4237 48.508 66.1437 48.508C65.7557 48.508 65.4517 48.64 65.2317 48.904C65.0117 49.168 64.9017 49.53 64.9017 49.99C64.9017 50.45 65.0117 50.812 65.2317 51.076C65.4517 51.336 65.7557 51.466 66.1437 51.466C66.4237 51.466 66.6477 51.406 66.8157 51.286C66.9877 51.162 67.0997 50.992 67.1517 50.776H67.9977C67.9177 51.208 67.7157 51.546 67.3917 51.79C67.0717 52.034 66.6597 52.156 66.1557 52.156ZM70.1115 52.156C69.8035 52.156 69.5315 52.104 69.2955 52C69.0595 51.892 68.8735 51.74 68.7375 51.544C68.6015 51.344 68.5315 51.102 68.5275 50.818H69.3375C69.3455 51.014 69.4155 51.18 69.5475 51.316C69.6835 51.448 69.8695 51.514 70.1055 51.514C70.3095 51.514 70.4715 51.466 70.5915 51.37C70.7115 51.27 70.7715 51.138 70.7715 50.974C70.7715 50.802 70.7175 50.668 70.6095 50.572C70.5055 50.476 70.3655 50.398 70.1895 50.338C70.0135 50.278 69.8255 50.214 69.6255 50.146C69.3015 50.034 69.0535 49.89 68.8815 49.714C68.7135 49.538 68.6295 49.304 68.6295 49.012C68.6255 48.764 68.6835 48.552 68.8035 48.376C68.9275 48.196 69.0955 48.058 69.3075 47.962C69.5195 47.862 69.7635 47.812 70.0395 47.812C70.3195 47.812 70.5655 47.862 70.7775 47.962C70.9935 48.062 71.1615 48.202 71.2815 48.382C71.4055 48.562 71.4715 48.776 71.4795 49.024H70.6575C70.6535 48.876 70.5955 48.746 70.4835 48.634C70.3755 48.518 70.2235 48.46 70.0275 48.46C69.8595 48.456 69.7175 48.498 69.6015 48.586C69.4895 48.67 69.4335 48.794 69.4335 48.958C69.4335 49.098 69.4775 49.21 69.5655 49.294C69.6535 49.374 69.7735 49.442 69.9255 49.498C70.0775 49.554 70.2515 49.614 70.4475 49.678C70.6555 49.75 70.8455 49.834 71.0175 49.93C71.1895 50.026 71.3275 50.154 71.4315 50.314C71.5355 50.47 71.5875 50.672 71.5875 50.92C71.5875 51.14 71.5315 51.344 71.4195 51.532C71.3075 51.72 71.1415 51.872 70.9215 51.988C70.7015 52.1 70.4315 52.156 70.1115 52.156ZM73.6916 52.156C73.3836 52.156 73.1116 52.104 72.8756 52C72.6396 51.892 72.4536 51.74 72.3176 51.544C72.1816 51.344 72.1116 51.102 72.1076 50.818H72.9176C72.9256 51.014 72.9956 51.18 73.1276 51.316C73.2636 51.448 73.4496 51.514 73.6856 51.514C73.8896 51.514 74.0516 51.466 74.1716 51.37C74.2916 51.27 74.3516 51.138 74.3516 50.974C74.3516 50.802 74.2976 50.668 74.1896 50.572C74.0856 50.476 73.9456 50.398 73.7696 50.338C73.5936 50.278 73.4056 50.214 73.2056 50.146C72.8816 50.034 72.6336 49.89 72.4616 49.714C72.2936 49.538 72.2096 49.304 72.2096 49.012C72.2056 48.764 72.2636 48.552 72.3836 48.376C72.5076 48.196 72.6756 48.058 72.8876 47.962C73.0996 47.862 73.3436 47.812 73.6196 47.812C73.8996 47.812 74.1456 47.862 74.3576 47.962C74.5736 48.062 74.7416 48.202 74.8616 48.382C74.9856 48.562 75.0516 48.776 75.0596 49.024H74.2376C74.2336 48.876 74.1756 48.746 74.0636 48.634C73.9556 48.518 73.8036 48.46 73.6076 48.46C73.4396 48.456 73.2976 48.498 73.1816 48.586C73.0696 48.67 73.0136 48.794 73.0136 48.958C73.0136 49.098 73.0576 49.21 73.1456 49.294C73.2336 49.374 73.3536 49.442 73.5056 49.498C73.6576 49.554 73.8316 49.614 74.0276 49.678C74.2356 49.75 74.4256 49.834 74.5976 49.93C74.7696 50.026 74.9076 50.154 75.0116 50.314C75.1156 50.47 75.1676 50.672 75.1676 50.92C75.1676 51.14 75.1116 51.344 74.9996 51.532C74.8876 51.72 74.7216 51.872 74.5016 51.988C74.2816 52.1 74.0116 52.156 73.6916 52.156Z" fill="#FFE1F9"></path><path d="M91.3924 41.0684V36.8684H92.1604V38.6144H94.0444V36.8684H94.8124V41.0684H94.0444V39.2384H92.1604V41.0684H91.3924ZM96.9367 41.0684C96.6247 41.0684 96.3747 40.9924 96.1867 40.8404C95.9987 40.6884 95.9047 40.4184 95.9047 40.0304V38.7344H95.3947V38.0924H95.9047L95.9947 37.2944H96.6727V38.0924H97.4767V38.7344H96.6727V40.0364C96.6727 40.1804 96.7027 40.2804 96.7627 40.3364C96.8267 40.3884 96.9347 40.4144 97.0867 40.4144H97.4587V41.0684H96.9367ZM98.1361 41.0684V38.0924H98.8141L98.8801 38.4944C98.9761 38.3504 99.1021 38.2364 99.2581 38.1524C99.4181 38.0644 99.6021 38.0204 99.8101 38.0204C100.27 38.0204 100.596 38.1984 100.788 38.5544C100.896 38.3904 101.04 38.2604 101.22 38.1644C101.404 38.0684 101.604 38.0204 101.82 38.0204C102.208 38.0204 102.506 38.1364 102.714 38.3684C102.922 38.6004 103.026 38.9404 103.026 39.3884V41.0684H102.258V39.4604C102.258 39.2044 102.208 39.0084 102.108 38.8724C102.012 38.7364 101.862 38.6684 101.658 38.6684C101.45 38.6684 101.282 38.7444 101.154 38.8964C101.03 39.0484 100.968 39.2604 100.968 39.5324V41.0684H100.2V39.4604C100.2 39.2044 100.15 39.0084 100.05 38.8724C99.9501 38.7364 99.7961 38.6684 99.5881 38.6684C99.3841 38.6684 99.2181 38.7444 99.0901 38.8964C98.9661 39.0484 98.9041 39.2604 98.9041 39.5324V41.0684H98.1361ZM91.3744 50.0684V45.7484H92.1424V50.0684H91.3744Z" fill="#BA0984"></path><path d="M84.8452 101.002L80.6077 96.7074L84.8452 92.4319H87.9236L83.6481 96.7074L87.9236 101.002H84.8452ZM90.5932 101.002L94.8497 96.7074L90.5932 92.4319H93.6525L97.9091 96.7074L93.6525 101.002H90.5932Z" fill="#FFE1F9"></path><rect x="108.516" y="93.2734" width="60.625" height="3.83703" rx="1.91851" fill="#FFE1F9"></rect><rect x="174.512" y="93.2734" width="15.3481" height="3.83703" rx="1.91851" fill="#FFE1F9"></rect><rect x="195.232" y="93.2734" width="15.3481" height="3.83703" rx="1.91851" fill="#FFE1F9"></rect><rect x="108.516" y="103.248" width="51.5085" height="3.83703" rx="1.91851" fill="#FF7BE5"></rect><rect x="164.588" y="103.248" width="13.0401" height="3.83703" rx="1.91851" fill="#FF7BE5"></rect><rect x="182.191" y="103.248" width="13.0401" height="3.83703" rx="1.91851" fill="#FF7BE5"></rect><rect x="108.516" y="113.992" width="36.922" height="3.83703" rx="1.91851" fill="#FFC5F3"></rect><rect x="148.707" y="113.992" width="9.34734" height="3.83703" rx="1.91851" fill="#FFC5F3"></rect><rect x="161.328" y="113.992" width="9.34734" height="3.83703" rx="1.91851" fill="#FFC5F3"></rect></svg>