<svg xmlns="http://www.w3.org/2000/svg" width="151" height="151" viewBox="0 0 151 151" fill="none"><path d="M28.9797 120.648C44.4325 120.648 56.9595 108.121 56.9595 92.6687C56.9595 77.2159 44.4325 64.689 28.9797 64.689C13.527 64.689 1 77.2159 1 92.6687C1 108.121 13.527 120.648 28.9797 120.648Z" stroke="black" stroke-width="1.16927" stroke-miterlimit="10" stroke-dasharray="2.52 2.52"></path><path d="M123.439 77.1794C136.978 77.1794 147.945 88.1559 147.945 101.685C147.945 111.788 141.83 120.464 133.096 124.22" stroke="black" stroke-width="1.16927" stroke-miterlimit="10" stroke-dasharray="2.52 2.52"></path><path d="M125.73 73.7147H23.1956V142.543H125.73V73.7147Z" fill="white" stroke="black" stroke-width="1.21527"></path><path d="M33.9779 81.2653C33.9779 82.5852 32.9103 83.643 31.6002 83.643C30.29 83.643 29.2224 82.5754 29.2224 81.2653C29.2224 79.9454 30.29 78.8875 31.6002 78.8875C32.92 78.8778 33.9779 79.9454 33.9779 81.2653Z" fill="black"></path><path d="M41.4217 81.2653C41.4217 82.5852 40.3542 83.643 39.044 83.643C37.7338 83.643 36.6663 82.5754 36.6663 81.2653C36.6663 79.9454 37.7338 78.8875 39.044 78.8875C40.3639 78.8778 41.4217 79.9454 41.4217 81.2653Z" fill="black"></path><path d="M48.8653 81.2653C48.8653 82.5852 47.7978 83.643 46.4876 83.643C45.1774 83.643 44.1099 82.5754 44.1099 81.2653C44.1099 79.9454 45.1774 78.8875 46.4876 78.8875C47.8075 78.8778 48.8653 79.9454 48.8653 81.2653Z" fill="black"></path><path d="M51.8352 88.3597H29.2126V135.895H51.8352V88.3597Z" fill="black" stroke="white" stroke-width="0.607635" stroke-miterlimit="10"></path><path d="M74.4577 88.3597H51.8352V135.895H74.4577V88.3597Z" fill="black" stroke="white" stroke-width="0.607635" stroke-miterlimit="10"></path><path d="M97.0803 88.3597H74.4578V135.895H97.0803V88.3597Z" fill="black" stroke="white" stroke-width="0.607635" stroke-miterlimit="10"></path><path d="M119.703 88.3597H97.0803V135.895H119.703V88.3597Z" fill="black" stroke="white" stroke-width="0.607635" stroke-miterlimit="10"></path><path d="M34.8902 100.928H11.4912V124.327H34.8902V100.928Z" fill="white" stroke="#070808" stroke-width="0.85065" stroke-miterlimit="10"></path><path d="M30.3045 117.108C29.7506 116.99 29.2561 116.693 28.8012 115.565L24.1925 104.192H22.2937L17.7246 115.387C17.2696 116.475 16.7553 116.97 16.0828 117.108L15.885 117.148V118.038H20.4739V117.148L20.1772 117.108C19.1685 116.97 18.8124 116.614 19.1883 115.645L19.7619 114.161H24.7661L25.3595 115.645C25.7353 116.614 25.32 116.97 24.2716 117.108L23.9749 117.148V118.038H30.5023V117.148L30.3045 117.108ZM20.2168 112.994L22.2343 107.792L24.3112 112.994H20.2168Z" fill="black"></path><path d="M34.8901 100.928H29.2126V106.605H34.8901V100.928Z" fill="white" stroke="#070808" stroke-width="0.85065" stroke-miterlimit="10"></path><path d="M137.609 64H101.312V100.297H137.609V64Z" fill="white" stroke="#070808" stroke-width="0.85065" stroke-miterlimit="10"></path><path d="M130.815 66.9601L134.493 71.0944" stroke="#070808" stroke-width="0.85065" stroke-miterlimit="10"></path><path d="M134.493 66.9601L130.815 71.0944" stroke="#070808" stroke-width="0.85065" stroke-miterlimit="10"></path><path d="M92.4025 138.972H81.397V149.987H92.4025V138.972Z" fill="white" stroke="#070808" stroke-width="0.607635" stroke-miterlimit="10"></path><path d="M103.408 138.972H92.4026V149.987H103.408V138.972Z" fill="white" stroke="#070808" stroke-width="0.607635" stroke-miterlimit="10"></path><path d="M114.423 138.972H103.418V149.987H114.423V138.972Z" fill="#070808" stroke="#070808" stroke-width="0.607635" stroke-miterlimit="10"></path><path d="M133.073 132.474L125.219 122.81L121.506 125.828L129.359 135.492L133.073 132.474Z" fill="#070808" stroke="#070808" stroke-width="0.607635" stroke-miterlimit="10"></path><path d="M134.785 126.316L130.961 129.422L127.768 125.491L131.592 122.386C132.679 121.503 134.27 121.668 135.153 122.755C136.027 123.842 135.862 125.433 134.785 126.316Z" fill="#070808" stroke="#070808" stroke-width="0.607635" stroke-miterlimit="10"></path><path d="M111.58 138.642L123.827 128.684L127.02 132.615L114.782 142.572C113.695 143.455 112.104 143.29 111.221 142.203C110.337 141.117 110.502 139.525 111.58 138.642Z" fill="white" stroke="#070808" stroke-width="0.607635" stroke-miterlimit="10"></path><path d="M126.409 94.3769H112.502C110.716 94.3769 109.27 92.9309 109.27 91.1451C109.27 89.3594 110.716 87.9133 112.502 87.9133H126.409C128.195 87.9133 129.641 89.3594 129.641 91.1451C129.641 92.9309 128.195 94.3769 126.409 94.3769Z" fill="black"></path></svg>