<svg xmlns="http://www.w3.org/2000/svg" width="305" height="192" viewBox="0 0 305 192" fill="none"><rect y="0.4375" width="305" height="191" rx="4" fill="#F6F6F6"></rect><rect x="21" y="17.4375" width="127.94" height="54.1585" fill="white"></rect><rect x="21" y="71.5957" width="127.94" height="20.4075" fill="#BA0984"></rect><rect x="155.219" y="71.5957" width="127.94" height="20.4075" fill="#BA0984"></rect><rect x="21" y="99.8516" width="127.94" height="54.1585" fill="white"></rect><rect x="155.219" y="99.8516" width="127.94" height="54.1585" fill="white"></rect><rect x="21.0332" y="150.535" width="128" height="24" fill="#BA0984"></rect><rect x="155.219" y="17.4375" width="127.94" height="54.1585" fill="white"></rect><path d="M171.061 29.927H166.523V30.2878L166.643 30.3038C166.924 30.3439 167.14 30.4241 167.14 30.7528V34.7133C167.14 35.042 166.924 35.1222 166.643 35.1623L166.523 35.1783V35.5391H169.225V35.1783L169.08 35.1623C168.688 35.1222 168.471 35.05 168.471 34.7133V32.9816H169.089C169.57 32.9816 169.778 33.2141 169.898 33.6791H170.259V31.8511H169.898C169.778 32.3161 169.57 32.4845 169.089 32.4845H168.471V30.4241H169.409C170.211 30.4241 170.435 30.7127 170.66 31.4182H171.061V29.927ZM176.519 35.1623C176.295 35.1141 176.094 34.9939 175.91 34.5369L174.042 29.927H173.272L171.42 34.4648C171.236 34.9057 171.028 35.1061 170.755 35.1623L170.675 35.1783V35.5391H172.535V35.1783L172.414 35.1623C172.006 35.1061 171.861 34.9618 172.014 34.569L172.246 33.9677H174.274L174.515 34.569C174.667 34.9618 174.499 35.1061 174.074 35.1623L173.954 35.1783V35.5391H176.599V35.1783L176.519 35.1623ZM172.431 33.4947L173.248 31.3861L174.09 33.4947H172.431ZM181.972 36.1644C181.555 36.1644 181.218 35.996 180.729 35.6433L180.513 35.4829C181.587 35.0821 182.357 34.0639 182.357 32.717C182.357 30.9692 181.05 29.7987 179.463 29.7987C177.859 29.7987 176.552 30.9933 176.552 32.7491C176.552 34.2884 177.563 35.3787 178.893 35.6192L179.551 36.1484C180.056 36.5573 180.561 36.8218 181.218 36.8218C181.724 36.8218 182.164 36.6134 182.437 36.421V36.1003C182.269 36.1484 182.116 36.1644 181.972 36.1644ZM179.407 30.2797C180.345 30.2797 180.898 31.4583 180.898 32.8934C180.898 34.2483 180.32 35.1863 179.519 35.1863C178.581 35.1863 178.012 33.9998 178.012 32.5727C178.012 31.2097 178.597 30.2797 179.407 30.2797ZM184.553 35.6513C185.539 35.6513 186.244 35.1141 186.26 34.2884C186.277 33.6069 185.86 33.3343 184.994 33.0056L184.697 32.8934C184.2 32.701 184.04 32.5566 184.04 32.3001C184.04 32.0516 184.24 31.8511 184.593 31.8511C185.154 31.8511 185.443 32.26 185.595 32.7651H185.988L186.02 31.6507C185.731 31.5385 185.226 31.4182 184.681 31.4182C183.679 31.4182 182.989 31.9794 182.989 32.717C182.989 33.3904 183.406 33.671 184.128 33.9436L184.416 34.0559C184.938 34.2563 185.218 34.3685 185.218 34.6973C185.218 35.026 184.97 35.2184 184.593 35.2184C183.951 35.2184 183.591 34.6652 183.43 34.0719H183.03L182.997 35.3386C183.35 35.491 183.879 35.6513 184.553 35.6513Z" fill="white"></path><path d="M168.926 84.6624C168.398 84.6624 167.936 84.5424 167.542 84.3024C167.147 84.0624 166.84 83.7264 166.622 83.2944C166.403 82.8624 166.294 82.3584 166.294 81.7824C166.294 81.2117 166.406 80.7077 166.63 80.2704C166.854 79.8331 167.171 79.4917 167.582 79.2464C167.998 78.9957 168.488 78.8704 169.054 78.8704C169.694 78.8704 170.227 79.0251 170.654 79.3344C171.08 79.6437 171.358 80.0704 171.486 80.6144H170.526C170.44 80.3157 170.272 80.0811 170.022 79.9104C169.771 79.7397 169.448 79.6544 169.054 79.6544C168.467 79.6544 168.006 79.8437 167.67 80.2224C167.334 80.6011 167.166 81.1237 167.166 81.7904C167.166 82.4571 167.331 82.9771 167.662 83.3504C167.992 83.7237 168.432 83.9104 168.982 83.9104C169.536 83.9104 169.952 83.7531 170.23 83.4384C170.512 83.1237 170.678 82.7051 170.726 82.1824H169.206V81.5264H171.582V84.5664H170.806L170.734 83.7424C170.547 84.0357 170.312 84.2624 170.03 84.4224C169.747 84.5824 169.379 84.6624 168.926 84.6624ZM174.435 84.6624C174.046 84.6624 173.699 84.5771 173.395 84.4064C173.096 84.2304 172.862 83.9877 172.691 83.6784C172.52 83.3691 172.435 83.0091 172.435 82.5984C172.435 82.1824 172.518 81.8171 172.683 81.5024C172.854 81.1877 173.088 80.9424 173.387 80.7664C173.691 80.5904 174.043 80.5024 174.443 80.5024C174.832 80.5024 175.171 80.5904 175.459 80.7664C175.747 80.9371 175.971 81.1664 176.131 81.4544C176.291 81.7424 176.371 82.0597 176.371 82.4064C176.371 82.4597 176.368 82.5184 176.363 82.5824C176.363 82.6411 176.36 82.7077 176.355 82.7824H173.267C173.294 83.1664 173.419 83.4597 173.643 83.6624C173.872 83.8597 174.136 83.9584 174.435 83.9584C174.675 83.9584 174.875 83.9051 175.035 83.7984C175.2 83.6864 175.323 83.5371 175.403 83.3504H176.251C176.144 83.7237 175.931 84.0357 175.611 84.2864C175.296 84.5371 174.904 84.6624 174.435 84.6624ZM174.435 81.1984C174.152 81.1984 173.902 81.2837 173.683 81.4544C173.464 81.6197 173.331 81.8704 173.283 82.2064H175.523C175.507 81.8971 175.398 81.6517 175.195 81.4704C174.992 81.2891 174.739 81.1984 174.435 81.1984ZM178.813 84.5664C178.424 84.5664 178.115 84.4731 177.885 84.2864C177.656 84.0944 177.541 83.7557 177.541 83.2704V81.3104H176.861V80.5984H177.541L177.645 79.5904H178.389V80.5984H179.509V81.3104H178.389V83.2704C178.389 83.4891 178.435 83.6411 178.525 83.7264C178.621 83.8064 178.784 83.8464 179.013 83.8464H179.469V84.5664H178.813ZM182.071 84.5664L184.135 78.9664H185.063L187.111 84.5664H186.215L185.735 83.1984H183.447L182.967 84.5664H182.071ZM183.687 82.5264H185.495L184.591 79.9744L183.687 82.5264ZM187.86 84.5664V80.5984H188.612L188.676 81.2944C188.799 81.0491 188.978 80.8571 189.212 80.7184C189.452 80.5744 189.727 80.5024 190.036 80.5024C190.516 80.5024 190.892 80.6517 191.164 80.9504C191.442 81.2491 191.58 81.6944 191.58 82.2864V84.5664H190.74V82.3744C190.74 81.6064 190.426 81.2224 189.796 81.2224C189.482 81.2224 189.22 81.3344 189.012 81.5584C188.81 81.7824 188.708 82.1024 188.708 82.5184V84.5664H187.86ZM194.163 84.6624C193.662 84.6624 193.248 84.5397 192.923 84.2944C192.598 84.0491 192.411 83.7237 192.363 83.3184H193.219C193.262 83.4997 193.363 83.6571 193.523 83.7904C193.683 83.9184 193.894 83.9824 194.155 83.9824C194.411 83.9824 194.598 83.9291 194.715 83.8224C194.832 83.7157 194.891 83.5931 194.891 83.4544C194.891 83.2517 194.808 83.1157 194.643 83.0464C194.483 82.9717 194.259 82.9051 193.971 82.8464C193.747 82.7984 193.523 82.7344 193.299 82.6544C193.08 82.5744 192.896 82.4624 192.747 82.3184C192.603 82.1691 192.531 81.9691 192.531 81.7184C192.531 81.3717 192.664 81.0837 192.931 80.8544C193.198 80.6197 193.571 80.5024 194.051 80.5024C194.494 80.5024 194.851 80.6091 195.123 80.8224C195.4 81.0357 195.563 81.3371 195.611 81.7264H194.795C194.768 81.5557 194.688 81.4224 194.555 81.3264C194.427 81.2304 194.254 81.1824 194.035 81.1824C193.822 81.1824 193.656 81.2277 193.539 81.3184C193.422 81.4037 193.363 81.5157 193.363 81.6544C193.363 81.7931 193.443 81.9024 193.603 81.9824C193.768 82.0624 193.984 82.1344 194.251 82.1984C194.518 82.2571 194.763 82.3264 194.987 82.4064C195.216 82.4811 195.4 82.5931 195.539 82.7424C195.678 82.8917 195.747 83.1104 195.747 83.3984C195.752 83.7611 195.611 84.0624 195.323 84.3024C195.04 84.5424 194.654 84.6624 194.163 84.6624ZM197.332 84.5664L196.164 80.5984H197.012L197.78 83.5904L198.644 80.5984H199.588L200.452 83.5904L201.22 80.5984H202.068L200.9 84.5664H200.028L199.116 81.4464L198.204 84.5664H197.332ZM204.474 84.6624C204.085 84.6624 203.738 84.5771 203.434 84.4064C203.135 84.2304 202.901 83.9877 202.73 83.6784C202.559 83.3691 202.474 83.0091 202.474 82.5984C202.474 82.1824 202.557 81.8171 202.722 81.5024C202.893 81.1877 203.127 80.9424 203.426 80.7664C203.73 80.5904 204.082 80.5024 204.482 80.5024C204.871 80.5024 205.21 80.5904 205.498 80.7664C205.786 80.9371 206.01 81.1664 206.17 81.4544C206.33 81.7424 206.41 82.0597 206.41 82.4064C206.41 82.4597 206.407 82.5184 206.402 82.5824C206.402 82.6411 206.399 82.7077 206.394 82.7824H203.306C203.333 83.1664 203.458 83.4597 203.682 83.6624C203.911 83.8597 204.175 83.9584 204.474 83.9584C204.714 83.9584 204.914 83.9051 205.074 83.7984C205.239 83.6864 205.362 83.5371 205.442 83.3504H206.29C206.183 83.7237 205.97 84.0357 205.65 84.2864C205.335 84.5371 204.943 84.6624 204.474 84.6624ZM204.474 81.1984C204.191 81.1984 203.941 81.2837 203.722 81.4544C203.503 81.6197 203.37 81.8704 203.322 82.2064H205.562C205.546 81.8971 205.437 81.6517 205.234 81.4704C205.031 81.2891 204.778 81.1984 204.474 81.1984ZM207.29 84.5664V80.5984H208.05L208.122 81.3504C208.261 81.0891 208.453 80.8837 208.698 80.7344C208.949 80.5797 209.25 80.5024 209.602 80.5024V81.3904H209.37C209.135 81.3904 208.925 81.4304 208.738 81.5104C208.557 81.5851 208.41 81.7157 208.298 81.9024C208.191 82.0837 208.138 82.3371 208.138 82.6624V84.5664H207.29ZM211.913 84.6624C211.412 84.6624 210.998 84.5397 210.673 84.2944C210.348 84.0491 210.161 83.7237 210.113 83.3184H210.969C211.012 83.4997 211.113 83.6571 211.273 83.7904C211.433 83.9184 211.644 83.9824 211.905 83.9824C212.161 83.9824 212.348 83.9291 212.465 83.8224C212.582 83.7157 212.641 83.5931 212.641 83.4544C212.641 83.2517 212.558 83.1157 212.393 83.0464C212.233 82.9717 212.009 82.9051 211.721 82.8464C211.497 82.7984 211.273 82.7344 211.049 82.6544C210.83 82.5744 210.646 82.4624 210.497 82.3184C210.353 82.1691 210.281 81.9691 210.281 81.7184C210.281 81.3717 210.414 81.0837 210.681 80.8544C210.948 80.6197 211.321 80.5024 211.801 80.5024C212.244 80.5024 212.601 80.6091 212.873 80.8224C213.15 81.0357 213.313 81.3371 213.361 81.7264H212.545C212.518 81.5557 212.438 81.4224 212.305 81.3264C212.177 81.2304 212.004 81.1824 211.785 81.1824C211.572 81.1824 211.406 81.2277 211.289 81.3184C211.172 81.4037 211.113 81.5157 211.113 81.6544C211.113 81.7931 211.193 81.9024 211.353 81.9824C211.518 82.0624 211.734 82.1344 212.001 82.1984C212.268 82.2571 212.513 82.3264 212.737 82.4064C212.966 82.4811 213.15 82.5931 213.289 82.7424C213.428 82.8917 213.497 83.1104 213.497 83.3984C213.502 83.7611 213.361 84.0624 213.073 84.3024C212.79 84.5424 212.404 84.6624 211.913 84.6624Z" fill="white"></path><path d="M35.4848 115.203H37.9782V115.564L37.874 115.58C37.6067 115.617 37.4731 115.767 37.4731 116.029V117.536C36.8745 117.9 36.1717 118.081 35.3646 118.081C34.4987 118.081 33.7852 117.811 33.224 117.272C32.6681 116.732 32.3902 116.029 32.3902 115.163C32.3902 114.297 32.6815 113.589 33.2641 113.039C33.8467 112.488 34.5789 112.213 35.4608 112.213C36.1129 112.213 36.7302 112.333 37.3128 112.574V114.057H36.8959C36.7409 113.565 36.5458 113.215 36.3106 113.006C36.0754 112.798 35.7842 112.694 35.4367 112.694C34.961 112.694 34.5762 112.905 34.2823 113.327C33.9936 113.749 33.8493 114.303 33.8493 114.987C33.8493 115.746 34.0017 116.371 34.3063 116.863C34.611 117.355 35.0172 117.6 35.5249 117.6C35.7441 117.6 35.9498 117.558 36.1423 117.472V116.029C36.1423 115.874 36.1022 115.77 36.022 115.716C35.9472 115.658 35.8055 115.612 35.5971 115.58L35.4848 115.564V115.203ZM41.8584 116.518L42.1229 116.654C41.9626 117.125 41.7247 117.477 41.4094 117.713C41.0941 117.948 40.7226 118.065 40.295 118.065C39.7178 118.065 39.2474 117.881 38.884 117.512C38.5259 117.143 38.3468 116.657 38.3468 116.053C38.3468 115.401 38.5419 114.869 38.9321 114.458C39.3222 114.041 39.7899 113.832 40.3351 113.832C40.8856 113.832 41.3132 113.998 41.6179 114.329C41.9225 114.661 42.0748 115.056 42.0748 115.516C42.0748 115.639 42.0722 115.722 42.0668 115.764H39.5334C39.5547 116.235 39.683 116.58 39.9182 116.799C40.1534 117.018 40.4447 117.127 40.7921 117.127C41.2143 117.127 41.5697 116.924 41.8584 116.518ZM40.2549 114.257C40.0572 114.257 39.8941 114.351 39.7659 114.538C39.6429 114.725 39.5681 114.992 39.5414 115.34H40.8963C40.8749 115.008 40.8081 114.746 40.6959 114.554C40.589 114.356 40.442 114.257 40.2549 114.257ZM44.1552 118.057C43.7864 118.057 43.4951 117.966 43.2813 117.785C43.0729 117.598 42.9686 117.325 42.9686 116.967V114.506H42.4315V114.105C42.9499 113.961 43.3481 113.57 43.626 112.934H44.2354V113.944H45.3177L45.1734 114.506H44.2354V116.807C44.2354 117.191 44.4331 117.384 44.8286 117.384C45.005 117.384 45.1734 117.352 45.3337 117.288V117.673C45.0237 117.929 44.6309 118.057 44.1552 118.057ZM49.6651 118.081C49.2749 118.081 48.8954 118.033 48.5267 117.937C48.1579 117.836 47.8692 117.723 47.6608 117.6L47.7089 115.917H48.1258C48.3556 117.039 48.8901 117.6 49.7292 117.6C50.0232 117.6 50.2584 117.52 50.4348 117.36C50.6111 117.2 50.6993 116.988 50.6993 116.726C50.6993 116.588 50.6726 116.467 50.6192 116.366C50.5657 116.259 50.4775 116.165 50.3546 116.085C50.2317 116 50.1167 115.933 50.0098 115.885C49.9029 115.831 49.7453 115.764 49.5368 115.684L49.144 115.532C48.6202 115.329 48.2434 115.107 48.0136 114.866C47.7837 114.626 47.6688 114.311 47.6688 113.92C47.6688 113.429 47.8666 113.023 48.2621 112.702C48.6629 112.376 49.16 112.213 49.7533 112.213C50.3519 112.213 50.9078 112.32 51.4209 112.533L51.3888 114.009H50.9799C50.7715 113.132 50.3332 112.694 49.6651 112.694C49.3979 112.694 49.1841 112.763 49.0237 112.902C48.8634 113.041 48.7832 113.22 48.7832 113.439C48.7832 113.664 48.8634 113.843 49.0237 113.977C49.1894 114.105 49.47 114.241 49.8655 114.385L50.2744 114.538C50.8303 114.741 51.2258 114.973 51.461 115.235C51.7015 115.492 51.8217 115.823 51.8217 116.229C51.8217 116.769 51.6213 117.213 51.2205 117.56C50.8249 117.908 50.3065 118.081 49.6651 118.081ZM53.8323 118.057C53.4635 118.057 53.1722 117.966 52.9584 117.785C52.7499 117.598 52.6457 117.325 52.6457 116.967V114.506H52.1086V114.105C52.627 113.961 53.0252 113.57 53.3031 112.934H53.9124V113.944H54.9948L54.8505 114.506H53.9124V116.807C53.9124 117.191 54.1102 117.384 54.5057 117.384C54.6821 117.384 54.8505 117.352 55.0108 117.288V117.673C54.7008 117.929 54.3079 118.057 53.8323 118.057ZM59.2256 117.448C59.2791 117.448 59.3379 117.437 59.402 117.416V117.665C59.1829 117.916 58.8568 118.041 58.4239 118.041C57.991 118.041 57.7317 117.868 57.6462 117.52C57.379 117.873 57.0102 118.049 56.5398 118.049C56.1871 118.049 55.8958 117.945 55.666 117.737C55.4415 117.523 55.3292 117.261 55.3292 116.951C55.3292 116.673 55.4147 116.457 55.5858 116.302C55.7622 116.141 56.0294 116.01 56.3875 115.909L57.6222 115.556V115.003C57.6222 114.736 57.5741 114.54 57.4779 114.418C57.3816 114.289 57.2641 114.225 57.1251 114.225C57.0022 114.225 56.914 114.268 56.8605 114.353C56.8071 114.434 56.7456 114.586 56.6761 114.81C56.628 114.971 56.5612 115.083 56.4757 115.147C56.3955 115.206 56.2833 115.235 56.139 115.235C55.9733 115.235 55.8236 115.195 55.69 115.115C55.5617 115.03 55.4735 114.941 55.4254 114.85C55.5003 114.589 55.6847 114.353 55.9786 114.145C56.2726 113.936 56.6788 113.832 57.1972 113.832C57.7798 113.832 58.2047 113.953 58.472 114.193C58.7392 114.428 58.8729 114.736 58.8729 115.115V117.087C58.8729 117.328 58.9904 117.448 59.2256 117.448ZM57.1652 117.392C57.3469 117.392 57.4992 117.33 57.6222 117.208V115.965L57.0129 116.165C56.8472 116.219 56.7296 116.286 56.6601 116.366C56.596 116.446 56.5639 116.561 56.5639 116.71C56.5639 116.914 56.62 117.079 56.7322 117.208C56.8498 117.33 56.9941 117.392 57.1652 117.392ZM62.5201 113.856C62.6965 113.856 62.8541 113.904 62.9931 114.001C63.1374 114.097 63.2443 114.196 63.3138 114.297C63.2764 114.463 63.1882 114.631 63.0492 114.802C62.9103 114.968 62.7579 115.051 62.5922 115.051C62.4853 115.051 62.3597 115.013 62.2154 114.939C62.0765 114.864 61.9615 114.826 61.8707 114.826C61.6943 114.826 61.55 114.952 61.4377 115.203V117.127C61.4377 117.288 61.4752 117.4 61.55 117.464C61.6302 117.523 61.7825 117.566 62.007 117.592L62.1513 117.608V117.953H59.674V117.608L59.7782 117.592C59.9225 117.571 60.024 117.528 60.0828 117.464C60.1416 117.4 60.171 117.288 60.171 117.127V115.035C60.171 114.88 60.1363 114.77 60.0668 114.706C60.0027 114.642 59.8717 114.581 59.674 114.522V114.217L61.3255 113.856H61.3977V114.875C61.4992 114.607 61.6435 114.372 61.8306 114.169C62.023 113.961 62.2528 113.856 62.5201 113.856ZM65.2318 118.057C64.863 118.057 64.5717 117.966 64.3579 117.785C64.1495 117.598 64.0452 117.325 64.0452 116.967V114.506H63.5081V114.105C64.0265 113.961 64.4247 113.57 64.7026 112.934H65.312V113.944H66.3943L66.25 114.506H65.312V116.807C65.312 117.191 65.5097 117.384 65.9052 117.384C66.0816 117.384 66.25 117.352 66.4103 117.288V117.673C66.1003 117.929 65.7075 118.057 65.2318 118.057ZM70.1223 116.518L70.3869 116.654C70.2265 117.125 69.9887 117.477 69.6733 117.713C69.358 117.948 68.9865 118.065 68.5589 118.065C67.9817 118.065 67.5114 117.881 67.1479 117.512C66.7898 117.143 66.6108 116.657 66.6108 116.053C66.6108 115.401 66.8058 114.869 67.196 114.458C67.5862 114.041 68.0539 113.832 68.599 113.832C69.1496 113.832 69.5771 113.998 69.8818 114.329C70.1864 114.661 70.3388 115.056 70.3388 115.516C70.3388 115.639 70.3361 115.722 70.3308 115.764H67.7973C67.8187 116.235 67.947 116.58 68.1821 116.799C68.4173 117.018 68.7086 117.127 69.056 117.127C69.4783 117.127 69.8337 116.924 70.1223 116.518ZM68.5189 114.257C68.3211 114.257 68.1581 114.351 68.0298 114.538C67.9069 114.725 67.8321 114.992 67.8053 115.34H69.1602C69.1389 115.008 69.0721 114.746 68.9598 114.554C68.8529 114.356 68.7059 114.257 68.5189 114.257ZM74.8881 116.935C74.8881 117.095 74.9228 117.213 74.9923 117.288C75.0671 117.363 75.2007 117.416 75.3932 117.448V117.753L73.934 118.025C73.8057 117.897 73.7149 117.707 73.6614 117.456C73.5492 117.616 73.3888 117.755 73.1804 117.873C72.9773 117.991 72.7368 118.049 72.4588 118.049C71.9778 118.049 71.585 117.87 71.2803 117.512C70.9756 117.149 70.8233 116.665 70.8233 116.061C70.8233 115.404 71.0238 114.872 71.4246 114.466C71.8255 114.054 72.3706 113.848 73.0601 113.848C73.2472 113.848 73.4343 113.87 73.6213 113.912V113.191C73.6213 113.036 73.5866 112.926 73.5171 112.862C73.453 112.798 73.322 112.739 73.1243 112.686V112.381L74.8159 112.02H74.8881V116.935ZM73.0842 117.368C73.2926 117.368 73.4717 117.306 73.6213 117.183V117.071V114.594C73.4824 114.385 73.29 114.281 73.0441 114.281C72.4669 114.281 72.1782 114.813 72.1782 115.877C72.1782 116.368 72.2584 116.74 72.4188 116.991C72.5844 117.242 72.8063 117.368 73.0842 117.368Z" fill="black"></path><path d="M32.359 164.98V159.38H33.207V164.308H35.751V164.98H32.359ZM38.3158 165.076C37.9265 165.076 37.5798 164.991 37.2758 164.82C36.9772 164.644 36.7425 164.402 36.5718 164.092C36.4012 163.783 36.3158 163.423 36.3158 163.012C36.3158 162.596 36.3985 162.231 36.5638 161.916C36.7345 161.602 36.9692 161.356 37.2678 161.18C37.5718 161.004 37.9238 160.916 38.3238 160.916C38.7132 160.916 39.0518 161.004 39.3398 161.18C39.6278 161.351 39.8518 161.58 40.0118 161.868C40.1718 162.156 40.2518 162.474 40.2518 162.82C40.2518 162.874 40.2492 162.932 40.2438 162.996C40.2438 163.055 40.2412 163.122 40.2358 163.196H37.1478C37.1745 163.58 37.2998 163.874 37.5238 164.076C37.7532 164.274 38.0172 164.372 38.3158 164.372C38.5558 164.372 38.7558 164.319 38.9158 164.212C39.0812 164.1 39.2038 163.951 39.2838 163.764H40.1318C40.0252 164.138 39.8118 164.45 39.4918 164.7C39.1772 164.951 38.7852 165.076 38.3158 165.076ZM38.3158 161.612C38.0332 161.612 37.7825 161.698 37.5638 161.868C37.3452 162.034 37.2118 162.284 37.1638 162.62H39.4038C39.3878 162.311 39.2785 162.066 39.0758 161.884C38.8732 161.703 38.6198 161.612 38.3158 161.612ZM42.4757 165.076C42.1397 165.076 41.8624 165.02 41.6437 164.908C41.425 164.796 41.2624 164.65 41.1557 164.468C41.049 164.282 40.9957 164.079 40.9957 163.86C40.9957 163.476 41.145 163.172 41.4437 162.948C41.7424 162.724 42.169 162.612 42.7237 162.612H43.7637V162.54C43.7637 162.231 43.6784 161.999 43.5077 161.844C43.3424 161.69 43.1264 161.612 42.8597 161.612C42.625 161.612 42.4197 161.671 42.2437 161.788C42.073 161.9 41.969 162.068 41.9317 162.292H41.0837C41.1104 162.004 41.2064 161.759 41.3717 161.556C41.5424 161.348 41.7557 161.191 42.0117 161.084C42.273 160.972 42.5584 160.916 42.8677 160.916C43.4224 160.916 43.8517 161.063 44.1557 161.356C44.4597 161.644 44.6117 162.039 44.6117 162.54V164.98H43.8757L43.8037 164.3C43.6917 164.519 43.529 164.703 43.3157 164.852C43.1024 165.002 42.8224 165.076 42.4757 165.076ZM42.6437 164.388C42.873 164.388 43.065 164.335 43.2197 164.228C43.3797 164.116 43.5024 163.97 43.5877 163.788C43.6784 163.607 43.7344 163.407 43.7557 163.188H42.8117C42.4757 163.188 42.2357 163.247 42.0917 163.364C41.953 163.482 41.8837 163.628 41.8837 163.804C41.8837 163.986 41.9504 164.13 42.0837 164.236C42.2224 164.338 42.409 164.388 42.6437 164.388ZM45.6005 164.98V161.012H46.3605L46.4325 161.764C46.5711 161.503 46.7631 161.298 47.0085 161.148C47.2591 160.994 47.5605 160.916 47.9125 160.916V161.804H47.6805C47.4458 161.804 47.2351 161.844 47.0485 161.924C46.8671 161.999 46.7205 162.13 46.6085 162.316C46.5018 162.498 46.4485 162.751 46.4485 163.076V164.98H45.6005ZM48.6395 164.98V161.012H49.3915L49.4555 161.708C49.5782 161.463 49.7568 161.271 49.9915 161.132C50.2315 160.988 50.5062 160.916 50.8155 160.916C51.2955 160.916 51.6715 161.066 51.9435 161.364C52.2208 161.663 52.3595 162.108 52.3595 162.7V164.98H51.5195V162.788C51.5195 162.02 51.2048 161.636 50.5755 161.636C50.2608 161.636 49.9995 161.748 49.7915 161.972C49.5888 162.196 49.4875 162.516 49.4875 162.932V164.98H48.6395ZM55.4059 164.98V159.38H56.4059L58.3019 163.108L60.1899 159.38H61.1899V164.98H60.3419V160.844L58.6299 164.18H57.9739L56.2539 160.852V164.98H55.4059ZM64.1518 165.076C63.7731 165.076 63.4318 164.991 63.1278 164.82C62.8291 164.644 62.5918 164.402 62.4158 164.092C62.2398 163.778 62.1518 163.412 62.1518 162.996C62.1518 162.58 62.2398 162.218 62.4158 161.908C62.5971 161.594 62.8398 161.351 63.1438 161.18C63.4478 161.004 63.7864 160.916 64.1598 160.916C64.5384 160.916 64.8771 161.004 65.1758 161.18C65.4798 161.351 65.7198 161.594 65.8958 161.908C66.0771 162.218 66.1678 162.58 66.1678 162.996C66.1678 163.412 66.0771 163.778 65.8958 164.092C65.7198 164.402 65.4798 164.644 65.1758 164.82C64.8718 164.991 64.5304 165.076 64.1518 165.076ZM64.1518 164.348C64.3544 164.348 64.5411 164.298 64.7118 164.196C64.8878 164.095 65.0291 163.946 65.1358 163.748C65.2424 163.546 65.2958 163.295 65.2958 162.996C65.2958 162.698 65.2424 162.45 65.1358 162.252C65.0344 162.05 64.8958 161.898 64.7198 161.796C64.5491 161.695 64.3624 161.644 64.1598 161.644C63.9571 161.644 63.7678 161.695 63.5918 161.796C63.4211 161.898 63.2824 162.05 63.1758 162.252C63.0691 162.45 63.0158 162.698 63.0158 162.996C63.0158 163.295 63.0691 163.546 63.1758 163.748C63.2824 163.946 63.4211 164.095 63.5918 164.196C63.7624 164.298 63.9491 164.348 64.1518 164.348ZM67.0848 164.98V161.012H67.8448L67.9168 161.764C68.0555 161.503 68.2475 161.298 68.4928 161.148C68.7435 160.994 69.0448 160.916 69.3968 160.916V161.804H69.1648C68.9302 161.804 68.7195 161.844 68.5328 161.924C68.3515 161.999 68.2048 162.13 68.0928 162.316C67.9862 162.498 67.9328 162.751 67.9328 163.076V164.98H67.0848ZM71.8705 165.076C71.4812 165.076 71.1345 164.991 70.8305 164.82C70.5318 164.644 70.2972 164.402 70.1265 164.092C69.9558 163.783 69.8705 163.423 69.8705 163.012C69.8705 162.596 69.9532 162.231 70.1185 161.916C70.2892 161.602 70.5238 161.356 70.8225 161.18C71.1265 161.004 71.4785 160.916 71.8785 160.916C72.2678 160.916 72.6065 161.004 72.8945 161.18C73.1825 161.351 73.4065 161.58 73.5665 161.868C73.7265 162.156 73.8065 162.474 73.8065 162.82C73.8065 162.874 73.8038 162.932 73.7985 162.996C73.7985 163.055 73.7958 163.122 73.7905 163.196H70.7025C70.7292 163.58 70.8545 163.874 71.0785 164.076C71.3078 164.274 71.5718 164.372 71.8705 164.372C72.1105 164.372 72.3105 164.319 72.4705 164.212C72.6358 164.1 72.7585 163.951 72.8385 163.764H73.6865C73.5798 164.138 73.3665 164.45 73.0465 164.7C72.7318 164.951 72.3398 165.076 71.8705 165.076ZM71.8705 161.612C71.5878 161.612 71.3372 161.698 71.1185 161.868C70.8998 162.034 70.7665 162.284 70.7185 162.62H72.9585C72.9425 162.311 72.8332 162.066 72.6305 161.884C72.4278 161.703 72.1745 161.612 71.8705 161.612Z" fill="white"></path><path d="M37.9823 35.1523L38.0865 35.1763V35.5371H35.4809V35.1763L35.5931 35.1603C35.8711 35.1229 35.9112 34.9652 35.7134 34.6873L34.4868 32.9796L34.0298 33.4125V34.7113C34.0298 34.861 34.0725 34.9679 34.1581 35.032C34.2436 35.0962 34.3665 35.1389 34.5269 35.1603L34.6551 35.1763V35.5371H32.0816V35.1763L32.2018 35.1603C32.3622 35.1389 32.4851 35.0962 32.5706 35.032C32.6562 34.9679 32.6989 34.861 32.6989 34.7113V30.7508C32.6989 30.6012 32.6562 30.4943 32.5706 30.4301C32.4851 30.366 32.3622 30.3232 32.2018 30.3018L32.0816 30.2858V29.925H34.6551V30.2858L34.5269 30.3018C34.3665 30.3232 34.2436 30.366 34.1581 30.4301C34.0725 30.4943 34.0298 30.6012 34.0298 30.7508V32.715L35.8818 30.9031C36.0581 30.7107 36.1196 30.5637 36.0662 30.4622C36.0127 30.3553 35.8737 30.2965 35.6493 30.2858V29.925H37.854V30.3179C37.3783 30.3927 36.8572 30.7027 36.2906 31.2479L35.4007 32.0977L37.1645 34.5029C37.3356 34.7274 37.4772 34.8824 37.5894 34.9679C37.707 35.0534 37.838 35.1149 37.9823 35.1523ZM43.1522 35.1763L43.2564 35.1924V35.5371H41.0277V35.1924L41.1399 35.1763C41.2682 35.1603 41.359 35.1202 41.4125 35.0561C41.4659 34.9866 41.4927 34.8717 41.4927 34.7113V32.8032C41.4927 32.3703 41.2842 32.1538 40.8673 32.1538C40.5947 32.1538 40.3649 32.2393 40.1778 32.4104V34.7113C40.1778 34.8717 40.2045 34.9866 40.258 35.0561C40.3168 35.1202 40.4103 35.1603 40.5386 35.1763L40.6589 35.1924V35.5371H38.414V35.1924L38.5183 35.1763C38.6626 35.155 38.7641 35.1122 38.8229 35.0481C38.8817 34.9839 38.9111 34.8717 38.9111 34.7113V32.6188C38.9111 32.4638 38.8764 32.3543 38.8069 32.2901C38.7427 32.226 38.6118 32.1645 38.414 32.1057V31.8011L40.0656 31.4403H40.1377V32.1618C40.2714 31.9641 40.4558 31.7904 40.6909 31.6407C40.9314 31.4911 41.204 31.4162 41.5087 31.4162C41.947 31.4162 42.265 31.5365 42.4627 31.777C42.6605 32.0175 42.7594 32.3142 42.7594 32.6669V34.7113C42.7594 34.8717 42.7888 34.9839 42.8476 35.0481C42.9064 35.1122 43.0079 35.155 43.1522 35.1763ZM45.7468 35.6494C45.1375 35.6494 44.619 35.4543 44.1915 35.0641C43.7639 34.6686 43.5501 34.1635 43.5501 33.5488C43.5501 32.9342 43.7639 32.4264 44.1915 32.0256C44.619 31.6193 45.1375 31.4162 45.7468 31.4162C46.3508 31.4162 46.8639 31.614 47.2861 32.0095C47.7137 32.3997 47.9275 32.9021 47.9275 33.5168C47.9275 34.1314 47.7137 34.6418 47.2861 35.0481C46.8585 35.4489 46.3454 35.6494 45.7468 35.6494ZM45.7949 35.2164C46.0408 35.2164 46.2278 35.0748 46.3561 34.7915C46.4897 34.5029 46.5565 34.1287 46.5565 33.6691C46.5565 33.1506 46.4764 32.7177 46.316 32.3703C46.161 32.0229 45.9553 31.8492 45.6987 31.8492C45.4528 31.8492 45.2604 31.9935 45.1215 32.2821C44.9878 32.5654 44.921 32.9368 44.921 33.3965C44.921 33.8829 44.9985 34.3078 45.1535 34.6712C45.3139 35.0347 45.5277 35.2164 45.7949 35.2164ZM53.356 31.5285H54.9194V31.8812C54.7644 31.924 54.6361 32.0068 54.5345 32.1298C54.433 32.2474 54.3181 32.4612 54.1898 32.7712L53.0193 35.5531H52.3298L51.48 33.3404L50.5179 35.5531H49.8364L48.6579 32.7712C48.5029 32.4024 48.388 32.1672 48.3131 32.0656C48.2437 31.9587 48.1448 31.8973 48.0165 31.8812V31.5285H50.2533V31.8812L50.1411 31.8973C49.7937 31.9454 49.7081 32.1886 49.8845 32.6268L50.5419 34.2784L51.2154 32.6669C51.0978 32.3569 50.9989 32.1538 50.9187 32.0576C50.8439 31.9561 50.7584 31.8973 50.6622 31.8812V31.5285H52.8188V31.8812L52.7066 31.8973C52.5249 31.924 52.41 31.9908 52.3619 32.0977C52.3191 32.2046 52.3431 32.381 52.434 32.6268L53.0433 34.2624L53.6767 32.675C53.7782 32.4077 53.813 32.218 53.7809 32.1057C53.7488 31.9935 53.6446 31.924 53.4682 31.8973L53.356 31.8812V31.5285ZM55.0426 35.5371V35.1924L55.1468 35.1763C55.2912 35.155 55.3927 35.1122 55.4515 35.0481C55.5103 34.9839 55.5397 34.8717 55.5397 34.7113V30.7749C55.5397 30.6199 55.5049 30.5103 55.4355 30.4462C55.3713 30.382 55.2404 30.3232 55.0426 30.2698V29.9651L56.7343 29.6043H56.8064V34.7113C56.8064 34.8717 56.8358 34.9839 56.8946 35.0481C56.9534 35.1122 57.055 35.155 57.1993 35.1763L57.3115 35.1924V35.5371H55.0426ZM61.131 34.102L61.3955 34.2383C61.2352 34.7087 60.9974 35.0614 60.682 35.2966C60.3667 35.5318 59.9952 35.6494 59.5676 35.6494C58.9904 35.6494 58.52 35.465 58.1566 35.0962C57.7985 34.7274 57.6194 34.241 57.6194 33.637C57.6194 32.985 57.8145 32.4531 58.2047 32.0416C58.5948 31.6247 59.0625 31.4162 59.6077 31.4162C60.1582 31.4162 60.5858 31.5819 60.8905 31.9133C61.1951 32.2447 61.3474 32.6402 61.3474 33.0999C61.3474 33.2228 61.3448 33.3056 61.3394 33.3484H58.806C58.8273 33.8187 58.9556 34.1635 59.1908 34.3826C59.426 34.6018 59.7173 34.7113 60.0647 34.7113C60.4869 34.7113 60.8423 34.5082 61.131 34.102ZM59.5275 31.8412C59.3298 31.8412 59.1667 31.9347 59.0385 32.1218C58.9155 32.3088 58.8407 32.5761 58.814 32.9235H60.1689C60.1475 32.5921 60.0807 32.3302 59.9685 32.1378C59.8616 31.94 59.7146 31.8412 59.5275 31.8412ZM65.8967 34.5189C65.8967 34.6793 65.9315 34.7968 66.001 34.8717C66.0758 34.9465 66.2094 35 66.4018 35.032V35.3367L64.9427 35.6093C64.8144 35.481 64.7235 35.2912 64.6701 35.04C64.5578 35.2004 64.3975 35.3394 64.1891 35.4569C63.9859 35.5745 63.7454 35.6333 63.4675 35.6333C62.9865 35.6333 62.5936 35.4543 62.289 35.0962C61.9843 34.7327 61.832 34.249 61.832 33.645C61.832 32.9876 62.0324 32.4558 62.4333 32.0496C62.8341 31.6381 63.3793 31.4323 64.0688 31.4323C64.2559 31.4323 64.4429 31.4537 64.63 31.4964V30.7749C64.63 30.6199 64.5953 30.5103 64.5258 30.4462C64.4616 30.382 64.3307 30.3232 64.1329 30.2698V29.9651L65.8246 29.6043H65.8967V34.5189ZM64.0928 34.9518C64.3013 34.9518 64.4803 34.8904 64.63 34.7675V34.6552V32.1779C64.491 31.9694 64.2986 31.8652 64.0528 31.8652C63.4755 31.8652 63.1869 32.397 63.1869 33.4606C63.1869 33.9524 63.2671 34.3238 63.4274 34.575C63.5931 34.8262 63.8149 34.9518 64.0928 34.9518ZM70.9249 31.6087L70.7805 32.1699H70.075C70.2674 32.3623 70.3637 32.5894 70.3637 32.8513C70.3637 33.2362 70.1899 33.5622 69.8425 33.8294C69.5005 34.0913 69.0809 34.2223 68.5838 34.2223C68.3433 34.2223 68.1242 34.1902 67.9264 34.1261C67.8302 34.2116 67.7821 34.2971 67.7821 34.3826C67.7821 34.5056 67.8516 34.5911 67.9905 34.6392C68.1349 34.6819 68.3567 34.7033 68.656 34.7033H69.129C70.23 34.7033 70.7805 35.0267 70.7805 35.6734C70.7805 36.1277 70.548 36.5125 70.083 36.8279C69.6234 37.1486 69.0355 37.3089 68.3193 37.3089C67.8115 37.3089 67.3999 37.2261 67.0846 37.0604C66.7693 36.9 66.6116 36.6836 66.6116 36.411C66.6116 36.2239 66.6864 36.0636 66.8361 35.93C66.9857 35.8017 67.1808 35.7108 67.4213 35.6574C67.0311 35.5184 66.8361 35.2806 66.8361 34.9438C66.8361 34.5323 67.1113 34.2276 67.6618 34.0299C67.3999 33.9069 67.1915 33.7412 67.0365 33.5328C66.8868 33.319 66.812 33.0812 66.812 32.8193C66.812 32.4184 66.983 32.0843 67.3251 31.8171C67.6672 31.5499 68.0787 31.4162 68.5598 31.4162C68.8911 31.4162 69.2118 31.4804 69.5218 31.6087H70.9249ZM68.6239 33.8134C68.7843 33.8134 68.9125 33.7279 69.0087 33.5568C69.1049 33.3805 69.153 33.1533 69.153 32.8754C69.153 32.5707 69.0969 32.3195 68.9847 32.1218C68.8724 31.924 68.7281 31.8251 68.5518 31.8251C68.3861 31.8251 68.2551 31.9133 68.1589 32.0897C68.068 32.2607 68.0226 32.4825 68.0226 32.7551C68.0226 33.0598 68.0787 33.3137 68.191 33.5168C68.3032 33.7145 68.4475 33.8134 68.6239 33.8134ZM68.4315 35.7937C68.1429 35.7937 67.9024 35.775 67.7099 35.7375C67.6298 35.8337 67.5897 35.9647 67.5897 36.1304C67.5897 36.3442 67.6859 36.5152 67.8783 36.6435C68.0761 36.7771 68.3513 36.8439 68.7041 36.8439C69.0087 36.8439 69.2519 36.7798 69.4337 36.6515C69.6154 36.5286 69.7062 36.3736 69.7062 36.1865C69.7062 35.9246 69.4818 35.7937 69.0328 35.7937H68.4315ZM74.5661 34.102L74.8307 34.2383C74.6704 34.7087 74.4325 35.0614 74.1172 35.2966C73.8018 35.5318 73.4304 35.6494 73.0028 35.6494C72.4255 35.6494 71.9552 35.465 71.5917 35.0962C71.2336 34.7274 71.0546 34.241 71.0546 33.637C71.0546 32.985 71.2497 32.4531 71.6398 32.0416C72.03 31.6247 72.4977 31.4162 73.0429 31.4162C73.5934 31.4162 74.021 31.5819 74.3256 31.9133C74.6303 32.2447 74.7826 32.6402 74.7826 33.0999C74.7826 33.2228 74.7799 33.3056 74.7746 33.3484H72.2411C72.2625 33.8187 72.3908 34.1635 72.626 34.3826C72.8611 34.6018 73.1524 34.7113 73.4998 34.7113C73.9221 34.7113 74.2775 34.5082 74.5661 34.102ZM72.9627 31.8412C72.7649 31.8412 72.6019 31.9347 72.4736 32.1218C72.3507 32.3088 72.2759 32.5761 72.2491 32.9235H73.6041C73.5827 32.5921 73.5159 32.3302 73.4036 32.1378C73.2967 31.94 73.1498 31.8412 72.9627 31.8412ZM80.5712 32.4986C80.9828 32.5306 81.3436 32.6723 81.6536 32.9235C81.9636 33.1747 82.1186 33.5221 82.1186 33.9657C82.1186 34.4842 81.9315 34.877 81.5574 35.1443C81.1886 35.4062 80.7102 35.5371 80.1223 35.5371H77.1238V35.1763L77.2441 35.1603C77.4044 35.1389 77.5274 35.0962 77.6129 35.032C77.6984 34.9679 77.7412 34.861 77.7412 34.7113V30.7508C77.7412 30.6012 77.6984 30.4943 77.6129 30.4301C77.5274 30.366 77.4044 30.3232 77.2441 30.3018L77.1238 30.2858V29.925H79.9619C80.4804 29.925 80.916 30.0319 81.2687 30.2457C81.6215 30.4595 81.7979 30.7882 81.7979 31.2318C81.7979 31.5846 81.6776 31.8679 81.4371 32.0817C81.2019 32.2901 80.9133 32.4291 80.5712 32.4986ZM79.553 30.4061H79.072V32.3382H79.6012C80.1944 32.3382 80.4911 32.0095 80.4911 31.3521C80.4911 30.7214 80.1784 30.4061 79.553 30.4061ZM79.7855 35.0561C80.443 35.0561 80.7717 34.706 80.7717 34.0058C80.7717 33.5943 80.6701 33.295 80.467 33.1079C80.2693 32.9155 80.002 32.8193 79.6653 32.8193H79.072V34.6632C79.072 34.9251 79.2377 35.0561 79.5691 35.0561H79.7855ZM86.5233 35.032C86.5767 35.032 86.6355 35.0213 86.6997 35V35.2485C86.4805 35.4997 86.1545 35.6253 85.7216 35.6253C85.2886 35.6253 85.0294 35.4516 84.9439 35.1042C84.6767 35.4569 84.3079 35.6333 83.8375 35.6333C83.4848 35.6333 83.1935 35.5291 82.9636 35.3206C82.7392 35.1069 82.6269 34.845 82.6269 34.535C82.6269 34.257 82.7124 34.0406 82.8835 33.8856C83.0598 33.7252 83.3271 33.5943 83.6852 33.4927L84.9198 33.14V32.5868C84.9198 32.3195 84.8717 32.1244 84.7755 32.0015C84.6793 31.8732 84.5617 31.8091 84.4228 31.8091C84.2998 31.8091 84.2117 31.8518 84.1582 31.9374C84.1048 32.0175 84.0433 32.1699 83.9738 32.3943C83.9257 32.5547 83.8589 32.6669 83.7734 32.7311C83.6932 32.7899 83.581 32.8193 83.4367 32.8193C83.271 32.8193 83.1213 32.7792 82.9877 32.699C82.8594 32.6135 82.7712 32.5253 82.7231 32.4344C82.7979 32.1725 82.9823 31.9374 83.2763 31.7289C83.5703 31.5205 83.9765 31.4162 84.4949 31.4162C85.0775 31.4162 85.5024 31.5365 85.7697 31.777C86.0369 32.0122 86.1705 32.3195 86.1705 32.699V34.6712C86.1705 34.9118 86.2881 35.032 86.5233 35.032ZM84.4629 34.9759C84.6446 34.9759 84.7969 34.9144 84.9198 34.7915V33.5488L84.3105 33.7493C84.1448 33.8027 84.0273 33.8695 83.9578 33.9497C83.8936 34.0299 83.8616 34.1448 83.8616 34.2944C83.8616 34.4975 83.9177 34.6632 84.0299 34.7915C84.1475 34.9144 84.2918 34.9759 84.4629 34.9759ZM88.6787 35.6494C88.1229 35.6494 87.6044 35.5451 87.1234 35.3367L87.1555 34.07H87.5563C87.6472 34.4013 87.7888 34.6766 87.9812 34.8957C88.1737 35.1095 88.4195 35.2164 88.7188 35.2164C88.9112 35.2164 89.0636 35.171 89.1758 35.0801C89.2881 34.9839 89.3442 34.8556 89.3442 34.6953C89.3442 34.5884 89.3094 34.4975 89.24 34.4227C89.1705 34.3479 89.0876 34.2891 88.9914 34.2463C88.9006 34.1982 88.7509 34.1341 88.5425 34.0539L88.2538 33.9417C87.8583 33.792 87.5697 33.629 87.388 33.4526C87.2062 33.2762 87.1154 33.0304 87.1154 32.715C87.1154 32.3409 87.2731 32.0309 87.5884 31.785C87.9037 31.5392 88.31 31.4162 88.807 31.4162C89.2987 31.4162 89.745 31.4937 90.1459 31.6487L90.1138 32.7631H89.721C89.5393 32.1538 89.2052 31.8492 88.7188 31.8492C88.5478 31.8492 88.4115 31.8919 88.31 31.9774C88.2137 32.063 88.1656 32.1699 88.1656 32.2981C88.1656 32.4264 88.2111 32.5333 88.3019 32.6188C88.3981 32.7043 88.5719 32.7952 88.8231 32.8914L89.1197 33.0037C89.5847 33.18 89.9134 33.3591 90.1058 33.5408C90.2982 33.7172 90.3918 33.9657 90.3864 34.2864C90.3811 34.698 90.2181 35.0294 89.8974 35.2806C89.582 35.5264 89.1758 35.6494 88.6787 35.6494ZM94.3352 34.102L94.5998 34.2383C94.4395 34.7087 94.2016 35.0614 93.8863 35.2966C93.5709 35.5318 93.1995 35.6494 92.7719 35.6494C92.1946 35.6494 91.7243 35.465 91.3608 35.0962C91.0027 34.7274 90.8237 34.241 90.8237 33.637C90.8237 32.985 91.0188 32.4531 91.4089 32.0416C91.7991 31.6247 92.2668 31.4162 92.812 31.4162C93.3625 31.4162 93.7901 31.5819 94.0947 31.9133C94.3994 32.2447 94.5517 32.6402 94.5517 33.0999C94.5517 33.2228 94.549 33.3056 94.5437 33.3484H92.0102C92.0316 33.8187 92.1599 34.1635 92.3951 34.3826C92.6302 34.6018 92.9215 34.7113 93.2689 34.7113C93.6912 34.7113 94.0466 34.5082 94.3352 34.102ZM92.7318 31.8412C92.534 31.8412 92.371 31.9347 92.2427 32.1218C92.1198 32.3088 92.045 32.5761 92.0182 32.9235H93.3732C93.3518 32.5921 93.285 32.3302 93.1727 32.1378C93.0658 31.94 92.9189 31.8412 92.7318 31.8412Z" fill="black"></path><path d="M32.0524 84.5664V78.9664H32.9004V83.8944H35.4444V84.5664H32.0524ZM38.0092 84.6624C37.6199 84.6624 37.2732 84.5771 36.9692 84.4064C36.6705 84.2304 36.4359 83.9877 36.2652 83.6784C36.0945 83.3691 36.0092 83.0091 36.0092 82.5984C36.0092 82.1824 36.0919 81.8171 36.2572 81.5024C36.4279 81.1877 36.6625 80.9424 36.9612 80.7664C37.2652 80.5904 37.6172 80.5024 38.0172 80.5024C38.4065 80.5024 38.7452 80.5904 39.0332 80.7664C39.3212 80.9371 39.5452 81.1664 39.7052 81.4544C39.8652 81.7424 39.9452 82.0597 39.9452 82.4064C39.9452 82.4597 39.9425 82.5184 39.9372 82.5824C39.9372 82.6411 39.9345 82.7077 39.9292 82.7824H36.8412C36.8679 83.1664 36.9932 83.4597 37.2172 83.6624C37.4465 83.8597 37.7105 83.9584 38.0092 83.9584C38.2492 83.9584 38.4492 83.9051 38.6092 83.7984C38.7745 83.6864 38.8972 83.5371 38.9772 83.3504H39.8252C39.7185 83.7237 39.5052 84.0357 39.1852 84.2864C38.8705 84.5371 38.4785 84.6624 38.0092 84.6624ZM38.0092 81.1984C37.7265 81.1984 37.4759 81.2837 37.2572 81.4544C37.0385 81.6197 36.9052 81.8704 36.8572 82.2064H39.0972C39.0812 81.8971 38.9719 81.6517 38.7692 81.4704C38.5665 81.2891 38.3132 81.1984 38.0092 81.1984ZM42.1691 84.6624C41.8331 84.6624 41.5557 84.6064 41.3371 84.4944C41.1184 84.3824 40.9557 84.2357 40.8491 84.0544C40.7424 83.8677 40.6891 83.6651 40.6891 83.4464C40.6891 83.0624 40.8384 82.7584 41.1371 82.5344C41.4357 82.3104 41.8624 82.1984 42.4171 82.1984H43.4571V82.1264C43.4571 81.8171 43.3717 81.5851 43.2011 81.4304C43.0357 81.2757 42.8197 81.1984 42.5531 81.1984C42.3184 81.1984 42.1131 81.2571 41.9371 81.3744C41.7664 81.4864 41.6624 81.6544 41.6251 81.8784H40.7771C40.8037 81.5904 40.8997 81.3451 41.0651 81.1424C41.2357 80.9344 41.4491 80.7771 41.7051 80.6704C41.9664 80.5584 42.2517 80.5024 42.5611 80.5024C43.1157 80.5024 43.5451 80.6491 43.8491 80.9424C44.1531 81.2304 44.3051 81.6251 44.3051 82.1264V84.5664H43.5691L43.4971 83.8864C43.3851 84.1051 43.2224 84.2891 43.0091 84.4384C42.7957 84.5877 42.5157 84.6624 42.1691 84.6624ZM42.3371 83.9744C42.5664 83.9744 42.7584 83.9211 42.9131 83.8144C43.0731 83.7024 43.1957 83.5557 43.2811 83.3744C43.3717 83.1931 43.4277 82.9931 43.4491 82.7744H42.5051C42.1691 82.7744 41.9291 82.8331 41.7851 82.9504C41.6464 83.0677 41.5771 83.2144 41.5771 83.3904C41.5771 83.5717 41.6437 83.7157 41.7771 83.8224C41.9157 83.9237 42.1024 83.9744 42.3371 83.9744ZM45.2938 84.5664V80.5984H46.0538L46.1258 81.3504C46.2645 81.0891 46.4565 80.8837 46.7018 80.7344C46.9525 80.5797 47.2538 80.5024 47.6058 80.5024V81.3904H47.3738C47.1391 81.3904 46.9285 81.4304 46.7418 81.5104C46.5605 81.5851 46.4138 81.7157 46.3018 81.9024C46.1951 82.0837 46.1418 82.3371 46.1418 82.6624V84.5664H45.2938ZM48.3329 84.5664V80.5984H49.0849L49.1489 81.2944C49.2715 81.0491 49.4502 80.8571 49.6849 80.7184C49.9249 80.5744 50.1995 80.5024 50.5089 80.5024C50.9889 80.5024 51.3649 80.6517 51.6369 80.9504C51.9142 81.2491 52.0529 81.6944 52.0529 82.2864V84.5664H51.2129V82.3744C51.2129 81.6064 50.8982 81.2224 50.2689 81.2224C49.9542 81.2224 49.6929 81.3344 49.4849 81.5584C49.2822 81.7824 49.1809 82.1024 49.1809 82.5184V84.5664H48.3329ZM55.0993 84.5664V78.9664H56.0993L57.9953 82.6944L59.8833 78.9664H60.8833V84.5664H60.0353V80.4304L58.3233 83.7664H57.6673L55.9473 80.4384V84.5664H55.0993ZM63.8451 84.6624C63.4665 84.6624 63.1251 84.5771 62.8211 84.4064C62.5225 84.2304 62.2851 83.9877 62.1091 83.6784C61.9331 83.3637 61.8451 82.9984 61.8451 82.5824C61.8451 82.1664 61.9331 81.8037 62.1091 81.4944C62.2905 81.1797 62.5331 80.9371 62.8371 80.7664C63.1411 80.5904 63.4798 80.5024 63.8531 80.5024C64.2318 80.5024 64.5705 80.5904 64.8691 80.7664C65.1731 80.9371 65.4131 81.1797 65.5891 81.4944C65.7705 81.8037 65.8611 82.1664 65.8611 82.5824C65.8611 82.9984 65.7705 83.3637 65.5891 83.6784C65.4131 83.9877 65.1731 84.2304 64.8691 84.4064C64.5651 84.5771 64.2238 84.6624 63.8451 84.6624ZM63.8451 83.9344C64.0478 83.9344 64.2345 83.8837 64.4051 83.7824C64.5811 83.6811 64.7225 83.5317 64.8291 83.3344C64.9358 83.1317 64.9891 82.8811 64.9891 82.5824C64.9891 82.2837 64.9358 82.0357 64.8291 81.8384C64.7278 81.6357 64.5891 81.4837 64.4131 81.3824C64.2425 81.2811 64.0558 81.2304 63.8531 81.2304C63.6505 81.2304 63.4611 81.2811 63.2851 81.3824C63.1145 81.4837 62.9758 81.6357 62.8691 81.8384C62.7625 82.0357 62.7091 82.2837 62.7091 82.5824C62.7091 82.8811 62.7625 83.1317 62.8691 83.3344C62.9758 83.5317 63.1145 83.6811 63.2851 83.7824C63.4558 83.8837 63.6425 83.9344 63.8451 83.9344ZM66.7782 84.5664V80.5984H67.5382L67.6102 81.3504C67.7489 81.0891 67.9409 80.8837 68.1862 80.7344C68.4369 80.5797 68.7382 80.5024 69.0902 80.5024V81.3904H68.8582C68.6235 81.3904 68.4129 81.4304 68.2262 81.5104C68.0449 81.5851 67.8982 81.7157 67.7862 81.9024C67.6795 82.0837 67.6262 82.3371 67.6262 82.6624V84.5664H66.7782ZM71.5639 84.6624C71.1745 84.6624 70.8279 84.5771 70.5239 84.4064C70.2252 84.2304 69.9905 83.9877 69.8199 83.6784C69.6492 83.3691 69.5639 83.0091 69.5639 82.5984C69.5639 82.1824 69.6465 81.8171 69.8119 81.5024C69.9825 81.1877 70.2172 80.9424 70.5159 80.7664C70.8199 80.5904 71.1719 80.5024 71.5719 80.5024C71.9612 80.5024 72.2999 80.5904 72.5879 80.7664C72.8759 80.9371 73.0999 81.1664 73.2599 81.4544C73.4199 81.7424 73.4999 82.0597 73.4999 82.4064C73.4999 82.4597 73.4972 82.5184 73.4919 82.5824C73.4919 82.6411 73.4892 82.7077 73.4839 82.7824H70.3959C70.4225 83.1664 70.5479 83.4597 70.7719 83.6624C71.0012 83.8597 71.2652 83.9584 71.5639 83.9584C71.8039 83.9584 72.0039 83.9051 72.1639 83.7984C72.3292 83.6864 72.4519 83.5371 72.5319 83.3504H73.3799C73.2732 83.7237 73.0599 84.0357 72.7399 84.2864C72.4252 84.5371 72.0332 84.6624 71.5639 84.6624ZM71.5639 81.1984C71.2812 81.1984 71.0305 81.2837 70.8119 81.4544C70.5932 81.6197 70.4599 81.8704 70.4119 82.2064H72.6519C72.6359 81.8971 72.5265 81.6517 72.3239 81.4704C72.1212 81.2891 71.8679 81.1984 71.5639 81.1984Z" fill="white"></path><rect x="155.033" y="150.535" width="128" height="24" fill="#BA0984"></rect><path d="M169.133 112.341V112.702L169.245 112.718C169.646 112.774 169.83 112.902 169.67 113.319L168.467 116.398L167.249 113.319C167.096 112.926 167.289 112.782 167.722 112.718L167.834 112.702V112.341H165.164V112.702L165.236 112.718C165.469 112.766 165.669 112.894 165.854 113.351L167.722 117.969H168.411L170.247 113.415C170.44 112.95 170.64 112.766 170.921 112.718L171.009 112.702V112.341H169.133ZM172.099 113.359C172.484 113.359 172.788 113.055 172.788 112.702C172.788 112.349 172.484 112.044 172.099 112.044C171.706 112.044 171.401 112.349 171.401 112.702C171.401 113.055 171.706 113.359 172.099 113.359ZM170.993 117.953H173.253V117.608L173.149 117.592C172.869 117.552 172.756 117.456 172.756 117.127V113.856H172.684L170.993 114.217V114.522C171.385 114.626 171.49 114.714 171.49 115.027V117.127C171.49 117.456 171.377 117.552 171.097 117.592L170.993 117.608V117.953ZM177.634 116.935V112.02H177.561L175.87 112.381V112.686C176.263 112.79 176.367 112.878 176.367 113.191V113.912C176.19 113.872 175.998 113.848 175.806 113.848C174.411 113.848 173.569 114.77 173.569 116.061C173.569 117.296 174.266 118.049 175.204 118.049C175.814 118.049 176.223 117.721 176.407 117.456C176.455 117.689 176.543 117.889 176.679 118.025L178.139 117.753V117.448C177.746 117.384 177.634 117.256 177.634 116.935ZM175.83 117.368C175.293 117.368 174.924 116.895 174.924 115.877C174.924 114.81 175.236 114.281 175.79 114.281C176.078 114.281 176.255 114.426 176.367 114.594V117.071V117.183C176.239 117.288 176.062 117.368 175.83 117.368ZM181.958 116.518C181.677 116.911 181.372 117.127 180.891 117.127C180.266 117.127 179.681 116.775 179.633 115.764H182.166C182.174 115.7 182.174 115.588 182.174 115.516C182.174 114.666 181.597 113.832 180.434 113.832C179.376 113.832 178.446 114.706 178.446 116.053C178.446 117.272 179.248 118.065 180.394 118.065C181.228 118.065 181.894 117.616 182.222 116.654L181.958 116.518ZM180.354 114.257C180.747 114.257 180.956 114.706 180.996 115.34H179.641C179.697 114.642 179.961 114.257 180.354 114.257ZM184.839 118.065C186.018 118.065 187.02 117.183 187.02 115.933C187.02 114.682 186.018 113.832 184.839 113.832C183.645 113.832 182.643 114.714 182.643 115.965C182.643 117.216 183.645 118.065 184.839 118.065ZM184.887 117.632C184.326 117.632 184.014 116.726 184.014 115.813C184.014 114.931 184.278 114.265 184.791 114.265C185.312 114.265 185.649 115.075 185.649 116.085C185.649 116.967 185.393 117.632 184.887 117.632ZM190.4 117.953H192.966V117.592L192.846 117.576C192.565 117.536 192.348 117.456 192.348 117.127V112.838H192.597C193.359 112.838 193.615 113.199 193.84 113.84H194.257L194.152 112.341H189.214L189.109 113.84H189.526C189.743 113.199 189.999 112.838 190.777 112.838H191.018V117.127C191.018 117.456 190.801 117.536 190.521 117.576L190.4 117.592V117.953ZM198.406 116.935V113.856H198.334L196.643 114.169V114.466C197.068 114.578 197.14 114.674 197.14 114.971V117.095V117.159C197.011 117.288 196.827 117.36 196.595 117.36C196.138 117.36 195.913 117.079 195.913 116.678V113.856H195.841L194.149 114.169V114.466C194.566 114.578 194.646 114.674 194.646 114.971V116.767C194.646 117.456 195.031 118.049 195.953 118.049C196.546 118.049 196.955 117.753 197.18 117.44C197.228 117.681 197.324 117.897 197.452 118.025L198.904 117.753V117.448C198.511 117.384 198.406 117.256 198.406 116.935ZM200.806 118.057C201.271 118.057 201.712 117.897 201.984 117.673V117.288C201.824 117.352 201.64 117.384 201.479 117.384C201.102 117.384 200.886 117.191 200.886 116.807V114.506H201.824L201.968 113.944H200.886V112.934H200.277C200.044 113.463 199.691 113.936 199.082 114.105V114.506H199.619V116.967C199.619 117.697 200.084 118.057 200.806 118.057ZM204.381 118.065C205.56 118.065 206.562 117.183 206.562 115.933C206.562 114.682 205.56 113.832 204.381 113.832C203.187 113.832 202.185 114.714 202.185 115.965C202.185 117.216 203.187 118.065 204.381 118.065ZM204.43 117.632C203.868 117.632 203.556 116.726 203.556 115.813C203.556 114.931 203.82 114.265 204.333 114.265C204.854 114.265 205.191 115.075 205.191 116.085C205.191 116.967 204.935 117.632 204.43 117.632ZM209.807 113.856C209.213 113.856 208.845 114.458 208.684 114.875V113.856H208.612L206.961 114.217V114.522C207.353 114.634 207.458 114.722 207.458 115.035V117.127C207.458 117.456 207.345 117.552 207.065 117.592L206.961 117.608V117.953H209.438V117.608L209.294 117.592C208.845 117.544 208.724 117.456 208.724 117.127V115.203C208.821 114.987 208.957 114.826 209.157 114.826C209.27 114.826 209.366 114.866 209.502 114.939C209.654 115.019 209.751 115.051 209.879 115.051C210.24 115.051 210.536 114.57 210.6 114.297C210.496 114.145 210.2 113.856 209.807 113.856ZM211.927 113.359C212.312 113.359 212.616 113.055 212.616 112.702C212.616 112.349 212.312 112.044 211.927 112.044C211.534 112.044 211.229 112.349 211.229 112.702C211.229 113.055 211.534 113.359 211.927 113.359ZM210.82 117.953H213.081V117.608L212.977 117.592C212.696 117.552 212.584 117.456 212.584 117.127V113.856H212.512L210.82 114.217V114.522C211.213 114.626 211.318 114.714 211.318 115.027V117.127C211.318 117.456 211.205 117.552 210.925 117.592L210.82 117.608V117.953ZM217.379 117.448C217.155 117.448 217.027 117.352 217.027 117.087V115.115C217.027 114.434 216.602 113.832 215.351 113.832C214.205 113.832 213.699 114.426 213.579 114.85C213.659 114.995 213.924 115.235 214.293 115.235C214.565 115.235 214.726 115.147 214.83 114.81C214.95 114.418 215.014 114.225 215.279 114.225C215.527 114.225 215.776 114.426 215.776 115.003V115.556L214.541 115.909C213.868 116.101 213.483 116.374 213.483 116.951C213.483 117.56 213.98 118.049 214.694 118.049C215.175 118.049 215.559 117.841 215.8 117.52C215.864 117.777 216.065 118.041 216.578 118.041C216.914 118.041 217.315 117.937 217.556 117.665V117.416C217.508 117.432 217.452 117.448 217.379 117.448ZM215.319 117.392C214.982 117.392 214.718 117.119 214.718 116.71C214.718 116.406 214.846 116.27 215.167 116.165L215.776 115.965V117.208C215.664 117.32 215.519 117.392 215.319 117.392ZM217.842 117.953H220.111V117.608L219.999 117.592C219.718 117.552 219.606 117.456 219.606 117.127V112.02H219.534L217.842 112.381V112.686C218.235 112.79 218.34 112.878 218.34 113.191V117.127C218.34 117.456 218.227 117.552 217.947 117.592L217.842 117.608V117.953ZM222.165 118.065C223.152 118.065 223.857 117.528 223.873 116.702C223.889 116.021 223.472 115.748 222.606 115.42L222.31 115.307C221.813 115.115 221.652 114.971 221.652 114.714C221.652 114.466 221.853 114.265 222.206 114.265C222.767 114.265 223.055 114.674 223.208 115.179H223.601L223.633 114.065C223.344 113.953 222.839 113.832 222.294 113.832C221.292 113.832 220.602 114.393 220.602 115.131C220.602 115.805 221.019 116.085 221.741 116.358L222.029 116.47C222.55 116.67 222.831 116.783 222.831 117.111C222.831 117.44 222.582 117.632 222.206 117.632C221.564 117.632 221.203 117.079 221.043 116.486H220.642L220.61 117.753C220.963 117.905 221.492 118.065 222.165 118.065Z" fill="black"></path><path d="M169.91 29.9231H165.373V30.2839L165.493 30.2999C165.773 30.34 165.99 30.4202 165.99 30.7489V34.7094C165.99 35.0381 165.773 35.1183 165.493 35.1583L165.373 35.1744V35.5352H168.074V35.1744L167.93 35.1583C167.537 35.1183 167.321 35.0461 167.321 34.7094V32.9777H167.938C168.419 32.9777 168.628 33.2102 168.748 33.6752H169.109V31.8472H168.748C168.628 32.3122 168.419 32.4806 167.938 32.4806H167.321V30.4202H168.259C169.061 30.4202 169.285 30.7088 169.51 31.4143H169.91V29.9231ZM175.369 35.1583C175.144 35.1102 174.944 34.99 174.76 34.533L172.892 29.9231H172.122L170.27 34.4608C170.086 34.9018 169.877 35.1022 169.605 35.1583L169.524 35.1744V35.5352H171.384V35.1744L171.264 35.1583C170.855 35.1022 170.711 34.9579 170.863 34.5651L171.096 33.9638H173.124L173.365 34.5651C173.517 34.9579 173.349 35.1022 172.924 35.1583L172.803 35.1744V35.5352H175.449V35.1744L175.369 35.1583ZM171.28 33.4908L172.098 31.3822L172.94 33.4908H171.28ZM180.822 36.1605C180.405 36.1605 180.068 35.9921 179.579 35.6394L179.363 35.479C180.437 35.0782 181.206 34.06 181.206 32.7131C181.206 30.9653 179.9 29.7948 178.312 29.7948C176.709 29.7948 175.402 30.9894 175.402 32.7452C175.402 34.2845 176.412 35.3748 177.743 35.6153L178.4 36.1445C178.906 36.5533 179.411 36.8179 180.068 36.8179C180.573 36.8179 181.014 36.6095 181.287 36.4171V36.0964C181.118 36.1445 180.966 36.1605 180.822 36.1605ZM178.256 30.2758C179.194 30.2758 179.747 31.4544 179.747 32.8895C179.747 34.2444 179.17 35.1824 178.368 35.1824C177.43 35.1824 176.861 33.9958 176.861 32.5688C176.861 31.2058 177.446 30.2758 178.256 30.2758ZM181.838 32.1278C182.776 32.0557 183.274 31.3341 183.274 30.6847C183.274 30.1957 182.993 29.8269 182.504 29.8269C182.135 29.8269 181.855 30.1155 181.855 30.4282C181.855 30.9974 182.504 30.8852 182.504 31.262C182.504 31.5265 182.215 31.7189 181.838 31.767V32.1278ZM184.984 35.6474C185.97 35.6474 186.676 35.1102 186.692 34.2845C186.708 33.603 186.291 33.3304 185.425 33.0017L185.128 32.8895C184.631 32.697 184.471 32.5527 184.471 32.2962C184.471 32.0477 184.671 31.8472 185.024 31.8472C185.585 31.8472 185.874 32.2561 186.026 32.7612H186.419L186.451 31.6468C186.162 31.5345 185.657 31.4143 185.112 31.4143C184.11 31.4143 183.421 31.9755 183.421 32.7131C183.421 33.3865 183.837 33.6671 184.559 33.9397L184.848 34.052C185.369 34.2524 185.649 34.3646 185.649 34.6933C185.649 35.0221 185.401 35.2145 185.024 35.2145C184.383 35.2145 184.022 34.6613 183.862 34.068H183.461L183.429 35.3347C183.781 35.4871 184.31 35.6474 184.984 35.6474Z" fill="black"></path><path d="M166.745 165.543L165.233 159.935H166.145L167.257 164.575L168.537 159.935H169.473L170.713 164.575L171.825 159.935H172.737L171.201 165.535H170.209L168.985 161.143L167.721 165.535L166.745 165.543ZM174.405 165.631C174.069 165.631 173.792 165.575 173.573 165.463C173.355 165.351 173.192 165.204 173.085 165.023C172.979 164.836 172.925 164.634 172.925 164.415C172.925 164.031 173.075 163.727 173.373 163.503C173.672 163.279 174.099 163.167 174.653 163.167H175.693V163.095C175.693 162.786 175.608 162.554 175.437 162.399C175.272 162.244 175.056 162.167 174.789 162.167C174.555 162.167 174.349 162.226 174.173 162.343C174.003 162.455 173.899 162.623 173.861 162.847H173.013C173.04 162.559 173.136 162.314 173.301 162.111C173.472 161.903 173.685 161.746 173.941 161.639C174.203 161.527 174.488 161.471 174.797 161.471C175.352 161.471 175.781 161.618 176.085 161.911C176.389 162.199 176.541 162.594 176.541 163.095V165.535H175.805L175.733 164.855C175.621 165.074 175.459 165.258 175.245 165.407C175.032 165.556 174.752 165.631 174.405 165.631ZM174.573 164.943C174.803 164.943 174.995 164.89 175.149 164.783C175.309 164.671 175.432 164.524 175.517 164.343C175.608 164.162 175.664 163.962 175.685 163.743H174.741C174.405 163.743 174.165 163.802 174.021 163.919C173.883 164.036 173.813 164.183 173.813 164.359C173.813 164.54 173.88 164.684 174.013 164.791C174.152 164.892 174.339 164.943 174.573 164.943ZM179.116 165.535C178.727 165.535 178.417 165.442 178.188 165.255C177.959 165.063 177.844 164.724 177.844 164.239V162.279H177.164V161.567H177.844L177.948 160.559H178.692V161.567H179.812V162.279H178.692V164.239C178.692 164.458 178.737 164.61 178.828 164.695C178.924 164.775 179.087 164.815 179.316 164.815H179.772V165.535H179.116ZM182.465 165.631C182.075 165.631 181.726 165.543 181.417 165.367C181.113 165.191 180.873 164.948 180.697 164.639C180.526 164.324 180.441 163.962 180.441 163.551C180.441 163.14 180.526 162.78 180.697 162.471C180.873 162.156 181.113 161.911 181.417 161.735C181.726 161.559 182.075 161.471 182.465 161.471C182.955 161.471 183.366 161.599 183.697 161.855C184.033 162.111 184.249 162.458 184.345 162.895H183.457C183.403 162.676 183.286 162.506 183.105 162.383C182.923 162.26 182.71 162.199 182.465 162.199C182.257 162.199 182.065 162.252 181.889 162.359C181.713 162.46 181.571 162.612 181.465 162.815C181.358 163.012 181.305 163.258 181.305 163.551C181.305 163.844 181.358 164.092 181.465 164.295C181.571 164.492 181.713 164.644 181.889 164.751C182.065 164.858 182.257 164.911 182.465 164.911C182.71 164.911 182.923 164.85 183.105 164.727C183.286 164.604 183.403 164.431 183.457 164.207H184.345C184.254 164.634 184.041 164.978 183.705 165.239C183.369 165.5 182.955 165.631 182.465 165.631ZM185.265 165.535V159.775H186.113V162.207C186.246 161.978 186.43 161.799 186.665 161.671C186.905 161.538 187.169 161.471 187.457 161.471C187.931 161.471 188.305 161.62 188.577 161.919C188.849 162.218 188.985 162.663 188.985 163.255V165.535H188.145V163.343C188.145 162.575 187.838 162.191 187.225 162.191C186.905 162.191 186.638 162.303 186.425 162.527C186.217 162.751 186.113 163.071 186.113 163.487V165.535H185.265Z" fill="white"></path><rect x="165.033" y="44.5352" width="100.063" height="3.57366" rx="1.78683" fill="#FFC5F3"></rect><rect x="165.033" y="52.873" width="65.5172" height="3.57366" rx="1.78683" fill="#FFC5F3"></rect><rect x="32.0332" y="44.5352" width="100.063" height="3.57366" rx="1.78683" fill="#FFC5F3"></rect><rect x="32.0332" y="52.873" width="65.5172" height="3.57366" rx="1.78683" fill="#FFC5F3"></rect><rect x="165.033" y="125.535" width="100.063" height="3.57366" rx="1.78683" fill="#FFC5F3"></rect><rect x="165.033" y="133.873" width="65.5172" height="3.57366" rx="1.78683" fill="#FFC5F3"></rect><rect x="32.0332" y="125.535" width="100.063" height="3.57366" rx="1.78683" fill="#FFC5F3"></rect><rect x="32.0332" y="133.873" width="65.5172" height="3.57366" rx="1.78683" fill="#FFC5F3"></rect><path d="M137.922 161.535L137.311 162.171L139.422 164.31H127.033V165.177H139.422L137.311 167.374L137.922 167.952L141.033 164.772L137.922 161.535Z" fill="white"></path><path d="M273.922 161.535L273.311 162.171L275.422 164.31H263.033V165.177H275.422L273.311 167.374L273.922 167.952L277.033 164.772L273.922 161.535Z" fill="white"></path><path d="M137.922 78.5352L137.311 79.171L139.422 81.3099H127.033V82.177H139.422L137.311 84.3737L137.922 84.9518L141.033 81.7724L137.922 78.5352Z" fill="white"></path><path d="M273.922 78.5352L273.311 79.171L275.422 81.3099H263.033V82.177H275.422L273.311 84.3737L273.922 84.9518L277.033 81.7724L273.922 78.5352Z" fill="white"></path></svg>