<svg xmlns="http://www.w3.org/2000/svg" width="122" height="122" viewBox="0 0 122 122" fill="none"><circle cx="60.0176" cy="60.7031" r="60" fill="#D9FFF1"></circle><path d="M59.8705 108.489C86.1922 108.489 107.53 87.1512 107.53 60.8295C107.53 34.5079 86.1922 13.1699 59.8705 13.1699C33.5489 13.1699 12.2109 34.5079 12.2109 60.8295C12.2109 87.1512 33.5489 108.489 59.8705 108.489Z" stroke="white" stroke-width="3" stroke-miterlimit="10"></path><path d="M40.0465 17.426C26.6713 23.6092 16.3415 35.8921 13.2634 51.4573C8.15736 77.2776 24.9514 102.351 50.7718 107.457C76.5921 112.563 101.666 95.7693 106.772 69.949C111.878 44.1286 95.0838 19.055 69.2634 13.949C64.8786 13.0818 60.5173 12.849 56.2679 13.1799" stroke="#004F32" stroke-width="3" stroke-miterlimit="10" stroke-linecap="round"></path><path d="M49.6946 63.8215C48.1373 63.8215 46.8253 63.5228 45.7586 62.9255C44.6919 62.3068 43.8599 61.5068 43.2626 60.5255C42.6653 59.5442 42.3133 58.4882 42.2066 57.3575H46.0146C46.1853 58.3388 46.5906 59.0962 47.2306 59.6295C47.8919 60.1628 48.7239 60.4295 49.7266 60.4295C51.1559 60.4295 52.3079 59.7788 53.1826 58.4775C54.0573 57.1548 54.5266 55.1495 54.5906 52.4615C54.0786 53.3362 53.2999 54.0615 52.2546 54.6375C51.2306 55.2135 50.0999 55.5015 48.8626 55.5015C47.6253 55.5015 46.4626 55.2028 45.3746 54.6055C44.2866 54.0082 43.4013 53.1655 42.7186 52.0775C42.0359 50.9895 41.6946 49.7095 41.6946 48.2375C41.6946 46.8935 42.0253 45.6455 42.6866 44.4935C43.3479 43.3415 44.2653 42.4135 45.4386 41.7095C46.6119 41.0055 47.9879 40.6535 49.5666 40.6535C51.2519 40.6535 52.6706 40.9628 53.8226 41.5815C54.9746 42.2002 55.8919 43.0322 56.5746 44.0775C57.2786 45.1228 57.7799 46.2855 58.0786 47.5655C58.3986 48.8455 58.5586 50.1575 58.5586 51.5015C58.5586 53.9975 58.2066 56.1735 57.5026 58.0295C56.8199 59.8642 55.8066 61.2935 54.4626 62.3175C53.1399 63.3202 51.5506 63.8215 49.6946 63.8215ZM49.8226 52.0455C50.6119 52.0455 51.3266 51.8748 51.9666 51.5335C52.6066 51.1708 53.1079 50.7015 53.4706 50.1255C53.8333 49.5282 54.0146 48.8668 54.0146 48.1415C54.0146 46.9895 53.6093 46.0402 52.7986 45.2935C52.0093 44.5468 51.0066 44.1735 49.7906 44.1735C48.5959 44.1735 47.6039 44.5468 46.8146 45.2935C46.0253 46.0188 45.6306 46.9468 45.6306 48.0775C45.6306 49.2722 46.0253 50.2322 46.8146 50.9575C47.6039 51.6828 48.6066 52.0455 49.8226 52.0455ZM70.7439 63.8215C69.0585 63.8215 67.6399 63.5122 66.4879 62.8935C65.3359 62.2748 64.4079 61.4428 63.7039 60.3975C62.9999 59.3522 62.4879 58.1895 62.1679 56.9095C61.8692 55.6295 61.7199 54.3175 61.7199 52.9735C61.7199 50.4775 62.0719 48.3122 62.7759 46.4775C63.4799 44.6215 64.4932 43.1922 65.8159 42.1895C67.1385 41.1655 68.7385 40.6535 70.6159 40.6535C72.1519 40.6535 73.4532 40.9628 74.5199 41.5815C75.6079 42.1788 76.4505 42.9682 77.0479 43.9495C77.6452 44.9308 77.9972 45.9868 78.1039 47.1175H74.2959C74.1039 46.1362 73.6879 45.3788 73.0479 44.8455C72.4079 44.3122 71.5865 44.0455 70.5839 44.0455C69.1545 44.0455 68.0025 44.7068 67.1279 46.0295C66.2532 47.3308 65.7839 49.3255 65.7199 52.0135C66.2319 51.1388 66.9999 50.4135 68.0239 49.8375C69.0479 49.2615 70.1892 48.9735 71.4479 48.9735C72.6852 48.9735 73.8479 49.2722 74.9359 49.8695C76.0239 50.4668 76.8985 51.3095 77.5599 52.3975C78.2425 53.4855 78.5839 54.7655 78.5839 56.2375C78.5839 57.5815 78.2532 58.8295 77.5919 59.9815C76.9519 61.1335 76.0345 62.0615 74.8399 62.7655C73.6665 63.4695 72.3012 63.8215 70.7439 63.8215ZM70.5199 60.3015C71.7145 60.3015 72.6959 59.9388 73.4639 59.2135C74.2532 58.4668 74.6479 57.5282 74.6479 56.3975C74.6479 55.2028 74.2532 54.2428 73.4639 53.5175C72.6745 52.7922 71.6719 52.4295 70.4559 52.4295C69.6665 52.4295 68.9519 52.6108 68.3119 52.9735C67.6932 53.3148 67.2025 53.7842 66.8399 54.3815C66.4772 54.9575 66.2959 55.6082 66.2959 56.3335C66.2959 57.4855 66.6905 58.4348 67.4799 59.1815C68.2905 59.9282 69.3039 60.3015 70.5199 60.3015Z" fill="#212121"></path><path d="M33.181 79.4375V72.4375H35.631C36.1777 72.4375 36.631 72.5308 36.991 72.7175C37.351 72.8975 37.6177 73.1475 37.791 73.4675C37.971 73.7808 38.061 74.1375 38.061 74.5375C38.061 74.9175 37.9744 75.2675 37.801 75.5875C37.6344 75.9008 37.371 76.1508 37.011 76.3375C36.651 76.5242 36.191 76.6175 35.631 76.6175H34.241V79.4375H33.181ZM34.241 75.7475H35.581C36.081 75.7475 36.4377 75.6408 36.651 75.4275C36.871 75.2075 36.981 74.9108 36.981 74.5375C36.981 74.1508 36.871 73.8508 36.651 73.6375C36.4377 73.4175 36.081 73.3075 35.581 73.3075H34.241V75.7475ZM40.4753 79.5575C40.0553 79.5575 39.7087 79.4875 39.4353 79.3475C39.162 79.2075 38.9587 79.0242 38.8253 78.7975C38.692 78.5642 38.6253 78.3108 38.6253 78.0375C38.6253 77.5575 38.812 77.1775 39.1853 76.8975C39.5587 76.6175 40.092 76.4775 40.7853 76.4775H42.0853V76.3875C42.0853 76.0008 41.9787 75.7108 41.7653 75.5175C41.5587 75.3242 41.2887 75.2275 40.9553 75.2275C40.662 75.2275 40.4053 75.3008 40.1853 75.4475C39.972 75.5875 39.842 75.7975 39.7953 76.0775H38.7353C38.7687 75.7175 38.8887 75.4108 39.0953 75.1575C39.3087 74.8975 39.5753 74.7008 39.8953 74.5675C40.222 74.4275 40.5787 74.3575 40.9653 74.3575C41.6587 74.3575 42.1953 74.5408 42.5753 74.9075C42.9553 75.2675 43.1453 75.7608 43.1453 76.3875V79.4375H42.2253L42.1353 78.5875C41.9953 78.8608 41.792 79.0908 41.5253 79.2775C41.2587 79.4642 40.9087 79.5575 40.4753 79.5575ZM40.6853 78.6975C40.972 78.6975 41.212 78.6308 41.4053 78.4975C41.6053 78.3575 41.7587 78.1742 41.8653 77.9475C41.9787 77.7208 42.0487 77.4708 42.0753 77.1975H40.8953C40.4753 77.1975 40.1753 77.2708 39.9953 77.4175C39.822 77.5642 39.7353 77.7475 39.7353 77.9675C39.7353 78.1942 39.8187 78.3742 39.9853 78.5075C40.1587 78.6342 40.392 78.6975 40.6853 78.6975ZM46.4113 77.9175C46.1513 77.9175 45.9113 77.8875 45.6913 77.8275L45.2613 78.2475C45.3346 78.2942 45.4246 78.3342 45.5313 78.3675C45.6379 78.4008 45.7879 78.4308 45.9813 78.4575C46.1746 78.4842 46.4379 78.5108 46.7713 78.5375C47.4313 78.5975 47.9079 78.7575 48.2013 79.0175C48.4946 79.2708 48.6413 79.6108 48.6413 80.0375C48.6413 80.3308 48.5613 80.6075 48.4013 80.8675C48.2479 81.1342 48.0046 81.3475 47.6713 81.5075C47.3446 81.6742 46.9246 81.7575 46.4113 81.7575C45.7179 81.7575 45.1546 81.6242 44.7213 81.3575C44.2946 81.0975 44.0813 80.7008 44.0813 80.1675C44.0813 79.9608 44.1346 79.7542 44.2413 79.5475C44.3546 79.3475 44.5313 79.1575 44.7713 78.9775C44.6313 78.9175 44.5079 78.8542 44.4013 78.7875C44.3013 78.7142 44.2113 78.6408 44.1313 78.5675V78.3275L44.9913 77.4475C44.6046 77.1142 44.4113 76.6775 44.4113 76.1375C44.4113 75.8108 44.4879 75.5142 44.6413 75.2475C44.8013 74.9742 45.0313 74.7575 45.3313 74.5975C45.6313 74.4375 45.9913 74.3575 46.4113 74.3575C46.6913 74.3575 46.9513 74.3975 47.1913 74.4775H49.0413V75.1775L48.1613 75.2275C48.3213 75.5008 48.4013 75.8042 48.4013 76.1375C48.4013 76.4708 48.3213 76.7708 48.1613 77.0375C48.0079 77.3042 47.7813 77.5175 47.4813 77.6775C47.1879 77.8375 46.8313 77.9175 46.4113 77.9175ZM46.4113 77.0875C46.7179 77.0875 46.9646 77.0075 47.1513 76.8475C47.3446 76.6808 47.4413 76.4475 47.4413 76.1475C47.4413 75.8408 47.3446 75.6075 47.1513 75.4475C46.9646 75.2875 46.7179 75.2075 46.4113 75.2075C46.0979 75.2075 45.8446 75.2875 45.6513 75.4475C45.4646 75.6075 45.3713 75.8408 45.3713 76.1475C45.3713 76.4475 45.4646 76.6808 45.6513 76.8475C45.8446 77.0075 46.0979 77.0875 46.4113 77.0875ZM45.0813 80.0675C45.0813 80.3542 45.2079 80.5675 45.4613 80.7075C45.7146 80.8542 46.0313 80.9275 46.4113 80.9275C46.7779 80.9275 47.0746 80.8475 47.3013 80.6875C47.5279 80.5342 47.6413 80.3275 47.6413 80.0675C47.6413 79.8742 47.5646 79.7075 47.4113 79.5675C47.2579 79.4342 46.9679 79.3508 46.5413 79.3175C46.2213 79.2975 45.9379 79.2675 45.6913 79.2275C45.4579 79.3542 45.2979 79.4908 45.2113 79.6375C45.1246 79.7842 45.0813 79.9275 45.0813 80.0675ZM52.1114 79.5575C51.6247 79.5575 51.1914 79.4508 50.8114 79.2375C50.4381 79.0175 50.1447 78.7142 49.9314 78.3275C49.7181 77.9408 49.6114 77.4908 49.6114 76.9775C49.6114 76.4575 49.7147 76.0008 49.9214 75.6075C50.1347 75.2142 50.4281 74.9075 50.8014 74.6875C51.1814 74.4675 51.6214 74.3575 52.1214 74.3575C52.6081 74.3575 53.0314 74.4675 53.3914 74.6875C53.7514 74.9008 54.0314 75.1875 54.2314 75.5475C54.4314 75.9075 54.5314 76.3042 54.5314 76.7375C54.5314 76.8042 54.5281 76.8775 54.5214 76.9575C54.5214 77.0308 54.5181 77.1142 54.5114 77.2075H50.6514C50.6847 77.6875 50.8414 78.0542 51.1214 78.3075C51.4081 78.5542 51.7381 78.6775 52.1114 78.6775C52.4114 78.6775 52.6614 78.6108 52.8614 78.4775C53.0681 78.3375 53.2214 78.1508 53.3214 77.9175H54.3814C54.2481 78.3842 53.9814 78.7742 53.5814 79.0875C53.1881 79.4008 52.6981 79.5575 52.1114 79.5575ZM52.1114 75.2275C51.7581 75.2275 51.4447 75.3342 51.1714 75.5475C50.8981 75.7542 50.7314 76.0675 50.6714 76.4875H53.4714C53.4514 76.1008 53.3147 75.7942 53.0614 75.5675C52.8081 75.3408 52.4914 75.2275 52.1114 75.2275ZM60.5008 79.5575C59.9875 79.5575 59.5375 79.4675 59.1508 79.2875C58.7641 79.1075 58.4608 78.8508 58.2408 78.5175C58.0275 78.1842 57.9175 77.7875 57.9108 77.3275H59.0308C59.0375 77.7008 59.1675 78.0175 59.4208 78.2775C59.6741 78.5375 60.0308 78.6675 60.4908 78.6675C60.8975 78.6675 61.2141 78.5708 61.4408 78.3775C61.6741 78.1775 61.7908 77.9242 61.7908 77.6175C61.7908 77.3708 61.7341 77.1708 61.6208 77.0175C61.5141 76.8642 61.3641 76.7375 61.1708 76.6375C60.9841 76.5375 60.7675 76.4475 60.5208 76.3675C60.2741 76.2875 60.0141 76.2008 59.7408 76.1075C59.2008 75.9275 58.7941 75.6942 58.5208 75.4075C58.2541 75.1208 58.1208 74.7442 58.1208 74.2775C58.1141 73.8842 58.2041 73.5408 58.3908 73.2475C58.5841 72.9542 58.8508 72.7275 59.1908 72.5675C59.5375 72.4008 59.9408 72.3175 60.4008 72.3175C60.8541 72.3175 61.2508 72.4008 61.5908 72.5675C61.9375 72.7342 62.2075 72.9675 62.4008 73.2675C62.5941 73.5608 62.6941 73.9042 62.7008 74.2975H61.5808C61.5808 74.1175 61.5341 73.9475 61.4408 73.7875C61.3475 73.6208 61.2108 73.4842 61.0308 73.3775C60.8508 73.2708 60.6308 73.2175 60.3708 73.2175C60.0375 73.2108 59.7608 73.2942 59.5408 73.4675C59.3275 73.6408 59.2208 73.8808 59.2208 74.1875C59.2208 74.4608 59.3008 74.6708 59.4608 74.8175C59.6208 74.9642 59.8408 75.0875 60.1208 75.1875C60.4008 75.2808 60.7208 75.3908 61.0808 75.5175C61.4275 75.6308 61.7375 75.7675 62.0108 75.9275C62.2841 76.0875 62.5008 76.2975 62.6608 76.5575C62.8275 76.8175 62.9108 77.1475 62.9108 77.5475C62.9108 77.9008 62.8208 78.2308 62.6408 78.5375C62.4608 78.8375 62.1908 79.0842 61.8308 79.2775C61.4708 79.4642 61.0275 79.5575 60.5008 79.5575ZM64.0297 81.6375V74.4775H64.9797L65.0897 75.2475C65.2497 75.0142 65.4697 74.8075 65.7497 74.6275C66.0297 74.4475 66.3897 74.3575 66.8297 74.3575C67.3097 74.3575 67.733 74.4708 68.0997 74.6975C68.4664 74.9242 68.753 75.2342 68.9597 75.6275C69.173 76.0208 69.2797 76.4675 69.2797 76.9675C69.2797 77.4675 69.173 77.9142 68.9597 78.3075C68.753 78.6942 68.4664 79.0008 68.0997 79.2275C67.733 79.4475 67.3064 79.5575 66.8197 79.5575C66.433 79.5575 66.0897 79.4808 65.7897 79.3275C65.4964 79.1742 65.263 78.9575 65.0897 78.6775V81.6375H64.0297ZM66.6397 78.6375C67.093 78.6375 67.4664 78.4842 67.7597 78.1775C68.053 77.8642 68.1997 77.4575 68.1997 76.9575C68.1997 76.6308 68.133 76.3408 67.9997 76.0875C67.8664 75.8342 67.683 75.6375 67.4497 75.4975C67.2164 75.3508 66.9464 75.2775 66.6397 75.2775C66.1864 75.2775 65.813 75.4342 65.5197 75.7475C65.233 76.0608 65.0897 76.4642 65.0897 76.9575C65.0897 77.4575 65.233 77.8642 65.5197 78.1775C65.813 78.4842 66.1864 78.6375 66.6397 78.6375ZM72.7462 79.5575C72.2595 79.5575 71.8262 79.4508 71.4462 79.2375C71.0728 79.0175 70.7795 78.7142 70.5662 78.3275C70.3528 77.9408 70.2462 77.4908 70.2462 76.9775C70.2462 76.4575 70.3495 76.0008 70.5562 75.6075C70.7695 75.2142 71.0628 74.9075 71.4362 74.6875C71.8162 74.4675 72.2562 74.3575 72.7562 74.3575C73.2428 74.3575 73.6662 74.4675 74.0262 74.6875C74.3862 74.9008 74.6662 75.1875 74.8662 75.5475C75.0662 75.9075 75.1662 76.3042 75.1662 76.7375C75.1662 76.8042 75.1628 76.8775 75.1562 76.9575C75.1562 77.0308 75.1528 77.1142 75.1462 77.2075H71.2862C71.3195 77.6875 71.4762 78.0542 71.7562 78.3075C72.0428 78.5542 72.3728 78.6775 72.7462 78.6775C73.0462 78.6775 73.2962 78.6108 73.4962 78.4775C73.7028 78.3375 73.8562 78.1508 73.9562 77.9175H75.0162C74.8828 78.3842 74.6162 78.7742 74.2162 79.0875C73.8228 79.4008 73.3328 79.5575 72.7462 79.5575ZM72.7462 75.2275C72.3928 75.2275 72.0795 75.3342 71.8062 75.5475C71.5328 75.7542 71.3662 76.0675 71.3062 76.4875H74.1062C74.0862 76.1008 73.9495 75.7942 73.6962 75.5675C73.4428 75.3408 73.1262 75.2275 72.7462 75.2275ZM78.586 79.5575C78.0994 79.5575 77.666 79.4508 77.286 79.2375C76.9127 79.0175 76.6194 78.7142 76.406 78.3275C76.1927 77.9408 76.086 77.4908 76.086 76.9775C76.086 76.4575 76.1894 76.0008 76.396 75.6075C76.6094 75.2142 76.9027 74.9075 77.276 74.6875C77.656 74.4675 78.096 74.3575 78.596 74.3575C79.0827 74.3575 79.506 74.4675 79.866 74.6875C80.226 74.9008 80.506 75.1875 80.706 75.5475C80.906 75.9075 81.006 76.3042 81.006 76.7375C81.006 76.8042 81.0027 76.8775 80.996 76.9575C80.996 77.0308 80.9927 77.1142 80.986 77.2075H77.126C77.1594 77.6875 77.316 78.0542 77.596 78.3075C77.8827 78.5542 78.2127 78.6775 78.586 78.6775C78.886 78.6775 79.136 78.6108 79.336 78.4775C79.5427 78.3375 79.696 78.1508 79.796 77.9175H80.856C80.7227 78.3842 80.456 78.7742 80.056 79.0875C79.6627 79.4008 79.1727 79.5575 78.586 79.5575ZM78.586 75.2275C78.2327 75.2275 77.9194 75.3342 77.646 75.5475C77.3727 75.7542 77.206 76.0675 77.146 76.4875H79.946C79.926 76.1008 79.7894 75.7942 79.536 75.5675C79.2827 75.3408 78.966 75.2275 78.586 75.2275ZM84.3659 79.5575C83.8859 79.5575 83.4625 79.4442 83.0959 79.2175C82.7292 78.9908 82.4425 78.6808 82.2359 78.2875C82.0292 77.8942 81.9259 77.4475 81.9259 76.9475C81.9259 76.4475 82.0292 76.0042 82.2359 75.6175C82.4425 75.2242 82.7292 74.9175 83.0959 74.6975C83.4692 74.4708 83.8959 74.3575 84.3759 74.3575C84.7692 74.3575 85.1125 74.4342 85.4059 74.5875C85.7059 74.7408 85.9392 74.9575 86.1059 75.2375V72.2375H87.1659V79.4375H86.2159L86.1059 78.6675C85.9459 78.9008 85.7259 79.1075 85.4459 79.2875C85.1659 79.4675 84.8059 79.5575 84.3659 79.5575ZM84.5559 78.6375C85.0092 78.6375 85.3792 78.4808 85.6659 78.1675C85.9592 77.8542 86.1059 77.4508 86.1059 76.9575C86.1059 76.4575 85.9592 76.0542 85.6659 75.7475C85.3792 75.4342 85.0092 75.2775 84.5559 75.2775C84.1025 75.2775 83.7292 75.4342 83.4359 75.7475C83.1425 76.0542 82.9959 76.4575 82.9959 76.9575C82.9959 77.2842 83.0625 77.5742 83.1959 77.8275C83.3292 78.0808 83.5125 78.2808 83.7459 78.4275C83.9859 78.5675 84.2559 78.6375 84.5559 78.6375Z" fill="#212121"></path></svg>