<svg xmlns="http://www.w3.org/2000/svg" width="159" height="167" viewBox="0 0 159 167" fill="none"><g clip-path="url(#clip0_1091_52977)"><rect x="-0.766602" y="-0.330078" width="145.668" height="145.668" rx="6.74692" fill="#212121"></rect><mask id="mask0_1091_52977" style="mask-type:alpha" maskUnits="userSpaceOnUse" x="13" y="45" width="118" height="88"><path d="M130.514 45.5273L104.793 65.9916L85.8466 84.4442C84.5763 85.6815 82.5937 85.8083 81.1762 84.7428L70.2365 76.5208C69.1756 75.7234 67.6924 75.8162 66.7391 76.7394L49.6768 93.2643C49.1155 93.8079 48.3924 94.154 47.6169 94.2501L30.047 96.4272C29.6196 96.4802 29.2052 96.6095 28.8235 96.8089L13.6206 104.753V130.051C13.6206 131.54 14.8283 132.748 16.3182 132.748H127.817C129.307 132.748 130.514 131.54 130.514 130.051V45.5273Z" fill="#EFFFF9" fill-opacity="0.3"></path></mask><g mask="url(#mask0_1091_52977)"><line x1="14.9696" y1="38.334" x2="14.9696" y2="132.748" stroke="#EAE7FF" stroke-width="0.899183"></line><line x1="17.6669" y1="38.334" x2="17.6669" y2="132.748" stroke="#EAE7FF" stroke-width="0.899183"></line><line x1="20.3646" y1="38.334" x2="20.3646" y2="132.748" stroke="#EAE7FF" stroke-width="0.899183"></line><line x1="23.0619" y1="38.334" x2="23.0619" y2="132.748" stroke="#EAE7FF" stroke-width="0.899183"></line><line x1="25.7596" y1="38.334" x2="25.7596" y2="132.748" stroke="#EAE7FF" stroke-width="0.899183"></line><line x1="28.4569" y1="38.334" x2="28.4569" y2="132.748" stroke="#EAE7FF" stroke-width="0.899183"></line><line x1="31.1547" y1="38.334" x2="31.1547" y2="132.748" stroke="#EAE7FF" stroke-width="0.899183"></line><line x1="33.8524" y1="38.334" x2="33.8524" y2="132.748" stroke="#EAE7FF" stroke-width="0.899183"></line><line x1="36.5497" y1="38.334" x2="36.5497" y2="132.748" stroke="#EAE7FF" stroke-width="0.899183"></line><line x1="39.2474" y1="38.334" x2="39.2474" y2="132.748" stroke="#EAE7FF" stroke-width="0.899183"></line><line x1="41.9447" y1="38.334" x2="41.9447" y2="132.748" stroke="#EAE7FF" stroke-width="0.899183"></line><line x1="44.6425" y1="38.334" x2="44.6425" y2="132.748" stroke="#EAE7FF" stroke-width="0.899183"></line><line x1="47.3402" y1="38.334" x2="47.3402" y2="132.748" stroke="#EAE7FF" stroke-width="0.899183"></line><line x1="50.0375" y1="38.334" x2="50.0375" y2="132.748" stroke="#EAE7FF" stroke-width="0.899183"></line><line x1="52.7352" y1="38.334" x2="52.7352" y2="132.748" stroke="#EAE7FF" stroke-width="0.899183"></line><line x1="55.4325" y1="38.334" x2="55.4325" y2="132.748" stroke="#EAE7FF" stroke-width="0.899183"></line><line x1="58.1303" y1="38.334" x2="58.1303" y2="132.748" stroke="#EAE7FF" stroke-width="0.899183"></line><line x1="60.8275" y1="38.334" x2="60.8275" y2="132.748" stroke="#EAE7FF" stroke-width="0.899183"></line><line x1="63.5253" y1="38.334" x2="63.5253" y2="132.748" stroke="#EAE7FF" stroke-width="0.899183"></line><line x1="66.223" y1="38.334" x2="66.223" y2="132.748" stroke="#EAE7FF" stroke-width="0.899183"></line><line x1="68.9203" y1="38.334" x2="68.9203" y2="132.748" stroke="#EAE7FF" stroke-width="0.899183"></line><line x1="71.618" y1="38.334" x2="71.618" y2="132.748" stroke="#EAE7FF" stroke-width="0.899183"></line><line x1="74.3153" y1="38.334" x2="74.3153" y2="132.748" stroke="#EAE7FF" stroke-width="0.899183"></line><line x1="77.0131" y1="38.334" x2="77.0131" y2="132.748" stroke="#EAE7FF" stroke-width="0.899183"></line><line x1="79.7103" y1="38.334" x2="79.7103" y2="132.748" stroke="#EAE7FF" stroke-width="0.899183"></line><line x1="82.4081" y1="38.334" x2="82.4081" y2="132.748" stroke="#EAE7FF" stroke-width="0.899183"></line><line x1="85.1058" y1="38.334" x2="85.1058" y2="132.748" stroke="#EAE7FF" stroke-width="0.899183"></line><line x1="87.8031" y1="38.334" x2="87.8031" y2="132.748" stroke="#EAE7FF" stroke-width="0.899183"></line><line x1="90.5009" y1="38.334" x2="90.5009" y2="132.748" stroke="#EAE7FF" stroke-width="0.899183"></line><line x1="93.1981" y1="38.334" x2="93.1981" y2="132.748" stroke="#EAE7FF" stroke-width="0.899183"></line><line x1="95.8959" y1="38.334" x2="95.8959" y2="132.748" stroke="#EAE7FF" stroke-width="0.899183"></line><line x1="98.5931" y1="38.334" x2="98.5931" y2="132.748" stroke="#EAE7FF" stroke-width="0.899183"></line><line x1="101.291" y1="38.334" x2="101.291" y2="132.748" stroke="#EAE7FF" stroke-width="0.899183"></line><line x1="103.989" y1="38.334" x2="103.989" y2="132.748" stroke="#EAE7FF" stroke-width="0.899183"></line><line x1="106.686" y1="38.334" x2="106.686" y2="132.748" stroke="#EAE7FF" stroke-width="0.899183"></line><line x1="109.384" y1="38.334" x2="109.384" y2="132.748" stroke="#EAE7FF" stroke-width="0.899183"></line><line x1="112.081" y1="38.334" x2="112.081" y2="132.748" stroke="#EAE7FF" stroke-width="0.899183"></line><line x1="114.779" y1="38.334" x2="114.779" y2="132.748" stroke="#EAE7FF" stroke-width="0.899183"></line><line x1="117.476" y1="38.334" x2="117.476" y2="132.748" stroke="#EAE7FF" stroke-width="0.899183"></line><line x1="120.174" y1="38.334" x2="120.174" y2="132.748" stroke="#EAE7FF" stroke-width="0.899183"></line><line x1="122.871" y1="38.334" x2="122.871" y2="132.748" stroke="#EAE7FF" stroke-width="0.899183"></line><line x1="125.569" y1="38.334" x2="125.569" y2="132.748" stroke="#EAE7FF" stroke-width="0.899183"></line><line x1="128.266" y1="38.334" x2="128.266" y2="132.748" stroke="#EAE7FF" stroke-width="0.899183"></line></g><path d="M14.478 104.151C14.3841 104.199 14.3475 104.315 14.3963 104.409C14.4451 104.503 14.5609 104.54 14.6548 104.491L14.478 104.151ZM104.792 66.0343L104.672 65.8846L104.664 65.8905L104.658 65.8971L104.792 66.0343ZM81.7887 85.2857L81.6733 85.4388L81.7887 85.2857ZM67.2888 76.2696L67.1553 76.1321L67.2888 76.2696ZM69.6231 76.1237L69.5078 76.2768L69.6231 76.1237ZM47.6144 94.3505L47.6381 94.5407L47.6144 94.3505ZM49.6761 93.3622L49.5427 93.2247L49.6761 93.3622ZM28.826 96.9102L28.9144 97.0803L28.826 96.9102ZM30.0414 96.5324L30.0178 96.3422L30.0414 96.5324ZM14.6548 104.491L28.9144 97.0803L28.7377 96.7402L14.478 104.151L14.6548 104.491ZM30.065 96.7226L47.6381 94.5407L47.5908 94.1603L30.0178 96.3422L30.065 96.7226ZM49.8096 93.4998L67.4223 76.4072L67.1553 76.1321L49.5427 93.2247L49.8096 93.4998ZM69.5078 76.2768L81.6733 85.4388L81.904 85.1326L69.7384 75.9706L69.5078 76.2768ZM85.4294 85.1986L104.925 66.1714L104.658 65.8971L85.1617 84.9242L85.4294 85.1986ZM104.911 66.1839L128.92 46.97L128.681 46.6707L104.672 65.8846L104.911 66.1839ZM81.6733 85.4388C82.813 86.297 84.4084 86.195 85.4294 85.1986L85.1617 84.9242C84.2762 85.7884 82.8924 85.8769 81.904 85.1326L81.6733 85.4388ZM67.4223 76.4072C67.9904 75.8559 68.8754 75.8005 69.5078 76.2768L69.7384 75.9706C68.9552 75.3807 67.859 75.4492 67.1553 76.1321L67.4223 76.4072ZM47.6381 94.5407C48.4559 94.4391 49.2182 94.0737 49.8096 93.4998L49.5427 93.2247C49.0111 93.7405 48.3259 94.069 47.5908 94.1603L47.6381 94.5407ZM28.9144 97.0803C29.2736 96.8936 29.6633 96.7725 30.065 96.7226L30.0178 96.3422C29.5708 96.3977 29.1373 96.5325 28.7377 96.7402L28.9144 97.0803Z" fill="#EAE7FF"></path><path d="M18.1822 28.1948C17.5662 28.1948 17.0302 28.0828 16.5742 27.8588C16.1182 27.6348 15.7662 27.3228 15.5182 26.9228C15.2702 26.5228 15.1462 26.0588 15.1462 25.5308H16.2022C16.2022 25.8588 16.2782 26.1628 16.4302 26.4428C16.5822 26.7148 16.8022 26.9348 17.0902 27.1028C17.3862 27.2628 17.7502 27.3428 18.1822 27.3428C18.7502 27.3428 19.1902 27.2068 19.5022 26.9348C19.8142 26.6628 19.9702 26.3228 19.9702 25.9148C19.9702 25.5788 19.8982 25.3108 19.7542 25.1108C19.6102 24.9028 19.4142 24.7348 19.1662 24.6068C18.9262 24.4788 18.6462 24.3668 18.3262 24.2708C18.0142 24.1748 17.6862 24.0668 17.3422 23.9468C16.6942 23.7228 16.2142 23.4468 15.9022 23.1188C15.5902 22.7828 15.4342 22.3468 15.4342 21.8108C15.4262 21.3628 15.5302 20.9668 15.7462 20.6228C15.9622 20.2708 16.2662 19.9988 16.6582 19.8068C17.0582 19.6068 17.5302 19.5068 18.0742 19.5068C18.6102 19.5068 19.0742 19.6068 19.4662 19.8068C19.8662 20.0068 20.1742 20.2828 20.3902 20.6348C20.6142 20.9868 20.7302 21.3868 20.7382 21.8348H19.6822C19.6822 21.6028 19.6222 21.3748 19.5022 21.1508C19.3822 20.9188 19.1982 20.7308 18.9502 20.5868C18.7102 20.4428 18.4062 20.3708 18.0382 20.3708C17.5822 20.3628 17.2062 20.4788 16.9102 20.7188C16.6222 20.9588 16.4782 21.2908 16.4782 21.7148C16.4782 22.0748 16.5782 22.3508 16.7782 22.5428C16.9862 22.7348 17.2742 22.8948 17.6422 23.0228C18.0102 23.1428 18.4342 23.2828 18.9142 23.4428C19.3142 23.5868 19.6742 23.7548 19.9942 23.9468C20.3142 24.1388 20.5622 24.3868 20.7382 24.6908C20.9222 24.9948 21.0142 25.3828 21.0142 25.8548C21.0142 26.2548 20.9102 26.6348 20.7022 26.9948C20.4942 27.3468 20.1782 27.6348 19.7542 27.8588C19.3382 28.0828 18.8142 28.1948 18.1822 28.1948ZM22.9957 20.7788C22.7957 20.7788 22.6277 20.7148 22.4917 20.5868C22.3637 20.4508 22.2997 20.2828 22.2997 20.0828C22.2997 19.8908 22.3637 19.7308 22.4917 19.6028C22.6277 19.4748 22.7957 19.4108 22.9957 19.4108C23.1877 19.4108 23.3517 19.4748 23.4877 19.6028C23.6237 19.7308 23.6917 19.8908 23.6917 20.0828C23.6917 20.2828 23.6237 20.4508 23.4877 20.5868C23.3517 20.7148 23.1877 20.7788 22.9957 20.7788ZM22.4917 28.0508V22.0988H23.4997V28.0508H22.4917ZM27.6068 28.0508C27.0628 28.0508 26.6348 27.9188 26.3228 27.6548C26.0108 27.3908 25.8548 26.9148 25.8548 26.2268V22.9508H24.8228V22.0988H25.8548L25.9868 20.6708H26.8628V22.0988H28.6148V22.9508H26.8628V26.2268C26.8628 26.6028 26.9388 26.8588 27.0908 26.9948C27.2428 27.1228 27.5108 27.1868 27.8948 27.1868H28.5188V28.0508H27.6068ZM32.4073 28.1948C31.8393 28.1948 31.3353 28.0668 30.8953 27.8108C30.4553 27.5468 30.1073 27.1828 29.8513 26.7188C29.6033 26.2548 29.4793 25.7068 29.4793 25.0748C29.4793 24.4508 29.6033 23.9068 29.8513 23.4428C30.0993 22.9708 30.4433 22.6068 30.8833 22.3508C31.3313 22.0868 31.8473 21.9548 32.4313 21.9548C33.0073 21.9548 33.5033 22.0868 33.9193 22.3508C34.3433 22.6068 34.6673 22.9468 34.8913 23.3708C35.1153 23.7948 35.2273 24.2508 35.2273 24.7388C35.2273 24.8268 35.2233 24.9148 35.2153 25.0028C35.2153 25.0908 35.2153 25.1908 35.2153 25.3028H30.4753C30.4993 25.7588 30.6033 26.1388 30.7873 26.4428C30.9793 26.7388 31.2153 26.9628 31.4953 27.1148C31.7833 27.2668 32.0873 27.3428 32.4073 27.3428C32.8233 27.3428 33.1713 27.2468 33.4513 27.0548C33.7313 26.8628 33.9353 26.6028 34.0633 26.2748H35.0593C34.8993 26.8268 34.5913 27.2868 34.1353 27.6548C33.6873 28.0148 33.1113 28.1948 32.4073 28.1948ZM32.4073 22.8068C31.9273 22.8068 31.4993 22.9548 31.1233 23.2508C30.7553 23.5388 30.5433 23.9628 30.4873 24.5228H34.2313C34.2073 23.9868 34.0233 23.5668 33.6793 23.2628C33.3353 22.9588 32.9113 22.8068 32.4073 22.8068ZM41.7671 28.0508V20.4788H39.2591V19.6508H45.2831V20.4788H42.7751V28.0508H41.7671ZM45.7743 28.0508V22.0988H46.6863L46.7703 23.2388C46.9543 22.8468 47.2343 22.5348 47.6103 22.3028C47.9863 22.0708 48.4503 21.9548 49.0023 21.9548V23.0108H48.7263C48.3743 23.0108 48.0503 23.0748 47.7543 23.2028C47.4583 23.3228 47.2223 23.5308 47.0463 23.8268C46.8703 24.1228 46.7823 24.5308 46.7823 25.0508V28.0508H45.7743ZM52.1137 28.1948C51.6177 28.1948 51.2057 28.1108 50.8777 27.9428C50.5497 27.7748 50.3057 27.5508 50.1457 27.2708C49.9857 26.9908 49.9057 26.6868 49.9057 26.3588C49.9057 25.7508 50.1377 25.2828 50.6017 24.9548C51.0657 24.6268 51.6977 24.4628 52.4977 24.4628H54.1057V24.3908C54.1057 23.8708 53.9697 23.4788 53.6977 23.2148C53.4257 22.9428 53.0617 22.8068 52.6057 22.8068C52.2137 22.8068 51.8737 22.9068 51.5857 23.1068C51.3057 23.2988 51.1297 23.5828 51.0577 23.9588H50.0257C50.0657 23.5268 50.2097 23.1628 50.4577 22.8668C50.7137 22.5708 51.0297 22.3468 51.4057 22.1948C51.7817 22.0348 52.1817 21.9548 52.6057 21.9548C53.4377 21.9548 54.0617 22.1788 54.4777 22.6268C54.9017 23.0668 55.1137 23.6548 55.1137 24.3908V28.0508H54.2137L54.1537 26.9828C53.9857 27.3188 53.7377 27.6068 53.4097 27.8468C53.0897 28.0788 52.6577 28.1948 52.1137 28.1948ZM52.2697 27.3428C52.6537 27.3428 52.9817 27.2428 53.2537 27.0428C53.5337 26.8428 53.7457 26.5828 53.8897 26.2628C54.0337 25.9428 54.1057 25.6068 54.1057 25.2548V25.2428H52.5817C51.9897 25.2428 51.5697 25.3468 51.3217 25.5548C51.0817 25.7548 50.9617 26.0068 50.9617 26.3108C50.9617 26.6228 51.0737 26.8748 51.2977 27.0668C51.5297 27.2508 51.8537 27.3428 52.2697 27.3428ZM56.9499 28.0508V22.9508H56.0499V22.0988H56.9499V21.0668C56.9499 20.4908 57.0939 20.0708 57.3819 19.8068C57.6699 19.5428 58.0899 19.4108 58.6419 19.4108H59.2419V20.2748H58.7979C58.4939 20.2748 58.2779 20.3388 58.1499 20.4668C58.0219 20.5868 57.9579 20.7948 57.9579 21.0908V22.0988H59.4219V22.9508H57.9579V28.0508H56.9499ZM60.9459 28.0508V22.9508H60.0459V22.0988H60.9459V21.0668C60.9459 20.4908 61.0899 20.0708 61.3779 19.8068C61.6659 19.5428 62.0859 19.4108 62.6379 19.4108H63.2379V20.2748H62.7939C62.4899 20.2748 62.2739 20.3388 62.1459 20.4668C62.0179 20.5868 61.9539 20.7948 61.9539 21.0908V22.0988H65.6499V28.0508H64.6419V22.9508H61.9539V28.0508H60.9459ZM65.1579 20.9588C64.9659 20.9588 64.8019 20.8948 64.6659 20.7668C64.5299 20.6308 64.4619 20.4628 64.4619 20.2628C64.4619 20.0708 64.5299 19.9108 64.6659 19.7828C64.8019 19.6548 64.9659 19.5908 65.1579 19.5908C65.3579 19.5908 65.5219 19.6548 65.6499 19.7828C65.7859 19.9108 65.8539 20.0708 65.8539 20.2628C65.8539 20.4628 65.7859 20.6308 65.6499 20.7668C65.5219 20.8948 65.3579 20.9588 65.1579 20.9588ZM70.1665 28.1948C69.5985 28.1948 69.0865 28.0668 68.6305 27.8108C68.1825 27.5468 67.8265 27.1828 67.5625 26.7188C67.3065 26.2468 67.1785 25.6988 67.1785 25.0748C67.1785 24.4508 67.3065 23.9068 67.5625 23.4428C67.8265 22.9708 68.1825 22.6068 68.6305 22.3508C69.0865 22.0868 69.5985 21.9548 70.1665 21.9548C70.8705 21.9548 71.4625 22.1388 71.9425 22.5068C72.4305 22.8748 72.7385 23.3668 72.8665 23.9828H71.8345C71.7545 23.6148 71.5585 23.3308 71.2465 23.1308C70.9345 22.9228 70.5705 22.8188 70.1545 22.8188C69.8185 22.8188 69.5025 22.9028 69.2065 23.0708C68.9105 23.2388 68.6705 23.4908 68.4865 23.8268C68.3025 24.1628 68.2105 24.5788 68.2105 25.0748C68.2105 25.5708 68.3025 25.9868 68.4865 26.3228C68.6705 26.6588 68.9105 26.9148 69.2065 27.0908C69.5025 27.2588 69.8185 27.3428 70.1545 27.3428C70.5705 27.3428 70.9345 27.2428 71.2465 27.0428C71.5585 26.8348 71.7545 26.5428 71.8345 26.1668H72.8665C72.7465 26.7668 72.4425 27.2548 71.9545 27.6308C71.4665 28.0068 70.8705 28.1948 70.1665 28.1948Z" fill="white"></path><rect x="79.2407" y="17.4883" width="38.8396" height="13.1245" rx="6.56224" fill="#DCD7FF"></rect><path d="M83.7388 24.4965V23.5952H85.7478V21.8027H86.7257V23.5952H88.7347V24.4965H86.7257V26.2991H85.7478V24.4965H83.7388Z" fill="#212121"></path><path d="M91.8779 27.0508V22.0671L90.8434 22.3099V21.4283L92.3637 20.7537H93.0744V27.0508H91.8779ZM96.5533 27.1587C96.0915 27.1587 95.6927 27.0778 95.3569 26.9158C95.027 26.7539 94.7662 26.532 94.5742 26.2501C94.3883 25.9623 94.2804 25.6384 94.2504 25.2786H95.3749C95.4288 25.5365 95.5608 25.7524 95.7707 25.9263C95.9806 26.0942 96.2415 26.1782 96.5533 26.1782C96.8892 26.1782 97.1621 26.0552 97.372 25.8093C97.5879 25.5635 97.6958 25.2576 97.6958 24.8918C97.6958 24.5139 97.5879 24.2141 97.372 23.9922C97.1621 23.7703 96.8952 23.6593 96.5713 23.6593C96.3015 23.6593 96.0676 23.7253 95.8696 23.8572C95.6717 23.9892 95.5308 24.1541 95.4468 24.352H94.3403L94.8801 20.7537H98.3705V21.7612H95.7437L95.4558 23.2185C95.5878 23.0746 95.7677 22.9576 95.9956 22.8677C96.2235 22.7717 96.4784 22.7238 96.7602 22.7238C97.21 22.7238 97.5849 22.8257 97.8847 23.0296C98.1846 23.2275 98.4125 23.4914 98.5684 23.8213C98.7243 24.1451 98.8023 24.4989 98.8023 24.8828C98.8023 25.3206 98.7064 25.7104 98.5144 26.0522C98.3285 26.3941 98.0646 26.664 97.7228 26.8619C97.387 27.0598 96.9971 27.1587 96.5533 27.1587ZM102.456 27.1587C101.874 27.1587 101.376 27.0238 100.962 26.7539C100.549 26.478 100.228 26.0972 99.9998 25.6114C99.7779 25.1197 99.667 24.5499 99.667 23.9022C99.667 23.2605 99.7779 22.6938 99.9998 22.202C100.228 21.7102 100.549 21.3294 100.962 21.0595C101.376 20.7836 101.874 20.6457 102.456 20.6457C103.037 20.6457 103.535 20.7836 103.949 21.0595C104.363 21.3294 104.681 21.7102 104.903 22.202C105.13 22.6938 105.244 23.2605 105.244 23.9022C105.244 24.5499 105.13 25.1197 104.903 25.6114C104.681 26.0972 104.363 26.478 103.949 26.7539C103.535 27.0238 103.037 27.1587 102.456 27.1587ZM102.456 26.1242C102.929 26.1242 103.316 25.9263 103.616 25.5305C103.916 25.1347 104.066 24.5919 104.066 23.9022C104.066 23.2125 103.916 22.6698 103.616 22.274C103.316 21.8781 102.929 21.6802 102.456 21.6802C101.976 21.6802 101.586 21.8781 101.286 22.274C100.992 22.6698 100.845 23.2125 100.845 23.9022C100.845 24.5919 100.992 25.1347 101.286 25.5305C101.586 25.9263 101.976 26.1242 102.456 26.1242ZM107.556 23.8482C107.268 23.8482 107.007 23.7853 106.773 23.6593C106.539 23.5274 106.354 23.3415 106.216 23.1016C106.078 22.8617 106.009 22.5768 106.009 22.247C106.009 21.9171 106.078 21.6323 106.216 21.3924C106.354 21.1525 106.539 20.9696 106.773 20.8436C107.007 20.7117 107.271 20.6457 107.565 20.6457C107.853 20.6457 108.111 20.7117 108.339 20.8436C108.573 20.9696 108.758 21.1525 108.896 21.3924C109.034 21.6323 109.103 21.9171 109.103 22.247C109.103 22.5768 109.034 22.8617 108.896 23.1016C108.758 23.3415 108.573 23.5274 108.339 23.6593C108.105 23.7853 107.844 23.8482 107.556 23.8482ZM107.214 27.0508L110.768 20.7537H111.892L108.339 27.0508H107.214ZM107.556 23.0476C107.73 23.0476 107.88 22.9816 108.006 22.8497C108.132 22.7118 108.195 22.5109 108.195 22.247C108.195 21.9831 108.132 21.7822 108.006 21.6442C107.886 21.5063 107.736 21.4373 107.556 21.4373C107.376 21.4373 107.223 21.5063 107.097 21.6442C106.977 21.7822 106.917 21.9831 106.917 22.247C106.917 22.5109 106.977 22.7118 107.097 22.8497C107.223 22.9816 107.376 23.0476 107.556 23.0476ZM111.586 27.1587C111.298 27.1587 111.037 27.0958 110.804 26.9698C110.57 26.8379 110.384 26.652 110.246 26.4121C110.108 26.1722 110.039 25.8873 110.039 25.5575C110.039 25.2276 110.108 24.9457 110.246 24.7118C110.384 24.472 110.57 24.289 110.804 24.1631C111.037 24.0312 111.301 23.9652 111.595 23.9652C111.883 23.9652 112.141 24.0312 112.369 24.1631C112.603 24.289 112.789 24.472 112.927 24.7118C113.065 24.9457 113.133 25.2276 113.133 25.5575C113.133 25.8873 113.065 26.1722 112.927 26.4121C112.789 26.652 112.603 26.8379 112.369 26.9698C112.141 27.0958 111.88 27.1587 111.586 27.1587ZM111.586 26.3581C111.766 26.3581 111.916 26.2921 112.036 26.1602C112.162 26.0223 112.225 25.8213 112.225 25.5575C112.225 25.2936 112.162 25.0927 112.036 24.9547C111.916 24.8168 111.766 24.7478 111.586 24.7478C111.406 24.7478 111.253 24.8168 111.127 24.9547C111.007 25.0927 110.947 25.2936 110.947 25.5575C110.947 25.8213 111.007 26.0223 111.127 26.1602C111.253 26.2921 111.406 26.3581 111.586 26.3581Z" fill="#212121"></path><path d="M114.552 58.1152L114.552 132.747" stroke="#9687FF" stroke-width="0.449591"></path><circle cx="114.5" cy="55.5" r="2.82561" fill="#9687FF" stroke="#9687FF" stroke-width="1.34877"></circle></g><path d="M119.296 124.605L135.631 162.611L141.324 146.133L157.621 140.017L119.296 124.605Z" fill="#9687FF"></path><defs><clipPath id="clip0_1091_52977"><rect y="0.4375" width="143.807" height="144.102" rx="6.74692" fill="white"></rect></clipPath></defs></svg>